<svg width="120" height="40" viewBox="0 0 120 40" fill="none" xmlns="http://www.w3.org/2000/svg">
<rect x="0.499756" y="0.5" width="119" height="39" rx="5.5" fill="black"/>
<rect x="0.499756" y="0.5" width="119" height="39" rx="5.5" stroke="#A6A6A6"/>
<path d="M17.8046 19.4617L8.08936 30.0059C8.09027 30.0078 8.09027 30.0106 8.09118 30.0125C8.38956 31.1574 9.41154 32 10.6251 32C11.1106 32 11.5659 31.8656 11.9565 31.6305L11.9875 31.6118L22.9227 25.1593L17.8046 19.4617Z" fill="#EA4335"/>
<path d="M27.6329 17.6662L27.6238 17.6597L22.9026 14.8612L17.5837 19.7013L22.9218 25.1582L27.6174 22.3878C28.4405 21.9324 28.9998 21.045 28.9998 20.0223C28.9998 19.0052 28.4487 18.1225 27.6329 17.6662Z" fill="#FBBC04"/>
<path d="M8.08918 9.99331C8.03078 10.2135 7.99976 10.4449 7.99976 10.6838V29.3163C7.99976 29.5552 8.03078 29.7866 8.09009 30.0059L18.1384 19.7313L8.08918 9.99331Z" fill="#4285F4"/>
<path d="M17.8764 19.9999L22.9042 14.8594L11.9818 8.38354C11.5848 8.13999 11.1213 8.00003 10.6258 8.00003C9.41221 8.00003 8.38841 8.8445 8.09002 9.99037C8.09002 9.9913 8.08911 9.99224 8.08911 9.99317L17.8764 19.9999Z" fill="#34A853"/>
<path d="M43.6098 11.71C43.6098 12.71 43.3131 13.5067 42.7198 14.1C42.0531 14.8067 41.1764 15.16 40.0898 15.16C39.0498 15.16 38.1698 14.8 37.4498 14.08C36.7298 13.36 36.3698 12.4733 36.3698 11.42C36.3698 10.3667 36.7298 9.48 37.4498 8.76C38.1698 8.04 39.0498 7.68 40.0898 7.68C40.6164 7.68 41.1131 7.77333 41.5798 7.96C42.0464 8.14667 42.4298 8.41 42.7298 8.75L42.0698 9.41C41.8498 9.14333 41.5631 8.93667 41.2098 8.79C40.8631 8.63667 40.4898 8.56 40.0898 8.56C39.3098 8.56 38.6498 8.83 38.1098 9.37C37.5764 9.91667 37.3098 10.6 37.3098 11.42C37.3098 12.24 37.5764 12.9233 38.1098 13.47C38.6498 14.01 39.3098 14.28 40.0898 14.28C40.8031 14.28 41.3964 14.08 41.8698 13.68C42.3431 13.28 42.6164 12.73 42.6898 12.03H40.0898V11.17H43.5598C43.5931 11.3567 43.6098 11.5367 43.6098 11.71ZM48.9076 7.84V8.72H45.6476V10.99H48.5876V11.85H45.6476V14.12H48.9076V15H44.7276V7.84H48.9076ZM52.5875 8.72V15H51.6675V8.72H49.6675V7.84H54.5875V8.72H52.5875ZM58.6651 15H57.7451V7.84H58.6651V15ZM62.5484 8.72V15H61.6284V8.72H59.6284V7.84H64.5484V8.72H62.5484ZM74.5208 11.42C74.5208 12.48 74.1674 13.3667 73.4608 14.08C72.7474 14.8 71.8741 15.16 70.8408 15.16C69.8008 15.16 68.9274 14.8 68.2208 14.08C67.5141 13.3667 67.1608 12.48 67.1608 11.42C67.1608 10.36 67.5141 9.47333 68.2208 8.76C68.9274 8.04 69.8008 7.68 70.8408 7.68C71.8808 7.68 72.7541 8.04333 73.4608 8.77C74.1674 9.48333 74.5208 10.3667 74.5208 11.42ZM68.1008 11.42C68.1008 12.2467 68.3608 12.93 68.8808 13.47C69.4074 14.01 70.0608 14.28 70.8408 14.28C71.6208 14.28 72.2708 14.01 72.7908 13.47C73.3174 12.9367 73.5808 12.2533 73.5808 11.42C73.5808 10.5867 73.3174 9.90333 72.7908 9.37C72.2708 8.83 71.6208 8.56 70.8408 8.56C70.0608 8.56 69.4074 8.83 68.8808 9.37C68.3608 9.91 68.1008 10.5933 68.1008 11.42ZM76.5265 15H75.6065V7.84H76.7265L80.2065 13.41H80.2465L80.2065 12.03V7.84H81.1265V15H80.1665L76.5265 9.16H76.4865L76.5265 10.54V15Z" fill="white"/>
<path d="M93.5179 31.4097H95.1467V20.3981H93.5179V31.4097ZM108.189 24.3646L106.321 29.1388H106.266L104.328 24.3646H102.573L105.479 31.0371L103.823 34.749H105.521L110 24.3646H108.189ZM98.9516 30.1588C98.4174 30.1588 97.6737 29.8902 97.6737 29.2234C97.6737 28.3742 98.5998 28.0483 99.4003 28.0483C100.116 28.0483 100.454 28.2042 100.889 28.4165C100.762 29.4365 99.8917 30.1588 98.9516 30.1588ZM99.148 24.1241C97.9687 24.1241 96.7467 24.6482 96.2422 25.8101L97.6877 26.4188C97.9967 25.8101 98.5719 25.611 99.1759 25.611C100.018 25.611 100.875 26.121 100.889 27.0283V27.1411C100.594 26.971 99.9624 26.7165 99.1899 26.7165C97.6318 26.7165 96.0449 27.5806 96.0449 29.1952C96.0449 30.6689 97.3228 31.6184 98.7543 31.6184C99.8498 31.6184 100.454 31.1225 100.833 30.5411H100.889V31.3912H102.461V27.1692C102.461 25.2146 101.015 24.1241 99.148 24.1241ZM89.0819 25.7053H86.7652V21.9308H89.0819C90.2995 21.9308 90.9909 22.9482 90.9909 23.8176C90.9909 24.6711 90.2995 25.7053 89.0819 25.7053ZM89.04 20.3981H85.1373V31.4097H86.7652V27.2379H89.04C90.8451 27.2379 92.6197 25.9184 92.6197 23.8176C92.6197 21.7168 90.8451 20.3981 89.04 20.3981ZM67.7581 30.1606C66.6329 30.1606 65.6911 29.2102 65.6911 27.9047C65.6911 26.5852 66.6329 25.6198 67.7581 25.6198C68.8693 25.6198 69.7404 26.5852 69.7404 27.9047C69.7404 29.2102 68.8693 30.1606 67.7581 30.1606ZM69.6287 24.9812H69.5719C69.2062 24.5417 68.5035 24.1444 67.6175 24.1444C65.7609 24.1444 64.0596 25.7898 64.0596 27.9047C64.0596 30.0047 65.7609 31.6369 67.6175 31.6369C68.5035 31.6369 69.2062 31.2396 69.5719 30.7851H69.6287V31.3251C69.6287 32.7582 68.8692 33.5246 67.6455 33.5246C66.6469 33.5246 66.028 32.8005 65.7749 32.1901L64.3547 32.7864C64.7623 33.78 65.8456 35 67.6455 35C69.558 35 71.1754 33.8646 71.1754 31.0978V24.3708H69.6287V24.9812ZM72.3006 31.4097H73.932V20.3973H72.3006V31.4097ZM76.3359 27.777C76.294 26.3298 77.4471 25.5916 78.2764 25.5916C78.9241 25.5916 79.4722 25.9176 79.6547 26.3862L76.3359 27.777ZM81.3987 26.528C81.0897 25.6912 80.147 24.1444 78.2205 24.1444C76.308 24.1444 74.7194 25.6621 74.7194 27.8907C74.7194 29.9906 76.294 31.6369 78.4029 31.6369C80.1051 31.6369 81.0897 30.5869 81.4973 29.9765L80.2316 29.1247C79.81 29.7493 79.2331 30.1606 78.4029 30.1606C77.5737 30.1606 76.9827 29.7774 76.603 29.0261L81.5672 26.9534L81.3987 26.528ZM41.8499 25.2939V26.883H45.6181C45.5055 27.777 45.2105 28.4297 44.7609 28.8834C44.2119 29.4374 43.3538 30.0479 41.8499 30.0479C39.5288 30.0479 37.715 28.1602 37.715 25.8189C37.715 23.4767 39.5288 21.5899 41.8499 21.5899C43.1016 21.5899 44.0155 22.0867 44.6902 22.7254L45.8014 21.604C44.8587 20.6959 43.6079 20 41.8499 20C38.6717 20 35.9998 22.6117 35.9998 25.8189C35.9998 29.0261 38.6717 31.6369 41.8499 31.6369C43.5651 31.6369 44.8587 31.0688 45.8713 30.0047C46.9126 28.9547 47.2356 27.4793 47.2356 26.2866C47.2356 25.9176 47.2076 25.5775 47.1509 25.2939H41.8499ZM51.5206 30.1606C50.3954 30.1606 49.4248 29.2243 49.4248 27.8907C49.4248 26.5421 50.3954 25.6198 51.5206 25.6198C52.6449 25.6198 53.6155 26.5421 53.6155 27.8907C53.6155 29.2243 52.6449 30.1606 51.5206 30.1606ZM51.5206 24.1444C49.4667 24.1444 47.7934 25.7194 47.7934 27.8907C47.7934 30.0479 49.4667 31.6369 51.5206 31.6369C53.5736 31.6369 55.247 30.0479 55.247 27.8907C55.247 25.7194 53.5736 24.1444 51.5206 24.1444ZM59.6498 30.1606C58.5246 30.1606 57.554 29.2243 57.554 27.8907C57.554 26.5421 58.5246 25.6198 59.6498 25.6198C60.775 25.6198 61.7447 26.5421 61.7447 27.8907C61.7447 29.2243 60.775 30.1606 59.6498 30.1606ZM59.6498 24.1444C57.5968 24.1444 55.9234 25.7194 55.9234 27.8907C55.9234 30.0479 57.5968 31.6369 59.6498 31.6369C61.7028 31.6369 63.3762 30.0479 63.3762 27.8907C63.3762 25.7194 61.7028 24.1444 59.6498 24.1444Z" fill="white"/>
</svg>
