<svg width="113" height="102" viewBox="0 0 113 102" fill="none" xmlns="http://www.w3.org/2000/svg">
<path opacity="0.95" d="M57.2401 93.1334C58.6301 94.3834 59.9401 95.8934 60.2201 97.7434C60.5001 99.5934 59.3201 101.753 57.4601 101.903C55.6601 102.053 54.2701 100.433 53.2601 98.9334C52.0501 97.1334 50.9101 95.2734 49.8701 93.3734C49.3201 92.3734 46.4201 87.3634 46.7801 86.2834C47.2501 84.8734 56.2001 92.1834 57.2501 93.1234L57.2401 93.1334Z" fill="url(#paint0_radial_27_17105)"/>
<path opacity="0.95" d="M46.7 98.5834C46.98 99.3934 47.41 100.303 48.24 100.523C49.02 100.733 49.86 100.213 50.24 99.5034C50.63 98.7934 50.65 97.9434 50.61 97.1334C50.48 94.5734 49.73 92.1134 48.77 89.7534C48.29 88.5634 47.74 87.3934 47.18 86.2334C46.59 85.0134 46.41 83.8734 45.65 85.3634C43.85 88.8834 45.52 95.1634 46.7 98.5834Z" fill="url(#paint1_radial_27_17105)"/>
<path opacity="0.95" d="M96.9199 65.7734C96.3999 59.1234 97.3899 49.1734 103.15 44.8134C100.96 46.4734 98.7099 47.7934 96.7599 49.7834C94.8499 51.7334 93.4999 54.1934 91.5399 56.0634C90.2499 57.2934 88.5899 57.7234 87.6599 56.4134C87.0699 55.5834 86.7999 53.5734 86.7899 52.5734C86.7499 48.9734 87.4899 45.8534 86.6699 42.2134C85.1899 35.6334 81.0699 29.6334 75.3999 25.9634C67.2799 20.6934 56.4599 20.1934 47.6199 24.1134C46.5399 24.5934 45.4799 25.1634 44.6299 25.9734C44.6499 25.8534 44.6699 25.7334 44.6899 25.6134C44.5499 26.3234 40.5999 29.1034 39.8899 29.9534C38.5099 31.6134 37.0599 33.3534 35.7999 35.1234C32.6399 39.5834 31.2799 43.6834 29.6899 48.8534C29.2699 50.2734 28.7999 51.6734 28.1799 53.0234C25.4299 59.0634 20.7999 64.1934 14.2099 65.9034C10.8999 66.7634 7.44991 66.8934 4.02991 66.9434C3.08991 66.9534 2.10991 66.9734 1.28991 67.4234C-1.92009 69.1534 1.75991 71.0834 3.56991 71.3334C4.63991 71.4834 4.92991 71.3034 5.43991 72.2534C5.74991 72.8334 5.17991 73.2934 5.85991 73.8834C6.36991 74.3234 7.19991 74.2134 7.80991 74.1934C13.0299 74.0734 15.6999 78.0434 19.7399 80.5234C24.1099 83.2034 28.9299 85.1534 33.9499 86.2134C35.9999 86.6434 38.1299 86.9234 40.2299 86.8734C41.1499 87.0134 42.0799 87.0934 42.9999 87.1434C52.6599 87.6834 62.5199 85.7334 71.1499 81.3734C74.9699 79.4434 78.7799 77.2334 81.7599 74.1134C83.1399 72.6734 84.2999 71.0934 85.4599 69.4834C86.1299 68.5534 87.0899 67.5334 88.3199 67.4534C89.5699 67.3734 90.9499 67.9034 91.8399 68.7734C92.8199 69.7234 93.5499 70.9034 94.4099 71.9634C95.4899 73.2934 96.8099 74.4634 98.2899 75.3234C99.3199 75.9234 100.68 76.1434 101.55 76.9334C98.6199 74.0734 97.2499 69.9334 96.9099 65.9234C96.9099 65.8634 96.9099 65.8034 96.8999 65.7434L96.9199 65.7734Z" fill="url(#paint2_radial_27_17105)"/>
<path opacity="0.95" d="M87.21 83.1334C86.38 82.7734 85.61 82.2734 85.01 81.6034C84.75 81.3134 84.54 80.9734 84.35 80.6234C83.57 79.1934 83.31 77.7134 83.42 76.1034C83.55 74.0234 83.96 71.9134 84.99 70.0934C83.2 73.3534 80.12 75.8934 77.06 77.8934C75.14 79.1434 73.21 80.3534 71.17 81.3834C66.64 83.6734 61.92 85.4734 56.71 86.1834C60.67 88.3734 64.72 90.4034 69.09 91.5234C73.96 92.7834 78.85 92.5234 83.67 91.2234C84.35 91.0434 85.03 90.8434 85.7 90.6034C90.12 88.9834 94.07 86.6434 97.33 83.3234C97.57 83.0834 97.81 82.8634 98.05 82.6234C98.27 82.4134 98.47 81.9834 98.71 81.8234C97.05 82.9334 95.1 83.7234 93.1 83.8834C92.05 83.9634 91 83.9134 89.96 83.8334C89.04 83.7634 88.05 83.4734 87.21 83.1134V83.1334Z" fill="url(#paint3_radial_27_17105)"/>
<path d="M57.2401 93.1334C58.6301 94.3834 59.9401 95.8934 60.2201 97.7434C60.5001 99.5934 59.3201 101.753 57.4601 101.903C55.6601 102.053 54.2701 100.433 53.2601 98.9334C52.0501 97.1334 50.9101 95.2734 49.8701 93.3734C49.3201 92.3734 46.4201 87.3634 46.7801 86.2834C47.2501 84.8734 56.2001 92.1834 57.2501 93.1234L57.2401 93.1334Z" fill="url(#paint4_radial_27_17105)"/>
<path d="M83.4599 74.9134C83.4299 75.1034 83.4099 75.3034 83.3999 75.4834C83.2399 77.3934 83.5399 79.5134 84.6699 81.1134C85.4999 82.2934 86.7399 82.9234 88.0699 83.3634C91.5899 84.5234 95.6399 83.9734 98.7199 81.8934C93.2999 88.0034 85.3899 91.8034 77.2499 92.3434C68.7699 92.9034 60.8299 88.5334 53.6899 84.4834C54.9999 85.2234 61.2499 82.0034 62.5799 81.4234C66.5299 79.7034 70.4499 77.8534 74.0799 75.5234C76.0899 74.2334 78.2199 73.1634 80.3299 72.0334C81.3899 71.4634 82.4499 70.8834 83.4699 70.2634C84.4899 69.6434 85.3999 68.9234 86.3599 68.2134C86.7499 67.9334 87.1299 67.6534 87.5299 67.3734C85.2099 68.9834 83.8299 72.1034 83.4599 74.9034V74.9134Z" fill="url(#paint5_radial_27_17105)"/>
<path d="M46.7 98.5834C46.98 99.3934 47.41 100.303 48.24 100.523C49.02 100.733 49.86 100.213 50.24 99.5034C50.63 98.7934 50.65 97.9434 50.61 97.1334C50.48 94.5734 49.73 92.1134 48.77 89.7534C48.29 88.5634 47.74 87.3934 47.18 86.2334C46.59 85.0134 46.41 83.8734 45.65 85.3634C43.85 88.8834 45.52 95.1634 46.7 98.5834Z" fill="url(#paint6_radial_27_17105)"/>
<path d="M44.1899 29.6934C37.5499 33.4334 30.9799 39.5234 32.0299 47.0234C30.4499 39.2334 29.4899 31.1034 31.4199 23.3934C34.5899 10.7934 48.4499 1.68339 60.9999 0.383385C70.7599 -0.626615 78.3699 0.553386 87.0999 4.05339C100.38 9.37339 106.22 20.4534 108.59 33.8134C107.96 30.2534 102.9 29.8334 99.5399 31.1534C90.0699 34.8834 83.9799 46.0234 86.1999 56.0034C85.4599 47.1234 79.9599 34.0534 72.3499 29.1134C66.9999 25.6434 60.1199 25.8034 53.8099 26.6634C51.0299 27.0434 47.5499 28.0834 44.1999 29.7134L44.1899 29.6934Z" fill="url(#paint7_radial_27_17105)"/>
<path opacity="0.25" d="M45.6499 94.9634C45.4699 94.0134 45.9799 92.6034 46.7199 91.9834C47.4599 91.3634 48.5299 91.1734 49.4399 91.5034C49.1899 90.6034 48.9399 89.6934 48.6899 88.7934C48.5799 88.4134 48.4699 88.0234 48.2299 87.7134C47.7399 87.0834 46.6899 86.8934 45.9499 87.0934C44.8499 87.3934 44.8899 87.6134 44.8199 88.8034C44.6899 90.9234 45.2699 92.9734 45.6499 94.9734V94.9634Z" fill="#701E3A"/>
<path opacity="0.35" d="M55.8199 91.9134C54.6099 91.6034 53.0699 92.2834 52.5299 93.4334C52.0799 94.3934 51.7699 96.8534 52.4599 97.7734C51.1799 96.0734 50.2699 94.1134 49.5399 92.1234C48.9499 90.4934 48.5599 88.2934 47.3799 86.9634C48.1299 86.9934 48.9699 86.8934 49.6299 87.2134C50.1999 87.4934 50.6299 88.0834 51.1399 88.4634C52.6899 89.6234 54.2499 90.7634 55.8099 91.9134H55.8199Z" fill="#701E3A"/>
<path d="M102.34 54.3034C100.99 57.5834 100.48 61.1434 101.37 64.8734C102.65 70.2834 106.87 74.9034 112.13 76.6834C106.04 79.0434 98.5399 77.0534 94.4299 71.9934C93.5699 70.9334 92.8399 69.7534 91.8599 68.8034C90.3999 67.3934 87.6299 66.9234 85.9299 68.3534C85.3999 68.7934 85.0999 69.4434 84.7699 70.0534C81.9299 75.3934 76.2999 78.6334 71.0799 81.2634C62.4499 85.6234 52.6699 87.7134 43.0099 87.1734C39.9799 87.0034 36.8299 86.5234 34.3899 84.7234C37.2799 81.4734 40.1699 78.1334 42.0999 74.2234C44.0299 70.3234 44.9299 65.7334 43.6699 61.5634C42.5799 57.9634 39.9799 54.9234 39.1299 51.2534C37.9299 46.0834 40.3899 40.8734 41.6199 35.7134C42.2499 33.0734 42.3999 28.4534 44.2199 26.3534C45.1199 25.3234 46.3599 24.6634 47.6099 24.1134C56.4499 20.1934 67.2799 20.6934 75.3899 25.9634C81.0599 29.6434 85.1699 35.6334 86.6599 42.2134C87.4799 45.8534 86.7399 48.9734 86.7799 52.5734C86.7899 53.5734 87.0699 55.5834 87.6499 56.4134C88.5799 57.7234 90.2399 57.3034 91.5299 56.0634C92.5399 55.1034 93.1599 53.8234 93.8899 52.6334C97.5399 46.6834 104.34 42.7834 111.33 42.6434C107.68 45.7834 104.2 49.7634 102.34 54.2934V54.3034Z" fill="url(#paint8_radial_27_17105)"/>
<path d="M29.6999 48.8634C29.2799 50.2834 28.8099 51.6834 28.1899 53.0334C25.4399 59.0734 20.8099 64.2034 14.2199 65.9134C10.9099 66.7734 7.45992 66.9034 4.03992 66.9534C3.09992 66.9634 2.11992 66.9834 1.29992 67.4334C-1.91008 69.1634 1.76992 71.0934 3.57992 71.3434C4.64992 71.4934 4.93992 71.3134 5.44992 72.2634C5.75992 72.8434 5.18992 73.3034 5.86992 73.8934C6.37992 74.3334 7.20992 74.2234 7.81992 74.2034C13.0399 74.0834 15.7099 78.0534 19.7499 80.5334C24.1199 83.2134 28.9399 85.1634 33.9599 86.2234C37.8499 87.0434 42.0099 87.3234 45.7199 85.8734C49.6499 84.3434 52.6399 81.0234 54.8199 77.4134C59.5599 69.5834 60.7899 59.1334 57.0199 50.6634C52.9899 41.6234 42.3999 37.0834 44.6799 25.6034C44.5399 26.3134 40.6999 29.1334 39.9899 29.9934C38.6099 31.6534 37.1399 33.4234 35.7999 35.1234C32.7299 39.5834 31.2799 43.6834 29.6899 48.8534L29.6999 48.8634Z" fill="url(#paint9_linear_27_17105)"/>
<path d="M61.91 37.0934C61.5 35.5034 61.16 33.8934 60.98 32.2334C60.35 26.4434 60.49 19.8434 62.39 14.2834C63.31 11.5934 64.64 9.04338 66.31 6.74338C67.19 5.54338 70.8 0.353381 72.42 0.293381C68.66 0.103381 64.37 -0.406619 59.56 0.633381C57.64 0.953381 56.77 2.80338 55.74 4.23338C55.04 5.19338 54.4 6.20338 53.82 7.23338C52.72 9.20338 51.86 11.2934 51.25 13.4634C48.19 24.3234 51.69 35.8234 56.31 45.7034C58.96 51.3734 61.85 57.1434 62.77 63.4034C63.63 69.2234 64.12 74.5734 61.33 80.0734C59.85 82.9934 57.32 85.5234 54.3 86.6134C56.51 86.2734 58.7 85.8134 60.85 85.2234C62.13 84.3734 63.28 83.3134 64.22 82.1034C67.94 77.2934 67.99 71.7934 67.63 66.0534C67.23 59.5834 66.26 53.1434 64.73 46.8334C63.93 43.5234 62.76 40.3634 61.91 37.0934Z" fill="url(#paint10_linear_27_17105)"/>
<path d="M89.1801 86.1334C87.1301 85.4434 85.1801 84.3934 83.3501 83.2334C82.0401 82.4034 80.8301 81.4134 79.6101 80.4434C78.6001 79.6434 77.4001 78.4134 77.9701 77.0034C80.8501 69.9334 80.5501 61.6234 80.0101 54.1634C79.7201 50.1434 79.2901 46.0634 79.3701 42.0234C79.4201 39.3834 79.7001 36.7634 80.3701 34.1834C81.6501 29.2634 84.4401 24.4334 87.4901 20.3934C88.9901 18.4034 90.7701 16.6234 92.7501 15.1134C93.2801 14.7134 98.0001 11.2034 98.4401 11.6934C96.5701 9.13338 92.4901 6.15338 89.8901 5.37338C85.3801 7.23338 81.9201 10.9434 79.3101 14.9934C71.5801 27.0334 69.6101 41.6934 71.1001 55.7434C71.5901 60.3634 72.5201 64.9534 72.6301 69.6134C72.6801 71.7634 72.4401 73.9134 72.2001 76.0434C72.0701 77.1434 71.9401 78.2434 71.8301 79.3434C71.7501 80.1234 71.4601 81.1834 71.7401 81.9234C73.3201 86.0034 76.4301 89.7334 80.1801 92.0034C84.3301 91.5634 89.6201 89.1234 93.0501 86.9434C91.7201 86.8434 90.4301 86.5534 89.1901 86.1234L89.1801 86.1334Z" fill="url(#paint11_linear_27_17105)"/>
<path d="M96.5501 58.3634C97.5601 53.2234 100.11 48.5334 103.43 44.4334C99.5301 46.1434 96.1301 49.0034 93.9001 52.6434C93.1701 53.8334 92.5501 55.1034 91.5401 56.0734C90.2501 57.3034 88.5901 57.7334 87.6601 56.4234C86.7401 55.1234 87.1601 52.4234 87.1301 50.8834C87.0901 48.6434 87.1101 46.4134 87.1801 44.1734C87.1501 45.1834 86.3201 46.3234 85.9401 47.2434C82.6701 55.2834 81.4001 63.7534 84.1001 72.1434C84.5401 71.0934 85.2701 69.4834 86.2201 68.5334C87.8401 66.9134 90.4301 67.5234 91.8601 68.8034C92.8701 69.7134 93.5701 70.9334 94.4301 71.9934C96.1901 74.1534 98.5601 75.7534 101.18 76.6934C96.8101 71.9334 95.3001 64.7834 96.5501 58.3734V58.3634Z" fill="url(#paint12_linear_27_17105)"/>
<path style="mix-blend-mode:multiply" d="M29.6 64.7734C31.82 65.6334 34.19 65.4634 36.14 64.0634C39.66 61.5334 41.75 56.6034 41.15 52.2834C41 51.1734 40.48 50.1534 39.98 49.1534C40.13 50.3934 40.16 51.6634 39.98 52.9034C39.64 55.2334 38.52 57.4434 36.87 59.1134C36.26 59.7334 35.6 60.5634 34.82 60.9534C33.7 61.5134 32.21 61.7034 30.97 61.6634C28.08 61.5734 24.41 59.6334 23.4 56.8334C23.03 55.8134 22.66 54.7834 22.49 53.7134C22.67 55.7134 22.94 57.4234 23.75 59.2534C24.76 61.5434 27.03 63.7834 29.61 64.7834L29.6 64.7734Z" fill="url(#paint13_linear_27_17105)"/>
<path opacity="0.59" d="M27.29 60.1734C31.01 62.1534 35.52 62.3834 38.69 58.8334C36.07 61.7734 33.27 64.5534 28.82 63.1934C24.62 61.9134 24.35 58.7934 22.26 55.7134C23.47 57.5034 25.27 59.1034 27.29 60.1834V60.1734Z" fill="#083E88"/>
<path d="M22.4599 50.7234C21.2699 55.4934 24.4199 60.3934 29.4699 61.6434C34.5299 62.9034 39.5999 60.0434 40.7899 55.2734C41.9799 50.5034 38.8399 45.6034 33.7699 44.3534C28.7199 43.0934 23.6499 45.9534 22.4599 50.7234Z" fill="url(#paint14_radial_27_17105)"/>
<path d="M22.8199 51.8034C21.8899 55.5334 24.3399 59.3534 28.2999 60.3434C32.2499 61.3234 36.2099 59.1034 37.1399 55.3634C38.0699 51.6334 35.6099 47.8134 31.6599 46.8334C27.7099 45.8534 23.7499 48.0734 22.8199 51.8034Z" fill="url(#paint15_radial_27_17105)"/>
<path opacity="0.73" d="M36.2398 55.1734C36.6798 54.1634 36.9998 52.4934 36.5498 51.4134C37.7398 54.2534 36.9798 57.2334 34.5998 59.1734C31.8398 61.4234 27.1298 60.8634 24.6198 58.2934C23.0298 56.6634 22.8998 54.4634 22.8198 52.3934C23.8198 55.7234 26.1898 58.3134 29.9398 58.9134C32.6898 59.3534 35.2198 57.4634 36.2298 55.1634L36.2398 55.1734Z" fill="#9CA0A3"/>
<path d="M23.3401 50.7434C22.3601 52.2534 22.7901 54.2834 24.3101 55.2734C25.8301 56.2634 27.8601 55.8334 28.8401 54.3234C29.8301 52.8034 29.4001 50.7834 27.8801 49.7934C26.3601 48.8034 24.3301 49.2234 23.3401 50.7434Z" fill="url(#paint16_radial_27_17105)"/>
<path d="M26.09 55.9634C25.43 55.9634 24.78 55.7734 24.22 55.4034C22.63 54.3634 22.17 52.2334 23.2 50.6434C24.24 49.0534 26.38 48.6034 27.97 49.6434C28.74 50.1434 29.27 50.9134 29.46 51.8134C29.65 52.7134 29.48 53.6334 28.98 54.4034C28.48 55.1734 27.71 55.6934 26.81 55.8834C26.57 55.9334 26.33 55.9634 26.09 55.9634ZM23.48 50.8234C22.55 52.2534 22.96 54.1834 24.4 55.1234C25.1 55.5734 25.92 55.7334 26.74 55.5634C27.55 55.3934 28.25 54.9134 28.7 54.2234C29.15 53.5234 29.31 52.6934 29.14 51.8834C28.97 51.0734 28.49 50.3734 27.79 49.9234C26.35 48.9834 24.42 49.3934 23.48 50.8234Z" fill="#381F10"/>
<path d="M23.23 51.2434C22.56 52.2634 22.85 53.6234 23.88 54.2934C24.9 54.9634 26.27 54.6734 26.93 53.6534C27.59 52.6334 27.31 51.2634 26.28 50.5934C25.26 49.9234 23.89 50.2234 23.23 51.2434Z" fill="#000A20"/>
<path d="M22.73 51.9334C22.57 52.1834 22.64 52.5334 22.89 52.6934C23.15 52.8634 23.49 52.7834 23.65 52.5334C23.82 52.2734 23.75 51.9334 23.49 51.7634C23.24 51.5934 22.89 51.6734 22.73 51.9334Z" fill="white"/>
<path d="M28.0499 53.6634C27.6899 54.2134 27.8499 54.9734 28.4099 55.3334C28.9699 55.7034 29.7199 55.5334 30.0799 54.9834C30.4399 54.4234 30.2899 53.6834 29.7299 53.3134C29.1699 52.9534 28.4199 53.1034 28.0599 53.6634H28.0499Z" fill="white"/>
<path d="M26.37 53.2434C26.19 53.5134 26.27 53.8834 26.54 54.0634C26.81 54.2434 27.17 54.1634 27.35 53.8934C27.53 53.6234 27.45 53.2634 27.18 53.0834C26.91 52.9034 26.54 52.9834 26.37 53.2534V53.2434Z" fill="white"/>
<path d="M37.83 49.4834C35.9 46.8234 31.37 43.3434 27.77 44.7134C35.44 41.7334 43.46 49.1534 40.4 56.3934C39.93 57.5634 38.97 59.0134 37.94 59.7934C40.82 57.6234 39.63 51.9734 37.82 49.4834H37.83Z" fill="url(#paint17_linear_27_17105)"/>
<path d="M36.6199 56.8834C37.5499 55.1034 37.7099 52.6134 36.5899 50.8134C38.3199 53.7134 37.7799 57.4934 35.3099 59.7234C32.9999 61.8134 29.1099 61.5734 26.3799 60.1034C24.6999 59.1834 23.8399 57.7234 23.1299 56.0734C24.8099 58.7434 26.9899 60.6034 30.3899 60.5234C33.0099 60.4634 35.4599 59.1134 36.6299 56.8834H36.6199Z" fill="#25CFE9"/>
<path d="M33.9598 53.9034C33.6998 54.9234 34.3698 55.9634 35.4498 56.2334C36.5198 56.5034 37.5998 55.8934 37.8598 54.8734C38.1098 53.8534 37.4398 52.8134 36.3698 52.5434C35.2898 52.2734 34.2198 52.8834 33.9598 53.9034Z" fill="white"/>
<path d="M34.9699 50.5834C34.2999 52.1634 32.7199 49.9034 31.8399 49.3234C29.4899 47.7834 26.5299 47.4334 24.4199 49.3234C25.5899 48.2834 25.3799 47.4934 27.2499 46.9034C28.4199 46.5334 29.2599 46.4134 30.5099 46.6334C32.2099 46.9134 35.6799 48.0334 35.0799 50.2734C35.0499 50.3934 35.0099 50.5034 34.9699 50.6034V50.5834Z" fill="white"/>
<path d="M16.3 72.0134C14.22 73.0134 11.82 73.2334 9.51995 72.9434C7.59995 72.7034 5.75995 72.1134 3.94995 71.4434C8.04995 72.0334 12.15 72.2934 16.3 72.0134Z" fill="#011F38"/>
<path style="mix-blend-mode:screen" d="M26.4999 65.5234C25.8199 66.3034 25.0399 67.0434 24.3299 67.7134C23.2899 68.7134 21.9899 69.4634 20.6399 69.9534C18.2999 70.8134 15.7699 70.9934 13.2899 71.0634C11.1099 71.1234 8.92991 71.0034 6.75991 71.0134C4.80991 71.0134 3.01991 70.8734 1.21991 70.0234C0.649914 69.7534 0.0299143 69.3134 0.0399143 68.6734C0.0399143 68.1334 0.529914 67.7234 1.01991 67.4634C2.28991 66.7934 3.64991 66.8934 5.01991 66.8734C6.60991 66.8434 8.18991 66.8434 9.78991 66.7534C12.3599 66.6134 14.8299 66.1934 17.0999 64.9634C19.3599 63.7334 21.4699 62.2234 23.3699 60.4834C23.0899 60.7534 23.0399 61.2134 23.1599 61.5834C23.2799 61.9534 23.5499 62.2634 23.8199 62.5434C24.7599 63.4934 25.9199 64.2334 27.1799 64.6734C26.9799 64.9534 26.7499 65.2434 26.5099 65.5134L26.4999 65.5234Z" fill="url(#paint18_radial_27_17105)"/>
<path style="mix-blend-mode:screen" d="M15.3199 72.8834C13.3699 73.2934 11.3399 73.3634 9.35991 73.1034C8.39991 72.9734 7.43991 72.7734 6.51991 72.4934C6.18991 72.3934 5.77991 72.1234 5.49991 72.3434C5.24991 72.5434 5.34991 73.1834 5.45991 73.4334C5.87991 74.3334 7.17991 74.1834 7.99991 74.1834C10.2799 74.1834 12.5499 74.8834 14.4199 76.1934C14.9599 75.1734 15.2699 74.0434 15.3199 72.8934V72.8834Z" fill="url(#paint19_radial_27_17105)"/>
<path opacity="0.3" d="M80.85 68.3934C65.24 79.7934 43.37 84.0634 25.27 80.5634C21.79 79.8934 18.32 78.5834 15.52 76.3634C15.99 76.7334 16.44 77.7234 16.8 78.3834C17.74 79.1434 18.71 79.8934 19.77 80.5434C24.14 83.2234 28.96 85.1734 33.98 86.2334C36.03 86.6634 38.16 86.9434 40.26 86.8934C41.18 87.0334 42.11 87.1134 43.03 87.1634C52.69 87.7034 62.47 85.6134 71.1 81.2534C72.34 80.6334 73.57 79.9934 74.77 79.3034C78.72 77.0634 82.55 74.1634 85.01 70.2734C85.81 69.0134 86.61 67.7034 88.22 67.5034C89.53 67.3434 90.93 67.8734 91.88 68.7834C92.86 69.7334 93.59 70.9134 94.45 71.9734C95.89 73.7534 97.75 75.1334 99.82 76.1034C97.22 74.8834 94.95 69.5534 93.92 67.0734C92.63 63.9534 90.45 59.7234 92.67 56.6234C89.43 61.1334 85.42 65.0634 80.87 68.3834L80.85 68.3934Z" fill="#261B5F"/>
<path opacity="0.12" d="M87.4699 43.0234C86.9799 47.5534 83.0599 49.8834 79.8199 52.5234C75.8399 55.7734 71.5799 58.6634 67.3299 61.5534C62.6299 64.7434 57.7599 68.0334 52.2099 69.5334C46.8799 70.9834 41.2099 71.1934 35.7099 71.4234C31.0999 71.6234 26.4899 71.7834 21.8799 71.9134C19.0199 71.9934 13.1399 71.0134 10.6899 72.4334C11.7299 74.2134 14.7099 75.1234 16.3499 76.3734C27.8599 85.1034 41.9699 88.9634 56.3799 86.4334C60.7799 85.6634 65.1799 84.3134 69.1999 82.3534C71.2399 81.3534 73.3299 80.4334 75.2499 79.2134C77.1299 78.0234 78.7799 76.8834 80.4499 75.3834C82.1599 73.8334 83.6099 72.1834 84.9399 70.2834C85.4699 69.5234 85.9799 68.4834 86.6899 67.9034C87.2999 67.4034 88.0499 67.0734 88.8299 66.9934C90.5599 66.8234 92.2099 67.7234 93.2799 69.0434C94.3599 70.3934 95.6699 71.9234 97.3999 71.8634C92.7399 65.8434 92.3999 56.8334 96.5999 50.4834C95.4999 52.1434 94.7399 54.0434 93.3899 55.5334C92.2099 56.8434 89.4899 58.2434 87.9799 56.5134C87.4599 55.9134 87.3599 55.0634 87.2999 54.2734C87.0099 50.5334 87.0699 46.7634 87.4699 43.0334V43.0234Z" fill="#033076"/>
<path style="mix-blend-mode:screen" d="M41.2901 30.5834C39.6001 32.4334 37.9701 34.3534 36.4101 36.3234C35.8501 37.0334 35.2601 37.9434 35.5901 38.7934C35.8401 39.4434 36.5301 39.7734 37.1501 40.0934C44.2601 43.7534 47.9201 52.3734 47.2101 60.3434C46.5001 68.3034 42.0401 75.5534 36.3901 81.2034C45.2201 79.7234 52.8601 72.7134 55.1001 64.0434C57.3401 55.3834 54.0501 45.5434 47.0501 39.9634C45.1201 38.4334 42.8901 37.1334 41.6501 35.0034C40.4101 32.8734 40.7901 29.5434 43.1101 28.7034C41.4901 30.2634 39.8601 31.8134 38.2401 33.3734L41.2801 30.5934L41.2901 30.5834Z" fill="url(#paint20_radial_27_17105)"/>
<path style="mix-blend-mode:screen" d="M49.9399 18.3334C49.8299 19.2734 49.7999 20.2134 49.8699 21.1634C50.3499 27.7934 55.1099 34.5734 57.8699 40.5034C60.8099 46.8234 64.8499 52.7634 66.2099 59.6034C65.7999 57.5534 64.1999 55.2934 63.4499 53.3034C62.6499 51.1534 61.9599 48.9634 61.3899 46.7434C60.2399 42.3034 59.5599 37.7334 59.3499 33.1534C59.0299 26.3234 58.9699 18.9734 61.2099 12.4234C62.5399 8.54338 65.6399 2.61338 69.5499 0.753378C65.6599 0.133378 61.7099 1.05338 57.8799 1.97338C55.7999 4.62338 53.8399 6.35338 52.5699 9.56338C51.4399 12.4034 50.2999 15.3334 49.9499 18.3334H49.9399Z" fill="url(#paint21_radial_27_17105)"/>
<path style="mix-blend-mode:screen" d="M72.1301 34.5534C72.1501 35.1534 72.2001 35.7434 72.2701 36.3334C72.4701 37.9134 72.8801 39.4534 73.2901 40.9934C74.4101 45.2034 75.7101 49.2534 76.5701 53.5134C77.3201 57.2134 77.1901 60.6634 77.3901 64.3834C76.9301 55.4234 76.4701 46.3634 78.1101 37.5434C79.1501 31.9434 80.9001 26.0234 84.3301 21.3834C85.9201 19.2234 87.4401 16.9934 89.3901 15.1034C90.4101 14.1134 91.5101 13.2134 92.6801 12.4034C93.0201 12.1634 95.7701 10.1934 96.0501 10.4134C94.5001 9.16338 91.2101 6.43338 89.2301 6.14338C87.2601 5.85338 85.0201 8.54338 83.6701 9.86338C80.0501 13.4034 77.1401 17.6534 75.0101 22.2534C73.2301 26.1034 71.9801 30.3234 72.1201 34.5434L72.1301 34.5534Z" fill="url(#paint22_radial_27_17105)"/>
<path opacity="0.35" d="M56.9899 86.4034C57.3499 86.6534 58.3399 87.3334 58.1199 87.1434C57.6999 86.7834 59.1299 87.6634 59.6499 87.8934C60.8999 88.4434 62.1499 88.9734 63.4099 89.4734C65.9099 90.4734 68.4799 91.3534 71.1199 91.8934C67.4099 91.3434 70.8199 85.8034 71.9999 84.3734C72.9899 83.1634 74.1699 82.1834 75.3699 81.2034C76.1699 80.5534 77.0499 80.0134 77.9999 79.5934C78.9299 79.1834 79.8799 78.7434 80.8699 78.5134C81.7699 78.3034 82.7699 78.1934 83.5799 78.6334C83.2799 77.5434 83.2399 76.4134 83.4199 75.2934C83.5799 74.2634 83.7099 73.3034 84.1099 72.3134C84.6199 71.0434 85.3399 69.8634 86.0699 68.7034C85.3799 69.3034 84.9299 70.1234 84.4199 70.8734C83.5399 72.1734 82.4599 73.3434 81.3599 74.4634C79.9499 75.9034 78.3099 77.1134 76.6499 78.2534C72.6499 80.9934 68.1599 82.9134 63.5599 84.3834C61.2699 85.1134 58.9899 85.6434 56.6799 86.2534C56.7499 86.2334 56.8599 86.2934 56.9999 86.3934L56.9899 86.4034Z" fill="#701E3A"/>
<path opacity="0.35" d="M63.3401 71.6234C72.4401 68.7734 81.0301 64.3234 88.6601 58.5934C90.2901 57.3634 92.2701 56.1134 93.3501 54.4134C94.4901 52.6134 95.3601 50.8434 96.8501 49.2634C99.7201 46.2034 103.52 44.0134 107.64 43.1934C104.85 44.6534 102.84 47.3334 101.63 50.2434C100.43 53.1534 99.9501 56.3134 99.6101 59.4434C99.2201 63.0334 99.0101 66.7434 100.16 70.1634C101.31 73.5834 104.12 76.6634 107.7 77.1234C102.8 77.9834 98.2101 75.6234 94.8401 72.2234C93.6201 70.9934 92.7501 69.3834 91.3001 68.3734C90.4701 67.7934 89.4701 67.4634 88.4501 67.4534C86.9601 67.4534 85.6901 68.9134 84.9901 70.0634C83.9501 71.7934 82.8101 73.0634 81.5401 74.2934C80.2601 75.5334 79.2801 76.5334 77.8301 77.5534C74.1501 80.1534 70.4201 81.9934 66.3601 83.5734C59.4601 86.2634 51.9801 87.3934 44.5701 87.1734C34.6801 86.8734 23.3101 84.3934 16.1701 77.0834C15.4001 76.2934 14.6201 75.2134 14.9901 74.1734C15.2401 73.4634 15.9801 73.0234 16.7201 72.9034C17.4601 72.7834 18.2201 72.9334 18.9501 73.0834C23.6901 74.0334 28.4101 75.3034 33.2401 75.5034C38.1601 75.7134 43.0901 75.4434 47.9701 74.8834C53.1801 74.2834 58.3401 73.1934 63.3501 71.6234H63.3401Z" fill="#701E3A"/>
<path opacity="0.25" d="M92.7401 27.7634C89.3601 21.2134 81.5901 18.0434 74.2401 17.5034C66.8901 16.9634 59.5501 18.5034 52.1801 18.7434C48.3601 18.8634 43.7401 17.6234 40.9801 14.8034C40.8201 14.6434 40.6701 14.4734 40.5301 14.2934C39.6801 13.2034 39.1701 11.8134 39.2001 10.4834C35.5101 13.9334 32.7201 18.2834 31.4301 23.4134C31.3901 23.5734 31.3501 23.7434 31.3101 23.9034C30.5501 27.1634 30.2901 30.5234 30.3701 33.8734C30.4101 35.5534 30.5301 37.2434 30.7201 38.9134C30.8101 39.7534 30.9201 40.5934 31.0501 41.4234C31.1401 42.0634 31.4701 42.9334 31.3901 43.5634C33.5801 38.3834 36.4301 33.4734 40.4501 29.4834C40.8201 29.1134 41.2001 28.7534 41.5901 28.4034C43.7501 26.4634 46.1901 24.8134 48.8301 23.6034C50.1401 22.9934 51.5101 22.5034 52.9101 22.1334C54.3101 21.7634 55.6901 21.6834 57.1301 21.5434C65.9501 20.6934 75.0901 24.3034 80.9501 30.9434C84.0801 34.4934 86.3201 38.8534 87.4501 43.4634C88.9701 39.7734 91.4201 36.4534 94.5501 34.0234C94.3101 31.8334 93.7401 29.7034 92.7401 27.7734V27.7634Z" fill="#701E3A"/>
<g opacity="0.41">
<g style="mix-blend-mode:screen" opacity="0.78">
<path d="M31.69 75.1834C31.33 73.5334 29.83 74.0534 30.52 75.3034C30.89 75.9634 31.92 76.2434 31.69 75.1834Z" fill="#39B1E2"/>
</g>
<g style="mix-blend-mode:screen" opacity="0.78">
<path d="M27.3001 70.2734C25.8401 69.0334 23.7601 70.4834 25.4001 71.5734C26.5601 72.3434 28.9101 71.6434 27.3001 70.2734Z" fill="#39B1E2"/>
</g>
<g style="mix-blend-mode:screen" opacity="0.78">
<path d="M21.1101 66.1134C23.6501 65.5434 23.5701 69.3234 21.9901 69.2034C21.6901 69.1834 21.4301 69.0434 21.1701 68.9034C20.8701 68.7434 20.5701 68.5834 20.2701 68.4234C19.8901 68.2234 19.4601 67.9634 19.4001 67.5534C19.3301 67.1034 19.7301 66.7134 20.1501 66.4834C20.5101 66.2934 20.8301 66.1734 21.1201 66.1034L21.1101 66.1134Z" fill="#39B1E2"/>
</g>
<g style="mix-blend-mode:screen" opacity="0.78">
<path d="M22.65 71.7434C22.45 69.9434 20.31 71.3034 21 72.4334C21.65 73.5034 22.76 72.7634 22.65 71.7434Z" fill="#39B1E2"/>
</g>
<g style="mix-blend-mode:screen" opacity="0.78">
<path d="M28.0802 74.5034C28.7402 73.3834 26.4402 72.3934 26.2902 73.7134C26.2102 74.4434 27.6102 75.3134 28.0802 74.5034Z" fill="#39B1E2"/>
</g>
<g style="mix-blend-mode:screen" opacity="0.78">
<path d="M30.2501 71.5734C30.9901 71.2034 29.8401 70.3934 29.5101 70.9034C29.2801 71.2734 29.8601 71.7634 30.2501 71.5734Z" fill="#39B1E2"/>
</g>
<g style="mix-blend-mode:screen" opacity="0.78">
<path d="M24.6102 75.0334C25.3502 74.6634 24.2002 73.8534 23.8702 74.3634C23.6402 74.7334 24.2202 75.2234 24.6102 75.0334Z" fill="#39B1E2"/>
</g>
<path opacity="0.78" d="M25.6001 67.9434C25.5301 67.1434 24.5001 66.9134 24.4001 67.8034C24.3001 68.6634 25.7101 69.1434 25.6001 67.9434Z" fill="white"/>
<path opacity="0.78" d="M28.32 68.2634C27.88 67.6934 26.47 67.8034 26.89 68.6634C27.15 69.2034 29.21 69.4234 28.32 68.2634Z" fill="white"/>
<g style="mix-blend-mode:screen" opacity="0.78">
<path d="M15.0701 68.5034C15.6101 69.2534 16.5101 69.7534 17.4701 69.8534C17.5201 69.8534 17.5801 69.8534 17.6301 69.8334C17.6801 69.8034 17.7001 69.7534 17.7201 69.7034C17.7901 69.4734 17.6801 69.2234 17.5601 69.0134C17.3601 68.6634 17.1101 68.3234 16.8301 68.0234C16.5701 67.7534 16.2601 67.4934 15.8801 67.4534C15.5001 67.4134 15.0601 67.7134 15.1201 68.0834L15.0901 68.4934L15.0701 68.5034Z" fill="#39B1E2"/>
</g>
</g>
<path opacity="0.35" d="M48.91 22.0934C46.99 22.6334 45.69 23.1434 44.19 24.4134C41.76 26.4634 38.12 26.9234 35.46 25.0034C33.78 23.7934 32.8 21.7634 32.69 19.7034C32.19 20.8934 31.75 22.1134 31.43 23.4034C30.61 26.6634 30.31 30.0234 30.36 33.3834C30.38 35.0734 30.49 36.7534 30.67 38.4334C30.76 39.2734 30.86 40.1134 30.98 40.9534C31.09 41.7434 31.1 42.7134 31.37 43.4634C31.4 43.5434 31.41 43.6534 31.43 43.7434C32.36 41.2534 33.41 39.1034 34.76 36.8034C35.41 35.7034 36.22 34.4434 37.04 33.4634C39.34 30.7234 41.73 28.2234 44.59 26.0334C46.21 24.7934 47.58 24.0834 49.43 23.2034C51.5 22.2234 53.99 21.7534 56.26 21.5034C58.97 21.2034 61.74 21.2734 64.43 21.7234C66.81 22.1234 70.25 23.2034 72.15 24.3334C68.72 21.7534 63.8 20.6334 59.63 20.6534C56.01 20.6634 52.39 21.1134 48.9 22.0834L48.91 22.0934Z" fill="#701E3A"/>
<path opacity="0.29" d="M108.6 33.8034C107.25 26.1934 104.72 19.4234 100.37 13.9634C101.53 17.4434 100.92 21.4834 99.0599 24.6934C96.8699 28.4634 93.1699 31.1834 89.1599 32.9034C87.5099 33.6134 84.0599 34.8434 82.6699 33.0034C85.0999 36.2134 86.6399 40.0534 87.2199 44.0334C89.3999 38.3034 93.8499 33.3834 99.5399 31.1434C102.9 29.8234 107.96 30.2434 108.59 33.8034H108.6Z" fill="#701E3A"/>
<path style="mix-blend-mode:screen" d="M79.4901 91.4634C78.9501 90.7934 78.2601 90.2334 77.7101 89.5534C77.0601 88.7634 76.4701 87.9134 75.9601 87.0334C75.5701 86.3534 75.2001 85.5934 75.2701 84.8134C75.3601 83.6934 76.3501 82.8034 77.4301 82.4934C78.1101 82.3034 78.8301 82.2934 79.5301 82.3834C80.2101 82.4634 80.9201 82.5134 81.5601 82.7634C82.5101 83.1434 83.5401 83.4834 84.4401 83.9434C85.4601 84.4634 86.4701 84.9934 87.4801 85.5234C88.5501 86.0834 89.8001 86.3334 90.9701 86.6234C91.3601 86.7234 91.7501 86.8234 92.1501 86.8634C92.4401 86.8934 92.7601 86.8334 93.0401 86.8734C92.5301 87.2934 92.1501 87.4634 91.7201 87.7534C91.1201 88.1634 90.4601 88.5034 89.8101 88.8434C88.5101 89.5234 87.1701 90.0934 85.7801 90.5734C83.9401 91.2134 82.1601 91.7334 80.2401 92.0434C80.1501 92.0634 80.0501 92.0734 79.9601 92.0434C79.8701 92.0034 79.8101 91.9234 79.7601 91.8434C79.6801 91.7234 79.5901 91.6034 79.4901 91.4834V91.4634Z" fill="url(#paint23_radial_27_17105)"/>
<path style="mix-blend-mode:screen" d="M69.4899 26.8434C62.3099 24.6234 54.0699 25.7234 48.0499 30.2234C41.4399 35.1834 37.7799 44.3834 40.4899 52.3134C43.0899 59.9034 46.2799 69.9934 53.9099 74.0834C57.6999 76.1134 62.3299 75.9634 66.4499 74.7334C76.8599 71.6234 82.0199 63.0634 85.8399 53.5634C90.1099 42.9534 81.6999 32.0834 72.1299 27.8334C71.2699 27.4534 70.3899 27.1234 69.4999 26.8434H69.4899Z" fill="url(#paint24_radial_27_17105)"/>
<path opacity="0.51" d="M74.9099 27.5734C74.9099 27.5734 74.9699 27.6134 74.9999 27.6234C76.0699 28.2834 77.1199 29.0534 77.7699 30.1334C78.4199 31.2134 78.5799 32.6634 77.8599 33.7034C76.9099 35.0634 74.8799 35.1634 73.3499 34.5234C70.2999 33.2534 67.8799 31.1134 64.6699 30.0034C61.4199 28.8734 58.0199 28.0234 54.5599 28.0334C47.4099 28.0534 40.7399 31.4534 35.6299 36.3034C38.3099 33.7534 40.0599 30.5734 43.1699 28.4434C46.2499 26.3334 49.7599 24.8834 53.4099 24.1034C60.6699 22.5534 68.5599 23.6634 74.9099 27.5734Z" fill="white"/>
<path style="mix-blend-mode:screen" d="M78.73 15.5634C81.45 16.0934 86.35 17.7434 88.07 14.5834C88.72 13.3834 88.66 11.8934 88.17 10.6234C87.67 9.35338 86.78 8.28338 85.81 7.32338C81.33 2.92338 74.29 0.023382 68.05 0.013382C62.32 0.013382 56.31 0.613382 50.99 2.88338C41.21 7.07338 32.66 16.7534 34.48 28.0534C34.66 29.1434 35.09 30.3934 36.14 30.7334C36.85 30.9634 37.62 30.7034 38.29 30.3634C40.01 29.5134 41.47 28.2134 42.93 26.9734C53.01 18.4434 65.3 12.9534 78.72 15.5534L78.73 15.5634Z" fill="url(#paint25_radial_27_17105)"/>
<path opacity="0.3" d="M38.25 33.8334C36.53 34.0434 34.75 33.7034 33.35 32.7634C32.76 32.3634 32.23 31.8534 31.81 31.2334C31.14 30.2534 30.76 29.1034 30.62 27.9234C30.01 33.2234 30.52 38.6434 31.45 43.9534C31.86 42.8834 32.26 41.7934 32.8 40.8034C32.88 40.6634 32.98 40.5234 33.07 40.3934C34.19 37.9534 36.05 35.7434 38.25 33.8334Z" fill="#261B5F"/>
<path opacity="0.35" d="M108.59 33.7934C107.79 29.3034 106.58 25.1134 104.83 21.3034C104.37 23.7734 103.03 26.0934 101.28 27.9234C99.0901 30.2234 96.3201 31.8834 93.5201 33.3834C90.5601 34.9734 87.9301 36.1234 84.5601 35.7634C84.9101 35.8034 85.5501 37.5734 85.7101 37.9334C86.0901 38.7834 86.4101 39.6434 86.6201 40.5534C86.9501 41.9934 87.0401 43.4834 86.8901 44.9534C88.9301 38.8334 93.5501 33.5034 99.5501 31.1434C102.91 29.8234 107.96 30.2434 108.6 33.7834L108.59 33.7934Z" fill="#701E3A"/>
<path opacity="0.35" d="M84.6299 71.0034C84.0299 72.2934 83.6099 73.6634 83.3599 75.0634C83.3299 75.2134 82.4299 75.5534 82.2799 75.6334C81.8099 75.8734 81.3399 76.1234 80.8799 76.3734C79.9299 76.8934 78.9999 77.4334 78.0399 77.9334C76.4799 78.7534 74.8899 79.4734 73.3899 80.4034C76.2399 78.6534 78.8899 76.7534 81.3399 74.4734C82.1699 73.7034 82.9999 72.9134 83.6899 72.0034C84.3899 71.0834 85.0099 70.0734 85.6599 69.1134C85.2799 69.7134 84.9299 70.3434 84.6299 70.9934V71.0034Z" fill="#701E3A"/>
<path opacity="0.35" d="M64.07 89.8834C63.78 89.7434 66.11 85.9434 66.35 85.6134C67.32 84.2934 68.44 83.0234 69.8 82.1034C69.14 82.5434 68.23 82.8034 67.49 83.0834C66.7 83.3834 65.94 83.6834 65.16 83.9934C63.55 84.6434 61.88 85.1434 60.21 85.6134C59.14 85.9134 57.56 86.5934 56.49 86.0434C57.84 86.7334 59.03 87.6034 60.36 88.2934C61.55 88.9234 62.85 89.3034 64.06 89.8734L64.07 89.8834Z" fill="#701E3A"/>
<path opacity="0.35" d="M48.9301 90.3634C48.4901 89.4334 48.6201 88.2834 49.9401 88.4434C51.0901 88.5834 52.5401 89.7234 53.5701 90.2634C52.5201 89.4434 51.5001 88.5434 50.4201 87.7634C49.5701 87.1534 48.5801 87.1934 47.5501 87.2434C46.7501 87.2834 45.9401 87.3234 45.1401 87.3634C44.4101 87.4034 45.1401 92.0034 45.2501 92.6934C45.1201 91.8334 45.1001 90.9234 45.4401 90.1234C45.7801 89.3234 46.5501 88.6634 47.4201 88.6634C48.2901 88.6634 49.1201 89.5134 48.9301 90.3634Z" fill="#701E3A"/>
<path style="mix-blend-mode:screen" d="M58.5901 94.5934C59.3401 95.4334 59.9401 96.4334 60.1401 97.5434C60.3401 98.6534 60.1001 99.8734 59.3501 100.713C58.6001 101.553 57.3101 101.923 56.2801 101.453C55.1401 100.923 54.6201 99.6034 54.3401 98.3834C54.0701 97.2334 53.9201 96.0334 54.1801 94.8834C54.3501 94.1534 55.0201 92.5134 55.9401 92.4634C56.7501 92.4234 58.0801 94.0434 58.5801 94.5934H58.5901Z" fill="url(#paint26_radial_27_17105)"/>
<path style="mix-blend-mode:screen" d="M47.37 94.9834C47.09 96.0634 47.11 97.2034 47.13 98.3234C47.13 98.7634 47.15 99.2134 47.3 99.6234C47.72 100.733 48.87 100.793 49.72 100.043C50.24 99.5734 50.52 98.8734 50.58 98.1834C50.69 96.9034 50.51 95.0734 50.05 93.8734C49.18 91.5934 47.75 93.5234 47.37 94.9934V94.9834Z" fill="url(#paint27_radial_27_17105)"/>
<path style="mix-blend-mode:screen" opacity="0.9" d="M86.9699 83.0034C85.2499 82.2034 83.8599 80.5934 83.5199 78.7034C83.5099 78.6434 83.4899 78.5634 83.4299 78.5434C83.3999 78.5334 83.3599 78.5434 83.3299 78.5434C80.5099 79.2734 77.8299 80.9034 75.8299 83.0234C74.7199 84.1934 73.8199 85.5734 73.2499 87.0934C72.7399 88.4434 72.1399 90.0234 73.1699 91.3334C73.9199 92.2834 75.2999 92.4134 76.5099 92.3534C79.1199 92.2134 81.5199 91.7334 84.0399 91.0834C85.6799 90.6634 87.3799 90.0234 89.0799 89.2134C90.7199 88.4334 91.8799 87.0234 92.7699 85.4434C92.9599 85.1034 93.1099 84.6234 92.8299 84.3634C92.6899 84.2334 92.4899 84.2034 92.3099 84.1834C90.4999 83.9534 88.6399 83.7734 86.9799 82.9934L86.9699 83.0034Z" fill="url(#paint28_radial_27_17105)"/>
<path style="mix-blend-mode:screen" d="M101.37 64.8734C100.48 61.1434 100.99 57.5734 102.34 54.3034C104.21 49.7734 107.69 45.7934 111.33 42.6534C108.59 42.7134 105.89 43.3434 103.38 44.4534C102.34 45.6734 101.44 47.0134 100.71 48.3034C98.6501 51.9334 97.5601 56.0634 97.0801 60.2034C96.7801 62.8334 96.7301 65.5634 97.6401 68.0434C99.1501 72.1734 103 74.9134 106.64 77.3834C106.77 77.4734 106.91 77.5634 107.04 77.6534C108.78 77.6234 110.5 77.3034 112.13 76.6734C106.86 74.8934 102.65 70.2734 101.37 64.8634V64.8734Z" fill="url(#paint29_radial_27_17105)"/>
<path style="mix-blend-mode:screen" opacity="0.9" d="M42.8099 10.2634C39.4499 13.3734 36.5799 17.0334 34.3599 20.8634C32.0499 24.8434 30.6299 28.2234 30.3599 34.4334C30.2499 32.0734 30.3599 29.3034 30.6699 26.8334C30.9499 24.5934 31.5299 22.3934 32.3799 20.2934C34.0699 16.1334 36.8099 12.4134 40.2199 9.49338C48.6599 2.25338 59.4199 -0.466616 70.3599 0.143384C64.3799 0.0833843 58.3499 1.12338 52.8699 3.53338C49.2099 5.14338 45.8099 7.48339 42.8099 10.2634Z" fill="url(#paint30_radial_27_17105)"/>
<path style="mix-blend-mode:screen" opacity="0.6" d="M51.7001 22.3734C54.5701 21.4734 57.6301 21.2034 60.8401 21.8034C57.2701 21.1334 52.6101 22.7634 49.4901 24.3634C45.7501 26.2834 42.5901 29.3434 39.7601 32.3934C36.6901 35.6934 32.7601 40.0634 31.1201 44.3134C33.1001 39.1634 35.6301 34.7134 39.4001 30.6734C42.8501 26.9734 47.0201 23.8334 51.7001 22.3734Z" fill="url(#paint31_radial_27_17105)"/>
<path opacity="0.53" d="M54.32 66.2234C58.36 62.5134 63.3199 59.8234 68.6299 58.4734C68.0199 63.0034 65.3099 68.2134 62.2999 71.5834C62.1899 71.7134 62.0599 71.8434 61.8899 71.8934C61.7 71.9534 61.4899 71.8934 61.2999 71.8334C58.1699 70.8834 54.59 71.0234 51.7 69.4134C52.23 68.1634 53.33 67.1434 54.32 66.2334V66.2234Z" fill="white"/>
<g opacity="0.31">
<path d="M65.9999 59.8334C64.0099 60.8134 62.0499 61.8434 60.1099 62.9334C59.0799 63.5134 58.0099 64.1534 57.3899 65.1634C60.0399 65.0334 62.6799 64.8134 65.3099 64.5034C63.5499 64.7534 61.7999 65.0834 60.0699 65.5034C58.7699 65.8234 57.3399 66.2834 56.6799 67.4534C59.3999 67.7634 62.0999 68.2034 64.7799 68.7534C62.5499 68.5634 60.3199 68.4534 58.0799 68.4134C57.7699 68.4134 57.4499 68.4134 57.1799 68.5434C56.8999 68.6834 56.6899 68.9934 56.7799 69.2934C56.8499 69.5234 57.0799 69.6734 57.2899 69.7934C58.7599 70.6434 60.2799 71.4134 61.8399 72.1034C58.4599 71.1034 55.0299 70.2534 51.5799 69.5534C51.5399 69.5534 52.9999 67.3734 53.1899 67.1734C53.9499 66.3534 54.8699 65.7034 55.7199 64.9834C59.3399 61.9034 63.4399 59.8134 68.1199 58.8334C67.4099 59.1634 66.7099 59.5034 65.9999 59.8534V59.8334Z" fill="#40AAE1"/>
</g>
<path d="M55.5799 65.4734C56.2999 64.8034 57.0199 64.1334 57.8799 63.6534C56.6399 64.5434 55.4799 65.5534 54.4399 66.6634C54.2099 66.9034 53.9699 67.2034 54.0099 67.5334C54.0599 68.0034 54.6099 68.2234 55.0599 68.3534C54.6599 68.4834 54.5399 69.0434 54.7299 69.4234C54.9199 69.8034 55.2999 70.0434 55.6599 70.2634C56.0599 70.5134 56.4699 70.7534 56.8699 71.0034C55.9699 70.4534 54.9399 70.5834 53.9499 70.3934C53.0399 70.2134 52.2999 69.6934 51.3799 69.4534C51.8299 68.6434 52.4099 68.3034 53.0599 67.7134C53.8899 66.9634 54.7499 66.2334 55.5799 65.4634V65.4734Z" fill="url(#paint32_linear_27_17105)"/>
<g opacity="0.33">
<path d="M55.5599 72.4434C56.3199 72.9534 57.0799 73.4634 57.8299 73.9734C58.1399 74.1834 58.9799 75.0534 59.3899 75.0034C59.8199 74.9534 61.7199 72.0134 61.7499 72.0234C61.4699 71.8834 61.1799 71.8234 60.8699 71.7534C57.7999 71.0534 54.7199 69.8234 51.5999 69.4434C52.7999 70.5934 54.1799 71.5234 55.5599 72.4434Z" fill="#011F38"/>
</g>
<path d="M5.32993 72.3034C5.41993 72.2034 5.52993 72.1434 5.65993 72.1434C5.41993 72.1434 5.29993 72.7834 5.35993 72.9334C5.48993 73.2334 5.82993 73.3834 6.14993 73.4734C6.79993 73.6634 7.47993 73.6534 8.13993 73.8034C8.78993 73.9434 9.40993 74.1934 10.0599 74.3534C9.07993 74.0734 7.88993 74.0034 6.87993 74.1534C6.47993 74.2134 6.17993 74.2434 5.81993 73.9834C5.52993 73.7734 5.33993 73.4534 5.22993 73.1234C5.16993 72.9234 5.13993 72.7034 5.20993 72.5134C5.23993 72.4334 5.27993 72.3634 5.32993 72.3034Z" fill="#2CE4F7"/>
<path d="M3.99 66.9534C3.74 66.9734 3.49 66.9834 3.23 66.9734C1.93 66.9434 0.74 67.3334 0 68.5134C1.22 67.1334 2.92 67.4234 4.58 67.2934C6.56 67.1434 8.61 66.8234 10.59 66.8534C9.41 66.8334 8.23 66.8034 7.06 66.7834C6.58 66.7834 6.09 66.7834 5.61 66.8134C5.06 66.8434 4.52 66.9134 3.98 66.9534H3.99Z" fill="#2CE4F7"/>
<path d="M111.42 76.9234C110.03 77.4034 108.7 77.8634 107.17 77.8934C105.45 77.9334 103.72 77.6034 102.08 77.0934C100.43 76.5834 98.92 75.7734 97.55 74.7234C96.89 74.2134 96.23 73.6834 95.61 73.1234C95 72.5634 94.46 71.5734 93.8 71.1334C96.23 72.7734 98.68 74.4234 101.38 75.5934C102.49 76.0734 103.73 76.5734 104.93 76.7734C105.53 76.8734 107.04 77.0534 108.88 76.8934C104.66 73.2734 101.4 67.7434 100.67 62.2234C101.32 65.5534 102.99 69.5734 105.3 72.1234C106.29 73.2234 107.37 74.1634 108.62 74.9734C109.72 75.6934 110.96 76.2334 112.11 76.6934C111.88 76.7734 111.65 76.8534 111.42 76.9334V76.9234Z" fill="url(#paint33_linear_27_17105)"/>
<path style="mix-blend-mode:screen" d="M92.8799 55.0334C95.1999 49.8034 100.35 45.9334 106.01 45.1334C103.89 48.6134 102.36 52.4534 101.5 56.4334C102.12 53.5734 103.66 51.0434 105.45 48.7734C106.38 47.6034 107.37 46.4834 108.38 45.3834C109.26 44.4134 110.38 43.7234 111.23 42.7334C107.05 42.7934 103.71 43.9234 100.23 46.3134C97.0599 48.4934 94.4499 51.5034 92.8799 55.0234V55.0334Z" fill="url(#paint34_radial_27_17105)"/>
<path d="M96.2199 33.4134C95.8399 33.6434 95.4599 33.8834 95.0899 34.1234C92.5399 35.7534 90.9599 37.5234 89.3199 40.0034C88.6299 41.0434 88.1299 42.1934 87.7499 43.3734C87.4199 44.3934 87.0399 45.7834 87.0499 46.8634C86.9799 42.3934 88.4799 38.3634 91.7199 35.2334C94.2199 32.8134 97.4599 31.1434 100.89 30.5234C103.63 30.0234 108.11 30.2334 108.99 33.6534C106.77 31.3434 102.73 30.8834 99.7899 31.7434C98.5199 32.1134 97.3399 32.7234 96.2099 33.4134H96.2199Z" fill="#15E0FF"/>
<path d="M46.6901 98.3234C46.8501 98.8134 47.0201 99.3134 47.3301 99.7334C47.6401 100.153 48.1101 100.473 48.6301 100.473C49.1501 100.473 49.6701 100.053 49.6701 99.5334C48.4901 99.5034 47.6401 98.4234 47.0601 97.3934C45.6401 94.8334 45.1601 92.1734 44.9001 89.3034C44.8501 93.2734 45.8001 95.6734 46.6901 98.3234Z" fill="#15E0FF"/>
<path d="M53.06 98.4834C53.6 99.3534 54.15 100.233 54.93 100.893C55.8 101.633 57.1 102.083 58.22 101.663C59.34 101.253 59.28 100.243 60 99.5134C58.32 101.213 55.0599 99.7534 53.57 98.4734C52.55 97.6034 51.6 96.4734 50.95 95.3134C51.85 95.9934 52.46 97.5134 53.06 98.4734V98.4834Z" fill="#15E0FF"/>
<path d="M14.6699 76.7434C15.7599 77.4934 16.8099 78.5334 17.9199 79.2834C30.3499 87.7034 44.6499 89.1734 58.9399 85.3934C47.7199 88.0834 38.7399 87.5134 28.0099 83.0434C23.2199 81.0534 18.9599 79.6834 14.6799 76.7434H14.6699Z" fill="url(#paint35_linear_27_17105)"/>
<path style="mix-blend-mode:screen" d="M2.03004 67.2434C1.27004 67.3634 0.360044 67.6634 0.250044 68.4234C0.180044 68.9334 0.560044 69.4134 1.03004 69.6334C1.50004 69.8534 2.03004 69.8534 2.54004 69.8534C4.94004 69.8134 7.33004 69.5334 9.67004 69.0034C10.12 68.9034 10.58 68.7834 10.94 68.4934C11.29 68.2034 11.5 67.6834 11.3 67.2634C10.85 66.3334 8.42004 66.8934 7.58004 66.8834C5.72004 66.8534 3.87004 66.9634 2.04004 67.2434H2.03004Z" fill="url(#paint36_radial_27_17105)"/>
<path d="M93.3999 54.4534C92.1999 56.2834 90.6799 57.8134 88.6099 57.7334C88.2599 57.7234 87.8999 57.6434 87.6399 57.4134C87.4399 57.2434 87.3099 56.9934 87.2099 56.7434C86.3699 54.7834 86.5499 52.5534 86.7499 50.4234C86.8899 48.8434 87.0399 47.2734 87.1799 45.6934C87.0099 48.4434 86.8399 51.2134 87.3299 53.9234C87.4799 54.7834 87.7199 55.6734 88.2599 56.3634C88.4199 56.5634 88.6099 56.7534 88.8499 56.8334C89.3099 56.9934 89.8099 56.7434 90.2199 56.4634C91.9299 55.3234 93.1299 54.1534 94.1599 52.3934C94.6099 51.6134 95.1499 50.8834 95.7499 50.2034C95.0999 51.3534 94.3499 52.9934 93.3999 54.4534Z" fill="#15E0FF"/>
<path d="M83.62 75.3634C83.62 75.4634 83.62 75.5634 83.62 75.6634C83.66 78.0934 83.62 80.3634 85.67 82.0834C87.39 83.5234 90.37 83.8934 92.52 84.1634C90.89 84.2334 89.25 84.0734 87.66 83.6934C84.77 83.0034 81.78 80.7734 81.75 77.5334C81.72 74.5234 84.06 70.7234 86.13 68.6634C84.37 70.4134 83.64 72.9234 83.61 75.3634H83.62Z" fill="#25CFE9"/>
<path d="M90.3699 88.5634C88.1599 90.0734 85.5899 91.0634 82.9399 91.4234C85.9399 90.4734 88.8299 89.1634 91.4999 87.4934C92.8199 86.6734 94.0799 85.7634 95.2699 84.7734C96.3599 83.8734 97.3099 82.7334 98.5199 82.0134C95.9899 86.1734 90.8799 89.0134 86.4199 90.6134L90.3699 88.5634Z" fill="#25CFE9"/>
<defs>
<radialGradient id="paint0_radial_27_17105" cx="0" cy="0" r="1" gradientUnits="userSpaceOnUse" gradientTransform="translate(61.5201 83.4034) scale(19.7)">
<stop offset="0.73" stop-color="#15E0FF"/>
<stop offset="0.91" stop-color="#1ED5F1"/>
<stop offset="1" stop-color="#25CFE9"/>
</radialGradient>
<radialGradient id="paint1_radial_27_17105" cx="0" cy="0" r="1" gradientUnits="userSpaceOnUse" gradientTransform="translate(56.2 83.9634) scale(19 19)">
<stop offset="0.73" stop-color="#15E0FF"/>
<stop offset="0.91" stop-color="#1ED5F1"/>
<stop offset="1" stop-color="#25CFE9"/>
</radialGradient>
<radialGradient id="paint2_radial_27_17105" cx="0" cy="0" r="1" gradientUnits="userSpaceOnUse" gradientTransform="translate(49.0899 -0.326617) scale(97.98 97.98)">
<stop offset="0.83" stop-color="#15E0FF"/>
<stop offset="0.9" stop-color="#1ED5F1"/>
<stop offset="0.93" stop-color="#25CFE9"/>
</radialGradient>
<radialGradient id="paint3_radial_27_17105" cx="0" cy="0" r="1" gradientUnits="userSpaceOnUse" gradientTransform="translate(72.61 49.4034) scale(47.77 47.77)">
<stop offset="0.83" stop-color="#15E0FF"/>
<stop offset="0.95" stop-color="#1ED5F1"/>
<stop offset="1" stop-color="#25CFE9"/>
</radialGradient>
<radialGradient id="paint4_radial_27_17105" cx="0" cy="0" r="1" gradientUnits="userSpaceOnUse" gradientTransform="translate(55.5601 98.2334) scale(12.39)">
<stop stop-color="#FAC800"/>
<stop offset="1" stop-color="#F89019"/>
</radialGradient>
<radialGradient id="paint5_radial_27_17105" cx="0" cy="0" r="1" gradientUnits="userSpaceOnUse" gradientTransform="translate(88.8599 91.8034) scale(19.65 19.65)">
<stop offset="0.22" stop-color="#FAC800"/>
<stop offset="1" stop-color="#F89019"/>
</radialGradient>
<radialGradient id="paint6_radial_27_17105" cx="0" cy="0" r="1" gradientUnits="userSpaceOnUse" gradientTransform="translate(48.61 96.8634) scale(8.74 8.74)">
<stop stop-color="#FAC800"/>
<stop offset="1" stop-color="#F89019"/>
</radialGradient>
<radialGradient id="paint7_radial_27_17105" cx="0" cy="0" r="1" gradientUnits="userSpaceOnUse" gradientTransform="translate(74.6299 -8.08662) scale(52.37 52.37)">
<stop stop-color="#FFEE30"/>
<stop offset="0.42" stop-color="#FAC800"/>
<stop offset="1" stop-color="#F89019"/>
</radialGradient>
<radialGradient id="paint8_radial_27_17105" cx="0" cy="0" r="1" gradientUnits="userSpaceOnUse" gradientTransform="translate(65.8999 38.0834) scale(56.02 56.02)">
<stop stop-color="#FAC800"/>
<stop offset="1" stop-color="#F89019"/>
</radialGradient>
<linearGradient id="paint9_linear_27_17105" x1="32.0299" y1="25.0434" x2="27.9599" y2="94.4034" gradientUnits="userSpaceOnUse">
<stop offset="0.25" stop-color="#2689BD"/>
<stop offset="0.68" stop-color="#0D5F8F"/>
<stop offset="0.96" stop-color="#004A77"/>
</linearGradient>
<linearGradient id="paint10_linear_27_17105" x1="61.88" y1="-0.0866188" x2="56.11" y2="98.2834" gradientUnits="userSpaceOnUse">
<stop offset="0.25" stop-color="#2689BD"/>
<stop offset="0.7" stop-color="#0D5F8F"/>
<stop offset="0.98" stop-color="#004A77"/>
</linearGradient>
<linearGradient id="paint11_linear_27_17105" x1="85.8901" y1="5.39338" x2="80.1301" y2="103.543" gradientUnits="userSpaceOnUse">
<stop offset="0.25" stop-color="#2689BD"/>
<stop offset="0.68" stop-color="#0D5F8F"/>
<stop offset="0.96" stop-color="#004A77"/>
</linearGradient>
<linearGradient id="paint12_linear_27_17105" x1="93.5701" y1="43.9434" x2="91.4301" y2="80.3934" gradientUnits="userSpaceOnUse">
<stop offset="0.25" stop-color="#2689BD"/>
<stop offset="0.68" stop-color="#0D5F8F"/>
<stop offset="0.96" stop-color="#004A77"/>
</linearGradient>
<linearGradient id="paint13_linear_27_17105" x1="35.5801" y1="64.7936" x2="33.5301" y2="56.9928" gradientUnits="userSpaceOnUse">
<stop stop-color="white"/>
<stop offset="0.02" stop-color="#F8FAFC"/>
<stop offset="0.3" stop-color="#A4B8D3"/>
<stop offset="0.55" stop-color="#6183B3"/>
<stop offset="0.75" stop-color="#305E9B"/>
<stop offset="0.91" stop-color="#13468D"/>
<stop offset="1" stop-color="#083E88"/>
</linearGradient>
<radialGradient id="paint14_radial_27_17105" cx="0" cy="0" r="1" gradientUnits="userSpaceOnUse" gradientTransform="translate(32.8522 47.0309) rotate(-166.04) scale(14.6916 13.86)">
<stop stop-color="#80FFFF"/>
<stop offset="0.05" stop-color="#77F3FB"/>
<stop offset="0.15" stop-color="#61D6F0"/>
<stop offset="0.27" stop-color="#40AAE1"/>
<stop offset="1" stop-color="#083E88"/>
</radialGradient>
<radialGradient id="paint15_radial_27_17105" cx="0" cy="0" r="1" gradientUnits="userSpaceOnUse" gradientTransform="translate(28.7943 51.535) rotate(-166.04) scale(9.752 9.2)">
<stop stop-color="white"/>
<stop offset="0.09" stop-color="#FBFBFC"/>
<stop offset="0.87" stop-color="#E1E1E9"/>
<stop offset="0.9" stop-color="#DDDEE5"/>
<stop offset="1" stop-color="#D2D8DC"/>
</radialGradient>
<radialGradient id="paint16_radial_27_17105" cx="0" cy="0" r="1" gradientUnits="userSpaceOnUse" gradientTransform="translate(22.728 50.2973) rotate(-146.93) scale(3.27)">
<stop stop-color="#F6F6F7"/>
<stop offset="0.27" stop-color="#009443"/>
<stop offset="0.57" stop-color="#8BC83C"/>
<stop offset="0.63" stop-color="#86C73C"/>
<stop offset="0.69" stop-color="#79C43E"/>
<stop offset="0.76" stop-color="#64BF41"/>
<stop offset="0.83" stop-color="#46B945"/>
<stop offset="0.86" stop-color="#34B548"/>
<stop offset="1" stop-color="#006735"/>
</radialGradient>
<linearGradient id="paint17_linear_27_17105" x1="36.3064" y1="44.9116" x2="31.7255" y2="58.643" gradientUnits="userSpaceOnUse">
<stop stop-color="#80FFFF"/>
<stop offset="0.4" stop-color="#5ED9F1"/>
<stop offset="0.78" stop-color="#43BCE6"/>
<stop offset="1" stop-color="#39B1E2"/>
</linearGradient>
<radialGradient id="paint18_radial_27_17105" cx="0" cy="0" r="1" gradientUnits="userSpaceOnUse" gradientTransform="translate(6.81991 64.8034) scale(14.95 14.95)">
<stop offset="0.13" stop-color="#25CFE9"/>
<stop offset="0.24" stop-color="#1EABC1"/>
<stop offset="0.45" stop-color="#136F7D"/>
<stop offset="0.63" stop-color="#0B3F47"/>
<stop offset="0.79" stop-color="#051C20"/>
<stop offset="0.92" stop-color="#010708"/>
<stop offset="1"/>
</radialGradient>
<radialGradient id="paint19_radial_27_17105" cx="0" cy="0" r="1" gradientUnits="userSpaceOnUse" gradientTransform="translate(6.72991 70.5234) scale(9.35 9.35001)">
<stop offset="0.13" stop-color="#25CFE9"/>
<stop offset="0.24" stop-color="#1EABC1"/>
<stop offset="0.45" stop-color="#136F7D"/>
<stop offset="0.63" stop-color="#0B3F47"/>
<stop offset="0.79" stop-color="#051C20"/>
<stop offset="0.92" stop-color="#010708"/>
<stop offset="1"/>
</radialGradient>
<radialGradient id="paint20_radial_27_17105" cx="0" cy="0" r="1" gradientUnits="userSpaceOnUse" gradientTransform="translate(40.5801 50.0334) scale(24.33)">
<stop offset="0.13" stop-color="#25CFE9"/>
<stop offset="0.24" stop-color="#1EABC1"/>
<stop offset="0.45" stop-color="#136F7D"/>
<stop offset="0.63" stop-color="#0B3F47"/>
<stop offset="0.79" stop-color="#051C20"/>
<stop offset="0.92" stop-color="#010708"/>
<stop offset="1"/>
</radialGradient>
<radialGradient id="paint21_radial_27_17105" cx="0" cy="0" r="1" gradientUnits="userSpaceOnUse" gradientTransform="translate(54.7599 24.5434) scale(26.68 26.68)">
<stop offset="0.13" stop-color="#25CFE9"/>
<stop offset="0.24" stop-color="#1EABC1"/>
<stop offset="0.45" stop-color="#136F7D"/>
<stop offset="0.63" stop-color="#0B3F47"/>
<stop offset="0.79" stop-color="#051C20"/>
<stop offset="0.92" stop-color="#010708"/>
<stop offset="1"/>
</radialGradient>
<radialGradient id="paint22_radial_27_17105" cx="0" cy="0" r="1" gradientUnits="userSpaceOnUse" gradientTransform="translate(78.1001 29.8034) scale(27.33 27.33)">
<stop offset="0.2" stop-color="#25CFE9"/>
<stop offset="0.3" stop-color="#1EABC1"/>
<stop offset="0.49" stop-color="#136F7D"/>
<stop offset="0.66" stop-color="#0B3F47"/>
<stop offset="0.81" stop-color="#051C20"/>
<stop offset="0.93" stop-color="#010708"/>
<stop offset="1"/>
</radialGradient>
<radialGradient id="paint23_radial_27_17105" cx="0" cy="0" r="1" gradientUnits="userSpaceOnUse" gradientTransform="translate(96.1701 93.6434) scale(21.07 21.07)">
<stop offset="0.13" stop-color="#25CFE9"/>
<stop offset="0.24" stop-color="#1EABC1"/>
<stop offset="0.45" stop-color="#136F7D"/>
<stop offset="0.63" stop-color="#0B3F47"/>
<stop offset="0.79" stop-color="#051C20"/>
<stop offset="0.92" stop-color="#010708"/>
<stop offset="1"/>
</radialGradient>
<radialGradient id="paint24_radial_27_17105" cx="0" cy="0" r="1" gradientUnits="userSpaceOnUse" gradientTransform="translate(64.6799 41.3734) scale(25.69 25.69)">
<stop offset="0.1" stop-color="#FAC800"/>
<stop offset="0.19" stop-color="#E9BA00"/>
<stop offset="0.37" stop-color="#BE9800"/>
<stop offset="0.62" stop-color="#796000"/>
<stop offset="0.92" stop-color="#1A1500"/>
<stop offset="1" stop-color="#000001"/>
</radialGradient>
<radialGradient id="paint25_radial_27_17105" cx="0" cy="0" r="1" gradientUnits="userSpaceOnUse" gradientTransform="translate(62.99 9.67338) scale(20.85)">
<stop offset="0.1" stop-color="#FAC800"/>
<stop offset="0.21" stop-color="#E4B600"/>
<stop offset="0.42" stop-color="#AD8A00"/>
<stop offset="0.72" stop-color="#564400"/>
<stop offset="1" stop-color="#000001"/>
</radialGradient>
<radialGradient id="paint26_radial_27_17105" cx="0" cy="0" r="1" gradientUnits="userSpaceOnUse" gradientTransform="translate(57.3201 95.3434) scale(4.37)">
<stop offset="0.1" stop-color="#FAC800"/>
<stop offset="1" stop-color="#000001"/>
</radialGradient>
<radialGradient id="paint27_radial_27_17105" cx="0" cy="0" r="1" gradientUnits="userSpaceOnUse" gradientTransform="translate(49.54 97.0934) scale(3.44)">
<stop offset="0.1" stop-color="#FAC800"/>
<stop offset="1" stop-color="#000001"/>
</radialGradient>
<radialGradient id="paint28_radial_27_17105" cx="0" cy="0" r="1" gradientUnits="userSpaceOnUse" gradientTransform="translate(89.7399 82.5234) scale(13.29 13.29)">
<stop offset="0.1" stop-color="#FAC800"/>
<stop offset="1" stop-color="#000001"/>
</radialGradient>
<radialGradient id="paint29_radial_27_17105" cx="0" cy="0" r="1" gradientUnits="userSpaceOnUse" gradientTransform="translate(109.64 55.8434) scale(19.6 19.6)">
<stop offset="0.1" stop-color="#FAC800"/>
<stop offset="1" stop-color="#000001"/>
</radialGradient>
<radialGradient id="paint30_radial_27_17105" cx="0" cy="0" r="1" gradientUnits="userSpaceOnUse" gradientTransform="translate(42.9899 7.81338) scale(21.11 21.11)">
<stop offset="0.02" stop-color="#FFEE30"/>
<stop offset="1" stop-color="#F89019"/>
</radialGradient>
<radialGradient id="paint31_radial_27_17105" cx="0" cy="0" r="1" gradientUnits="userSpaceOnUse" gradientTransform="translate(40.5201 26.6334) scale(14.89 14.89)">
<stop offset="0.02" stop-color="#FFEE30"/>
<stop offset="1" stop-color="#39B1E2"/>
</radialGradient>
<linearGradient id="paint32_linear_27_17105" x1="54.4499" y1="64.3834" x2="55.0999" y2="71.7734" gradientUnits="userSpaceOnUse">
<stop stop-color="#2689BD"/>
<stop offset="1" stop-color="#004A77"/>
</linearGradient>
<linearGradient id="paint33_linear_27_17105" x1="98.07" y1="77.3934" x2="107.17" y2="68.7034" gradientUnits="userSpaceOnUse">
<stop offset="0.19" stop-color="#25CFE9"/>
<stop offset="0.74" stop-color="#1BD9F6"/>
<stop offset="1" stop-color="#15E0FF"/>
</linearGradient>
<radialGradient id="paint34_radial_27_17105" cx="0" cy="0" r="1" gradientUnits="userSpaceOnUse" gradientTransform="translate(106.77 47.8034) scale(8.08 8.08)">
<stop offset="0.1" stop-color="#FFEE30"/>
<stop offset="1" stop-color="#000001"/>
</radialGradient>
<linearGradient id="paint35_linear_27_17105" x1="14.4599" y1="77.1434" x2="57.8199" y2="88.9434" gradientUnits="userSpaceOnUse">
<stop stop-color="#15E0FF"/>
<stop offset="0.49" stop-color="#1ED5F1"/>
<stop offset="0.72" stop-color="#25CFE9"/>
<stop offset="1" stop-color="#497B96"/>
</linearGradient>
<radialGradient id="paint36_radial_27_17105" cx="0" cy="0" r="1" gradientUnits="userSpaceOnUse" gradientTransform="translate(3.03004 68.0034) scale(6 6)">
<stop offset="0.13" stop-color="#15E0FF"/>
<stop offset="0.29" stop-color="#0FAAC1"/>
<stop offset="0.48" stop-color="#0A6E7D"/>
<stop offset="0.66" stop-color="#053E47"/>
<stop offset="0.81" stop-color="#021C20"/>
<stop offset="0.93" stop-color="#000708"/>
<stop offset="1"/>
</radialGradient>
</defs>
</svg>
