<svg width="124" height="108" viewBox="0 0 124 108" fill="none" xmlns="http://www.w3.org/2000/svg">
<g clip-path="url(#clip0_27_16962)">
<path opacity="0.95" d="M0.120003 68.23C0.140003 68.04 0.170005 67.84 0.200005 67.65C0.260005 67.23 0.330006 66.82 0.420006 66.41C0.450006 66.26 0.48001 66.11 0.51001 65.96C0.63001 65.43 0.780005 64.91 0.950005 64.4C1.01 64.23 1.07 64.06 1.13 63.89C1.27 63.49 1.43 63.09 1.59 62.7C1.65 62.55 1.71001 62.41 1.78001 62.26C2.01001 61.76 2.26001 61.27 2.53001 60.79C2.60001 60.66 2.69001 60.53 2.76001 60.4C2.99001 60.02 3.22 59.65 3.48 59.28C3.57 59.15 3.65001 59.02 3.75001 58.9C4.08001 58.45 4.42001 58.02 4.79001 57.6C4.87001 57.51 4.95001 57.43 5.03001 57.35C5.09001 57.28 5.15001 57.22 5.22001 57.15C5.72001 56.53 6.26 55.95 6.84 55.53C6.97 55.44 7.17001 55.33 7.40001 55.21C7.49001 55.14 7.58001 55.07 7.67001 55.01C7.73001 54.97 7.79 54.94 7.84 54.9C8.26 54.61 8.69 54.35 9.13 54.11C9.26 54.04 9.39001 53.97 9.53001 53.9C9.84001 53.74 10.15 53.6 10.47 53.46C10.67 53.28 10.83 53.11 10.88 52.94C10.85 53.06 10.83 53.19 10.82 53.31C10.92 53.27 11.01 53.22 11.11 53.19C10.99 54.25 11.05 55.32 11.24 56.37C11.47 57.09 11.76 57.76 12.02 58.26C12.62 59.43 13.21 60.61 13.81 61.78C13.84 61.84 13.89 61.89 13.93 61.95C14.41 62.5 14.92 63.02 15.51 63.47C16.39 64.14 20.8 65.41 21.43 64.03C20.29 66.77 21.34 69.97 23.07 72.39C25.85 76.29 30.18 78.79 34.6 80.64C46.88 85.76 60.72 89.38 73.99 86.83C75.79 86.48 77.56 86.05 79.34 85.61C83.61 84.56 88.35 82.54 92.77 83.42C96.55 84.17 99.88 87.05 103.88 86.74C99.48 87.08 95.05 88.85 91.27 91.02C90.69 91.36 90.08 91.7 89.45 92.04C87.85 92.9 86.07 93.69 84.21 94.37C84.01 94.45 83.81 94.54 83.61 94.59C80.29 95.75 76.74 96.56 73.53 96.81C58.09 97.97 39.19 93.52 27.82 82.62C25.29 80.19 22.57 78.03 19.54 76.31L19.15 76.22C18.99 76.09 18.82 75.99 18.65 75.87C17.88 75.47 17.12 75.06 16.31 74.71C15.42 74.33 14.46 74.07 13.48 73.91C13.32 73.89 13.15 73.86 12.99 73.85C12.79 73.83 12.58 73.8 12.38 73.78C10.01 73.61 7.49001 74.52 5.35001 75.57C5.05001 75.72 4.76001 75.89 4.49001 76.08C3.60001 76.87 2.90001 77.84 2.49001 79.04C2.47001 79.01 2.46 78.98 2.44 78.95C2.42 79.08 2.39 79.21 2.38 79.34C1.98 78.56 1.66 77.74 1.38 76.91C0.410005 74.68 -0.0299915 72.25 0.0400085 69.81C0.0500085 69.28 0.100004 68.74 0.160004 68.21L0.120003 68.23Z" fill="url(#paint0_radial_27_16962)"/>
<path opacity="0.95" d="M27.91 97.67C25.1 97.37 22.33 96.78 19.65 95.86C17.2 95.01 14.72 93.78 13.31 91.6C11.34 88.53 12.08 84.33 14.12 81.31C14.78 80.34 22.7 72.43 23.66 73.32C28.57 77.89 34.53 81.14 40.43 84.33C48.87 88.9 56.03 91.18 65.74 89.94C58.33 92.7 50.87 95.48 43.09 96.93C38.1 97.86 32.94 98.22 27.9 97.68L27.91 97.67Z" fill="url(#paint1_radial_27_16962)"/>
<path d="M98.2099 23.89C95.1799 23.39 92.5499 25.06 90.5699 27.2C89.2899 28.58 86.1499 32.18 86.7899 34.36C86.3499 32.86 86.2699 31.26 86.5699 29.73C87.1299 26.81 88.9599 24.32 90.7499 21.94C91.4699 20.98 92.1299 19.94 93.0099 19.11C94.3799 17.81 96.0399 16.67 96.7799 14.92C97.3599 13.54 97.2499 11.88 96.4799 10.59C94.2099 6.77001 90.8299 8.43001 89.0699 11.43C87.2799 14.48 86.2899 17.91 85.7799 21.39C85.2599 24.89 85.9999 28.16 83.4599 31.11C82.5799 32.14 82.5499 29.47 82.5499 29.37C82.5899 28.18 83.0499 26.98 83.2299 25.8C83.7299 22.41 84.3499 19.03 85.0699 15.68C85.7799 12.38 86.5999 8.94001 85.7199 5.69001C83.8999 -1.08999 71.4699 -2.80999 76.6099 6.02001C80.3699 12.47 81.5799 20.67 80.9299 28.04C80.8399 29.05 80.6999 30.1 80.1099 30.92C78.9899 32.49 77.8099 26.94 77.7399 26.68C77.0899 24.04 76.2699 21.43 75.6399 18.77C74.3999 13.51 73.2899 8.14001 70.7499 3.32001C70.0299 1.94001 68.8999 0.440009 67.3399 0.500009C65.8399 0.560009 64.7699 2.16001 64.7399 3.66001C64.7099 5.16001 65.4299 6.57001 66.1399 7.90001C68.3599 12.09 70.5699 16.29 72.7899 20.48C74.5799 23.87 76.4299 27.59 75.7599 31.37C75.6299 32.09 71.8799 26.86 71.6199 26.32C70.2699 23.5 69.2299 20.67 68.2099 17.71C67.5299 15.72 66.7799 13.76 65.9599 11.83C65.2499 10.15 64.4699 8.47001 63.2499 7.12001C62.0299 5.77001 60.2899 4.78001 58.4699 4.87001C58.0999 4.89001 57.7299 4.95001 57.4099 5.13001C56.9099 5.42001 56.5999 5.96001 56.4699 6.53001C55.7599 9.56001 58.8699 12.17 60.5399 14.22C63.0999 17.36 65.5099 20.61 67.7799 23.97C68.1499 24.52 68.5299 25.1 68.5799 25.75C68.6399 26.41 68.2599 27.15 67.6099 27.26C67.1599 27.34 66.7199 27.11 66.3499 26.85C63.5799 24.94 62.5399 21.42 60.6899 18.61C59.4499 16.73 57.8299 15.13 56.2299 13.56C55.2899 12.64 54.3099 11.69 53.0499 11.3C51.7999 10.91 50.1999 11.28 49.6299 12.46C49.1499 13.45 49.5199 14.64 50.0599 15.59C52.6599 20.16 58.4799 21.66 62.4199 25.14C63.0599 25.71 63.6899 26.65 63.1899 27.35C62.9899 27.63 62.6399 27.77 62.3099 27.87C59.9399 28.54 57.3999 27.35 55.5799 25.69C53.7599 24.03 52.4099 21.91 50.6699 20.16C48.9299 18.41 46.5799 16.98 44.1399 17.29C41.6899 17.59 39.5599 20.31 40.5799 22.56C41.5799 24.74 44.4599 25.03 46.7899 25.61C49.9299 26.4 52.7799 28.29 54.7199 30.88C55.0099 31.27 55.2999 31.72 55.2799 32.21C55.2699 32.57 55.0899 32.9 54.8499 33.17C53.6499 34.54 51.3199 34.11 49.9399 32.92C48.5599 31.74 47.7499 30.03 46.5599 28.64C44.7299 26.51 41.9699 25.21 39.1699 25.16C38.2099 25.14 37.0799 25.38 36.7099 26.26C36.3399 27.13 36.9399 28.12 37.6699 28.74C39.2399 30.07 41.3499 30.49 43.2399 31.3C45.1299 32.11 47.0199 33.66 47.0199 35.72C46.0099 35.76 45.2299 34.89 44.5399 34.14C42.7999 32.25 40.6799 30.72 38.3399 29.67C30.2899 26.07 27.9899 36.81 25.8199 42.07C22.0999 51.11 20.4099 60.99 20.9999 70.75C25.8099 60.53 34.3299 52.26 44.2899 46.92C51.2899 43.17 58.9699 41.26 66.7899 40.16C70.6399 39.62 74.4999 39.25 78.3699 38.83C80.3399 38.62 82.3199 38.83 84.1299 37.87C85.3299 37.23 87.4199 36.21 87.7599 34.77C87.8199 34.51 87.8299 34.24 87.8899 33.99C88.8999 29.46 97.4799 32.58 100.21 29.49C100.63 29.02 100.97 28.46 101.12 27.85C101.37 26.81 101.02 25.67 100.28 24.9C99.7199 24.31 99.0099 23.98 98.2399 23.85L98.2099 23.89Z" fill="url(#paint2_radial_27_16962)"/>
<path d="M27.91 97.67C25.1 97.37 22.33 96.78 19.65 95.86C17.2 95.01 14.72 93.78 13.31 91.6C11.34 88.53 12.08 84.33 14.12 81.31C14.78 80.34 22.7 72.43 23.66 73.32C28.57 77.89 34.53 81.14 40.43 84.33C48.87 88.9 56.03 91.18 65.74 89.94C58.33 92.7 50.87 95.48 43.09 96.93C38.1 97.86 32.94 98.22 27.9 97.68L27.91 97.67Z" fill="url(#paint3_radial_27_16962)"/>
<path opacity="0.67" d="M84.7 32.33C84.59 32.61 84.48 32.92 84.6 33.19C84.89 33.88 86.31 34.46 86.92 34.86C86.84 34.19 86.84 33.47 86.89 32.75C86.72 33.33 86.66 33.89 86.8 34.37C86.36 32.87 86.28 31.27 86.58 29.74C87.14 26.82 88.97 24.33 90.76 21.95C91.48 20.99 92.14 19.95 93.02 19.12C94.39 17.82 96.05 16.68 96.79 14.93C96.93 14.59 97.03 14.23 97.09 13.86C97.19 13.2 97.14 12.54 96.99 11.91C96.97 11.82 96.95 11.71 96.93 11.61C96.92 11.57 96.9 11.54 96.88 11.5C97.71 18.38 89.82 17.6 86.96 21.86C85.88 23.47 85.99 25.56 85.83 27.49C85.69 29.14 85.32 30.78 84.72 32.33H84.7ZM87.07 33.37C87.09 32.96 87.73 31.86 87.92 31.47C88.52 30.15 89.73 29.01 91.18 28.92C91.87 28.88 92.55 29.07 93.23 29.21C95.6 29.69 99.86 30.25 100.65 27.12C100.7 28.39 99.98 29.65 98.87 30.26C98.37 30.54 97.81 30.68 97.25 30.82C96.84 30.92 96.46 30.99 96.09 31.05C95.46 31.11 94.81 31.15 94.16 31.19C93.87 31.19 93.57 31.19 93.25 31.17C92.84 31.15 92.42 31.14 92.01 31.15C91.29 31.18 90.58 31.29 89.95 31.63C89.73 31.75 89.54 31.92 89.35 32.08C88.62 32.49 88.08 33.08 87.87 34.02C87.85 34.11 87.84 34.21 87.82 34.31C87.75 34.46 87.68 34.6 87.61 34.75C87.38 35.25 87.07 33.42 87.08 33.36L87.07 33.37ZM23.15 57.02C26.64 55.38 28.57 51 27.43 47.32C29.06 46.91 30.12 44.99 29.61 43.39C30.38 43.88 31.43 43.69 32.16 43.16C32.89 42.62 33.36 41.8 33.73 40.98C34.43 39.42 35.3 37.51 34.54 35.85C35.56 35.86 36.6 35.87 37.57 35.54C37.92 35.42 38.29 35.2 38.36 34.84C38.48 34.15 37.47 33.8 37.28 33.13C37.96 33.63 38.89 33.71 39.71 33.49C40.53 33.28 41.25 32.8 41.9 32.26C41.98 32.19 42.07 32.12 42.16 32.06C42.53 32.35 42.9 32.64 43.25 32.96C43.34 33.68 43.27 34.57 43.19 34.91C42.91 36.27 41.79 37.74 41.07 38.91C39.41 41.58 37.5 44.09 36.05 46.88C34.55 49.78 33.55 52.96 31.64 55.6C30.14 57.67 28.14 59.32 26.17 60.95C24.93 61.97 23.58 63.03 21.98 63.11C23.18 61.36 23.61 59.1 23.14 57.03L23.15 57.02ZM83.21 25.81C83.04 26.99 82.57 28.18 82.53 29.38C82.53 29.44 82.54 30.43 82.74 30.98C82.68 31.18 82.61 31.37 82.56 31.57C82.24 32.86 81.74 34.34 80.48 34.75C80.34 33.48 80.21 32.21 80.09 30.95C80.68 30.12 80.83 29.07 80.91 28.06C81.42 22.2 80.74 15.83 78.56 10.22C78.5 9.38001 78.35 8.53001 77.79 7.92001C79.87 10.18 80.88 13.72 81.24 16.71C81.52 19.02 81.5 21.36 81.63 23.68C81.64 23.96 81.69 24.28 81.93 24.41C82.35 24.64 82.75 24.09 82.91 23.64C83.31 22.53 83.71 21.43 84.11 20.32C83.77 22.14 83.46 23.97 83.19 25.8L83.21 25.81ZM44.07 23.48C45.21 23.97 46.37 24.41 47.54 24.81C48.74 25.22 50.75 25.98 51.89 25.15C52.56 24.66 53.07 22.82 52.34 22.17C52.4 22.22 52.46 22.26 52.52 22.3C53.49 23.48 54.44 24.68 55.57 25.71C55.97 26.07 56.4 26.41 56.86 26.71C57.43 27.56 57.97 28.29 58.18 28.21C56.91 28.67 55.71 29.35 54.66 30.2C54.87 30.03 51.21 27.25 50.89 27.05C49.25 25.99 47.4 25.24 45.48 24.85C44.2 24.59 42.82 24.48 41.76 23.71C39.55 22.11 40.54 19.69 42.49 18.5C41.6 19.19 41.04 20.33 41.51 21.44C41.95 22.47 43.05 23.03 44.08 23.47L44.07 23.48ZM41.34 29.15C42.38 29.51 43.51 29.51 44.62 29.51C45.33 29.51 46.05 29.51 46.71 29.27C46.78 29.24 46.85 29.19 46.91 29.15C47.39 29.77 47.84 30.43 48.3 31.07C47.74 31.2 47.17 31.33 46.61 31.46C46 31.6 45.25 31.92 45.23 32.54C45.18 32.5 45.13 32.47 45.08 32.43C44.4 31.55 43.42 30.93 42.4 30.49C41.31 30.02 40.15 29.71 39.06 29.25C38.63 29.07 38.18 28.85 37.9 28.47C37.37 27.74 37.61 26.73 37.87 25.87C37.83 26.83 38.66 27.59 39.45 28.14C40.04 28.55 40.66 28.92 41.34 29.16V29.15ZM62.92 27.59C63.01 27.52 63.11 27.47 63.18 27.37C63.69 26.68 63.06 25.73 62.41 25.16C58.47 21.68 52.65 20.18 50.05 15.61C49.69 14.97 49.43 14.22 49.42 13.5C49.76 12.63 50.52 11.89 51.45 11.85C50.55 12.92 50.73 14.6 51.5 15.77C52.27 16.94 53.49 17.73 54.68 18.47C56.08 19.35 57.47 20.23 58.87 21.11C59.61 21.58 60.63 22.03 61.28 21.43C61.68 21.06 61.68 20.55 61.54 20.05C62.92 22.54 64.04 25.27 66.35 26.87C66.52 26.99 66.7 27.09 66.89 27.17C67.07 27.45 67.24 27.73 67.42 28.01C66.72 27.44 65.7 27.99 64.79 28.07C64.12 28.13 63.5 27.92 62.91 27.58L62.92 27.59ZM66.63 19.44C67.62 20.37 68.82 21.2 68.86 19.57C69.68 21.87 70.55 24.11 71.62 26.34C71.72 26.55 72.38 27.51 73.13 28.53C71.84 28.76 70.12 28.92 69.32 28.37C68.91 28.08 68.58 27.47 68.29 26.81C68.5 26.51 68.61 26.13 68.58 25.77C68.52 25.11 68.15 24.53 67.78 23.99C65.52 20.63 63.1 17.38 60.54 14.24C59.82 13.35 58.83 12.35 57.99 11.26C57.45 9.72001 57.17 8.08001 57.28 6.26001C57.11 8.88001 58.85 10.64 60.36 12.57C61.94 14.59 63.72 16.45 65.5 18.3C65.74 18.55 66.16 19.01 66.62 19.44H66.63ZM75.4 26.49C74.81 24.42 73.8 22.4 72.79 20.49C71.17 17.43 69.56 14.37 67.94 11.32C67.48 10.08 67.03 8.83001 66.58 7.59001C67.58 9.49001 68.58 11.39 69.58 13.29C70.63 15.28 71.7 17.24 72.94 19.11C73.16 19.44 73.85 21.01 74.26 21.02C75.05 21.04 75.03 18.96 75 18.53C74.92 17.4 74.74 16.28 74.45 15.18C75.48 19.08 76.78 22.78 77.75 26.68C77.79 26.83 78.2 28.73 78.75 30.02C77.44 29.06 76.36 27.81 75.4 26.48V26.49Z" fill="#C86345"/>
<path opacity="0.21" d="M84.98 35.84C76.95 33.81 68.86 31.26 60.58 31.63C58.78 31.71 57 31.96 55.24 32.3C55.24 32.28 55.26 32.26 55.26 32.23C55.28 31.74 54.99 31.29 54.7 30.9C53.43 29.2 51.74 27.84 49.86 26.86C50.56 26.7 51.26 26.46 51.9 26.2C52.88 25.8 53.85 25.37 54.81 24.94C55.06 25.2 55.3 25.47 55.56 25.71C57.38 27.37 59.92 28.56 62.29 27.89C62.62 27.8 62.97 27.65 63.17 27.37C63.68 26.68 63.05 25.73 62.4 25.16C61.77 24.6 61.08 24.11 60.38 23.63C60.93 23.54 61.47 23.41 61.93 23.11C62.26 22.9 62.53 22.59 62.71 22.25C63.67 24.03 64.7 25.74 66.34 26.87C66.71 27.13 67.15 27.36 67.6 27.28C68.25 27.17 68.63 26.42 68.57 25.77C68.51 25.11 68.14 24.53 67.77 23.99C67.67 23.84 67.56 23.7 67.46 23.55C67.93 23.7 68.44 23.73 68.92 23.59C69.38 23.46 69.78 23.17 70.09 22.81C70.56 23.99 71.06 25.17 71.63 26.34C71.89 26.88 75.64 32.12 75.77 31.39C76.2 28.98 75.6 26.59 74.64 24.3C75.12 24 75.54 23.59 75.84 23.12C76.1 22.72 76.28 22.29 76.45 21.85C76.89 23.46 77.35 25.07 77.74 26.69C77.8 26.95 78.99 32.5 80.11 30.93C80.7 30.11 80.84 29.06 80.93 28.05C80.95 27.87 80.95 27.69 80.96 27.5C81.08 27.73 81.21 27.95 81.36 28.16C81.67 28.58 82.09 28.92 82.57 29.12C82.57 29.2 82.55 29.29 82.54 29.37C82.54 29.47 82.56 32.13 83.45 31.11C83.95 30.53 84.29 29.93 84.58 29.33C84.68 29.94 84.89 30.52 85.4 30.84C85.7 31.03 86.06 31.09 86.42 31.05C86.36 32.17 86.48 33.29 86.8 34.37C86.39 32.98 87.53 31.01 88.74 29.41C88.74 30.18 88.77 31.06 89.37 31.62C89.51 31.75 89.68 31.81 89.85 31.86C88.86 32.25 88.13 32.91 87.88 34.04C87.82 34.3 87.82 34.57 87.75 34.82C87.63 35.34 87.28 35.8 86.82 36.21C86.2 36.14 85.58 36 85 35.85L84.98 35.84Z" fill="#2A1F60"/>
<path opacity="0.21" d="M49.93 32.95C50.13 33.13 50.36 33.28 50.6 33.42C49.33 33.8 48.07 34.24 46.82 34.72C46.32 33.18 44.78 32.01 43.23 31.35C42.7 31.13 42.16 30.93 41.62 30.74C43.44 30.62 45.21 29.94 46.65 28.82C47.78 30.18 48.59 31.82 49.93 32.97V32.95Z" fill="#2A1F60"/>
<path opacity="0.21" d="M36.7 36.5C36.99 35.97 37.71 35.93 38.26 35.68C38.81 35.43 39.1 34.47 38.51 34.34C39.57 33.81 40.6299 33.29 41.6899 32.76C41.9599 32.63 42.23 32.46 42.36 32.2C43.12 32.81 43.85 33.46 44.51 34.17C44.84 34.53 45.19 34.91 45.58 35.21C41.78 36.75 38.09 38.64 34.53 40.64C35.26 39.26 35.9799 37.88 36.6899 36.5H36.7Z" fill="#2A1F60"/>
<path opacity="0.21" d="M21.06 65.18C21.13 64.32 23.07 62.46 23.59 61.7C24.47 60.42 25.31 59.11 26.11 57.77C27.47 55.5 28.34 52.96 29.9 50.86C28.19 51.4 27.38 53.79 25.63 54.51C24.98 54.78 24.18 54.76 23.63 54.31C25.54 55.86 21.66 60.84 21.3 58.74C20.79 60.79 21.25 63.06 21.05 65.17L21.06 65.18Z" fill="#2A1F60"/>
<path d="M91.24 91.04C94.37 89.25 96.96 87.68 101.11 87.53C105.26 87.38 109.46 88.02 113.53 87.23C115.68 86.81 118.24 84.9 117.21 82.97C119.41 83.06 121.62 82.94 123.8 82.6C123.81 81.19 123.83 79.78 123.84 78.36C123.84 77.86 123.84 77.32 123.55 76.91C123.08 76.25 122.12 76.24 121.32 76.27C116.69 76.47 112.04 76.09 107.51 75.13C105.87 74.78 104.19 74.34 102.89 73.28C100.53 71.37 100.01 68.04 99.57 65.04C97.2 49.08 91.36 31.56 74.36 26.34C61.15 22.28 45.75 27.28 36.81 37.65C30.74 44.69 27.54 53.72 22.41 61.46C21.39 63 20.01 64.64 18.17 64.61C17.18 64.6 16.27 64.08 15.49 63.48C12.4 61.11 10.67 57.07 11.11 53.19C1.33997 56.81 -3.16003 70.27 2.45997 79.04C4.20997 73.9 11.29 72.58 16.29 74.7C20.66 76.56 24.4 79.35 27.8 82.61C39.17 93.51 58.07 97.96 73.51 96.8C78.73 96.41 84.82 94.52 89.43 92.04C90.07 91.7 90.67 91.35 91.25 91.02L91.24 91.04Z" fill="url(#paint4_radial_27_16962)"/>
<g style="mix-blend-mode:screen" opacity="0.47">
<path d="M54.7299 33.99C55.0099 34.98 55.8298 35.61 56.5498 35.42C57.2798 35.23 57.6599 34.26 57.3999 33.27C57.1399 32.28 56.3299 31.63 55.5799 31.83C54.8299 32.03 54.4499 33 54.7199 33.99H54.7299Z" fill="#FFF38B"/>
<path d="M71.4799 34.42C71.4499 35.44 72.0399 36.3 72.7999 36.34C73.5499 36.39 74.2499 35.62 74.3499 34.6C74.4499 33.57 73.8599 32.68 73.0299 32.63C72.1999 32.58 71.5099 33.39 71.4799 34.42Z" fill="#FFF38B"/>
<path d="M57.4099 26.51C57.6599 27.51 58.4699 28.16 59.2099 27.98C59.9399 27.8 60.3499 26.85 60.1099 25.85C59.8699 24.85 59.0799 24.18 58.3299 24.36C57.5799 24.54 57.1499 25.51 57.4099 26.51Z" fill="#FFF38B"/>
<path d="M45.1199 30.61C45.4899 31.57 46.4299 32.09 47.2199 31.83C48.0099 31.55 48.3899 30.54 48.0699 29.56C47.7499 28.58 46.8099 28.03 45.9699 28.32C45.1399 28.6 44.7399 29.65 45.1099 30.61H45.1199Z" fill="#FFF38B"/>
<path d="M49.2699 36.23C49.6099 37.2 50.4799 37.77 51.2099 37.54C51.9399 37.31 52.2799 36.33 51.9799 35.34C51.6799 34.36 50.8099 33.76 50.0499 34C49.2799 34.25 48.9299 35.27 49.2699 36.23Z" fill="#FFF38B"/>
<path d="M48.76 42.41C49.14 43.37 49.98 43.93 50.65 43.68C51.32 43.44 51.6 42.47 51.27 41.49C50.94 40.52 50.09 39.93 49.37 40.18C48.66 40.45 48.39 41.45 48.76 42.41Z" fill="#FFF38B"/>
<path d="M40.0099 37.04C40.4799 37.95 41.4699 38.4 42.2199 38.03C42.9699 37.65 43.2499 36.64 42.8299 35.7C42.4199 34.77 41.4199 34.27 40.6199 34.67C39.8099 35.06 39.5399 36.13 40.0099 37.04Z" fill="#FFF38B"/>
<path d="M42.4399 42.82C42.9199 43.72 43.8399 44.19 44.5099 43.87C45.1699 43.54 45.3799 42.52 44.9599 41.59C44.5399 40.64 43.6099 40.17 42.8799 40.52C42.1599 40.87 41.9599 41.9 42.4399 42.82Z" fill="#FFF38B"/>
<path d="M42.9399 49.74C43.4799 50.62 44.3399 51.03 44.9099 50.73C45.4699 50.42 45.5399 49.43 45.0699 48.52C44.5999 47.61 43.6999 47.15 43.0699 47.49C42.4399 47.83 42.3999 48.87 42.9399 49.73V49.74Z" fill="#FFF38B"/>
<path d="M48.9599 48.87C49.3799 49.81 50.1899 50.37 50.7599 50.11C51.3599 49.88 51.5399 48.91 51.1699 47.95C50.7999 46.99 49.9799 46.41 49.3399 46.66C48.7099 46.94 48.5399 47.92 48.9599 48.86V48.87Z" fill="#FFF38B"/>
<path d="M35.9699 49.05C36.6099 49.85 37.5899 50.15 38.1599 49.71C38.7199 49.27 38.7499 48.28 38.1599 47.43C37.5799 46.59 36.5599 46.24 35.9399 46.73C35.3199 47.21 35.3299 48.25 35.9699 49.05Z" fill="#FFF38B"/>
<path d="M59.8499 46.41C60.1199 47.4 60.8599 48.06 61.5299 47.89C62.1999 47.72 62.5499 46.77 62.2999 45.78C62.0499 44.78 61.2899 44.11 60.5999 44.28C59.9099 44.46 59.5799 45.41 59.8499 46.41Z" fill="#FFF38B"/>
<path d="M66.4599 39.04C66.5899 40.06 67.1999 40.82 67.8699 40.79C68.5299 40.74 69.0699 39.91 69.0499 38.87C69.0299 37.85 68.3999 37.02 67.6399 37.07C66.8699 37.11 66.3499 38.02 66.4699 39.04H66.4599Z" fill="#FFF38B"/>
<path d="M66.91 27.45C66.99 28.47 67.81 29.25 68.7 29.23C69.6 29.21 70.32 28.38 70.34 27.35C70.34 26.32 69.59 25.48 68.6 25.51C67.62 25.54 66.83 26.42 66.91 27.45Z" fill="#FFF38B"/>
<path d="M61.7799 32.43C61.8999 32.93 62.1499 33.35 62.4699 33.62C62.6299 33.76 62.7999 33.85 62.9799 33.91C63.0699 33.94 63.1499 33.95 63.2599 33.96C63.3799 33.96 63.4999 33.95 63.6199 33.92C64.5999 33.71 65.1699 32.82 65.0599 31.79C64.9099 30.79 64.0499 30.02 62.8399 30.28C62.6999 30.31 62.5599 30.35 62.4299 30.4C62.3299 30.45 62.2699 30.5 62.1999 30.57C62.0599 30.7 61.9499 30.87 61.8699 31.06C61.7099 31.44 61.6699 31.93 61.7899 32.43H61.7799Z" fill="#FFF38B"/>
<path d="M60.7299 38.58C60.9799 39.58 61.7499 40.24 62.4499 40.07C63.1499 39.9 63.5299 38.96 63.2999 37.96C63.0599 36.96 62.2899 36.28 61.5799 36.46C60.8699 36.63 60.4799 37.59 60.7299 38.59V38.58Z" fill="#FFF38B"/>
<path d="M55.22 42.01C55.51 42.99 56.3 43.63 56.98 43.44C57.66 43.24 58 42.29 57.73 41.3C57.46 40.31 56.67 39.65 55.96 39.86C55.25 40.06 54.92 41.03 55.21 42.01H55.22Z" fill="#FFF38B"/>
<path d="M46.6099 37.43C46.9899 38.38 47.8899 38.93 48.6099 38.65C49.3399 38.39 49.6499 37.4 49.3199 36.43C48.9799 35.46 48.0899 34.88 47.3199 35.16C46.5499 35.46 46.2299 36.48 46.6099 37.43Z" fill="#FFF38B"/>
<path d="M62.5399 35.96C62.7899 36.96 63.5299 37.63 64.2799 37.47C65.0499 37.3 65.5599 36.41 65.4399 35.38C65.2999 34.37 64.4999 33.61 63.4899 33.83C63.2199 33.88 63.0699 33.97 62.9399 34.1C62.8099 34.23 62.6999 34.39 62.6199 34.59C62.4599 34.97 62.4199 35.46 62.5399 35.96Z" fill="#FFF38B"/>
<path d="M48.9099 29.65C49.2299 30.63 50.1199 31.22 50.8999 30.97C51.6899 30.71 52.0599 29.76 51.7799 28.76C51.4899 27.78 50.6299 27.14 49.7999 27.41C48.9799 27.67 48.5799 28.67 48.8999 29.65H48.9099Z" fill="#FFF38B"/>
<path d="M36.25 35.51C36.76 36.4 37.81 36.77 38.59 36.35C39.37 35.91 39.65 34.88 39.19 33.95C38.74 33.04 37.68 32.59 36.84 33.06C36 33.52 35.73 34.62 36.25 35.51Z" fill="#FFF38B"/>
<path d="M41.2699 40.4C41.7499 41.3 42.6999 41.77 43.4099 41.42C44.1099 41.07 44.3399 40.05 43.9199 39.11C43.4999 38.16 42.5399 37.69 41.7799 38.07C41.0199 38.44 40.7899 39.48 41.2699 40.4Z" fill="#FFF38B"/>
<path d="M41.6799 46.61C42.1999 47.49 43.1199 47.92 43.7299 47.59C44.3399 47.26 44.4499 46.24 43.9899 45.33C43.5199 44.41 42.5999 43.97 41.9299 44.33C41.2599 44.69 41.1499 45.72 41.6799 46.61Z" fill="#FFF38B"/>
<path d="M32.1499 42.83C32.7799 43.65 33.8099 43.88 34.4999 43.4C35.1899 42.92 35.2799 41.85 34.7099 40.99C34.1399 40.14 33.0699 39.86 32.3299 40.38C31.5899 40.9 31.5299 42.03 32.1599 42.84L32.1499 42.83Z" fill="#FFF38B"/>
<path d="M35.5799 48.08C36.2199 48.89 37.1999 49.18 37.7799 48.73C38.3699 48.3 38.3999 47.29 37.8199 46.43C37.2399 45.58 36.2299 45.25 35.5799 45.73C34.9399 46.22 34.9399 47.27 35.5799 48.08Z" fill="#FFF38B"/>
<path d="M37.3499 54.75C38.0399 55.51 38.9799 55.8 39.4699 55.39C39.9399 54.97 39.8399 54.01 39.1999 53.2C38.5699 52.39 37.5999 52.07 37.0699 52.54C36.5399 53 36.6599 53.99 37.3499 54.75Z" fill="#FFF38B"/>
<path d="M43.0099 52.91C43.5799 53.76 44.4399 54.18 44.9599 53.87C45.4699 53.56 45.4599 52.58 44.9499 51.69C44.4399 50.8 43.5599 50.36 42.9899 50.71C42.4099 51.05 42.4399 52.05 43.0099 52.91Z" fill="#FFF38B"/>
<path d="M30.3999 55.23C31.1599 55.92 32.1799 56.06 32.6699 55.55C33.1599 55.04 32.9699 54.03 32.2399 53.3C31.5199 52.57 30.4999 52.42 29.9699 52.98C29.4399 53.54 29.6299 54.54 30.3999 55.23Z" fill="#FFF38B"/>
<path d="M52.8699 49.29C53.2199 50.25 53.9999 50.87 54.5999 50.66C55.1899 50.45 55.4399 49.5 55.1299 48.52C54.8199 47.54 54.0299 46.91 53.3899 47.14C52.7499 47.36 52.5199 48.33 52.8699 49.29Z" fill="#FFF38B"/>
<path d="M58.81 41.49C59.08 42.49 59.84 43.14 60.53 42.96C61.22 42.79 61.58 41.84 61.34 40.84C61.09 39.84 60.32 39.18 59.61 39.35C58.9 39.53 58.54 40.49 58.81 41.48V41.49Z" fill="#FFF38B"/>
<path d="M57.14 30.03C57.4 31.02 58.2 31.68 58.93 31.5C59.67 31.31 60.06 30.36 59.82 29.37C59.58 28.37 58.79 27.7 58.03 27.89C57.28 28.08 56.88 29.04 57.13 30.03H57.14Z" fill="#FFF38B"/>
<path d="M53.8 35.24C54.09 36.23 54.91 36.86 55.64 36.65C56.36 36.45 56.73 35.49 56.47 34.5C56.2 33.51 55.39 32.86 54.64 33.07C53.89 33.29 53.51 34.26 53.8 35.25V35.24Z" fill="#FFF38B"/>
<path d="M53.0699 41.45C53.3899 42.43 54.1899 43.05 54.8699 42.83C55.5499 42.62 55.8799 41.67 55.5999 40.68C55.3199 39.69 54.4999 39.05 53.7899 39.27C53.0799 39.5 52.7499 40.47 53.0699 41.45Z" fill="#FFF38B"/>
<path d="M47.95 45.36C48.36 46.31 49.18 46.83 49.83 46.59C50.47 46.34 50.69 45.36 50.33 44.4C49.97 43.44 49.12 42.87 48.44 43.14C47.75 43.4 47.55 44.43 47.95 45.36Z" fill="#FFF38B"/>
<path d="M63.2899 39.54C63.5199 40.54 64.2999 41.21 64.9799 41.06C65.5499 40.93 65.9699 40.04 65.8299 39.02C65.6999 38 64.9599 37.25 64.1599 37.43C63.4299 37.6 63.0599 38.55 63.2899 39.55V39.54Z" fill="#FFF38B"/>
<path d="M77.28 42.61C77.05 43.62 77.3499 44.52 77.7899 44.67C78.0399 44.74 78.2799 44.6 78.5199 44.34C78.7699 44.07 79.04 43.67 79.23 43.2C79.63 42.27 79.51 41.29 78.85 41.11C78.22 40.92 77.48 41.62 77.28 42.62V42.61Z" fill="#FFF38B"/>
<path d="M66.88 32.32C66.96 33.35 67.71 34.12 68.51 34.1C69.32 34.06 69.96 33.25 69.97 32.21C69.97 31.19 69.28 30.34 68.38 30.38C67.49 30.4 66.79 31.31 66.88 32.33V32.32Z" fill="#FFF38B"/>
<path d="M54.6499 35.38C54.9299 36.37 55.7499 36.99 56.4699 36.8C57.1899 36.61 57.5599 35.64 57.2999 34.65C57.0399 33.65 56.2299 33.01 55.4899 33.21C54.7499 33.4 54.3599 34.39 54.6499 35.38Z" fill="#FFF38B"/>
<path d="M58.1399 41.36C58.4099 42.35 59.1799 43.01 59.8699 42.83C60.5599 42.65 60.9199 41.71 60.6699 40.71C60.4199 39.71 59.6399 39.05 58.9399 39.23C58.2299 39.42 57.8799 40.38 58.1399 41.37V41.36Z" fill="#FFF38B"/>
<path d="M57.34 47.43C57.63 48.42 58.39 49.07 59.03 48.88C59.68 48.7 60 47.76 59.74 46.76C59.48 45.77 58.71 45.1 58.03 45.29C57.36 45.48 57.05 46.44 57.34 47.43Z" fill="#FFF38B"/>
<path d="M49.8399 40.94C50.1899 41.91 51.0399 42.49 51.7199 42.26C52.3999 42.01 52.7099 41.05 52.3899 40.07C52.0799 39.09 51.2299 38.48 50.5099 38.74C49.7799 38.99 49.4799 39.98 49.8399 40.95V40.94Z" fill="#FFF38B"/>
<path d="M51.5999 46.96C51.9599 47.92 52.7499 48.52 53.3799 48.3C53.9999 48.08 54.2499 47.11 53.9299 46.14C53.6099 45.16 52.8099 44.55 52.1499 44.79C51.4799 45.02 51.2399 45.99 51.5999 46.96Z" fill="#FFF38B"/>
<path d="M51.53 53.74C51.95 54.69 52.67 55.25 53.21 55.05C53.74 54.84 53.89 53.89 53.53 52.93C53.17 51.97 52.41 51.37 51.82 51.6C51.23 51.82 51.13 52.8 51.53 53.74Z" fill="#FFF38B"/>
<path d="M57.0799 53.82C57.3999 54.8 58.1199 55.45 58.6899 55.26C59.2799 55.08 59.5399 54.14 59.2599 53.16C58.9799 52.17 58.2299 51.51 57.6099 51.7C56.9999 51.89 56.7699 52.84 57.0799 53.82Z" fill="#FFF38B"/>
<path d="M45.46 51.66C45.97 52.55 46.81 53.04 47.34 52.75C47.86 52.45 47.95 51.51 47.49 50.58C47.04 49.67 46.17 49.13 45.59 49.46C45.01 49.78 44.95 50.76 45.46 51.65V51.66Z" fill="#FFF38B"/>
<path d="M67.5099 52.24C67.6099 52.74 67.6999 53.2 67.7499 53.53C67.8599 53.86 67.9499 54.06 68.0299 54.04C68.1699 54.04 68.2699 53.81 68.3299 53.46C68.4199 53.12 68.4699 52.65 68.4299 52.14C68.3499 51.11 67.9499 50.31 67.5699 50.35C67.4199 50.37 67.3299 50.6 67.2999 50.94C67.3299 51.28 67.4099 51.74 67.5099 52.25V52.24Z" fill="#FFF38B"/>
<path d="M72.5599 46.45C72.4899 47.48 72.8799 48.34 73.4199 48.4C73.9599 48.45 74.4899 47.7 74.6399 46.67C74.7899 45.66 74.4299 44.76 73.8099 44.69C73.1899 44.62 72.6299 45.42 72.5599 46.45Z" fill="#FFF38B"/>
<path d="M74.75 35.09C74.65 36.11 75.17 37 75.92 37.1C76.67 37.21 77.43 36.5 77.62 35.49C77.81 34.48 77.28 33.54 76.44 33.42C75.6 33.3 74.85 34.07 74.75 35.09Z" fill="#FFF38B"/>
<path d="M70.07 38.99C70.07 40.01 70.62 40.86 71.3 40.87C71.98 40.9 72.59 40.09 72.66 39.07C72.73 38.04 72.18 37.18 71.43 37.15C70.68 37.13 70.07 37.96 70.07 38.99Z" fill="#FFF38B"/>
<path d="M68.06 44.78C68.13 45.8 68.62 46.6 69.18 46.59C69.74 46.58 70.22 45.75 70.23 44.72C70.24 43.69 69.72 42.86 69.08 42.87C68.43 42.89 67.99 43.75 68.06 44.78Z" fill="#FFF38B"/>
<path d="M63.4899 47.56C63.7299 48.56 64.4799 49.23 65.1599 49.07C65.8399 48.91 66.1999 47.96 65.9699 46.97C65.7399 45.97 64.9899 45.29 64.2899 45.45C63.5999 45.61 63.2399 46.56 63.4899 47.56Z" fill="#FFF38B"/>
</g>
<path d="M89.43 92.03C87.54 93.02 85.56 93.91 83.59 94.62C83.65 94.6 82.28 90.82 82.17 90.51C80.97 87 80.11 82.32 79.63 78.66C78.9 73.12 78.93 67.95 78.92 62.38C78.9 52.41 79.59 41.22 87.65 34.71C91.43 39.37 93.05 42.63 94.34 45.54C97.21 51.99 98.59 58.38 99.57 65.04C100.02 68.04 100.53 71.37 102.89 73.28C104.19 74.33 105.87 74.78 107.51 75.13C112.04 76.09 116.7 76.47 121.32 76.27C122.13 76.23 123.08 76.25 123.55 76.91C123.85 77.31 123.85 77.85 123.85 78.35C123.84 79.76 123.82 81.17 123.81 82.59C122.91 82.73 119.74 82.91 119.63 83.05C119.12 83.71 118.66 86.06 118.27 86.9C117.92 87.64 117.51 88.37 116.88 88.88C115.94 89.63 114.66 89.78 113.47 89.73C109.35 89.55 105.57 87.59 101.41 87.53C97.66 87.48 94.42 89.22 91.25 91.03C90.65 91.37 90.05 91.7 89.43 92.03Z" fill="url(#paint5_radial_27_16962)"/>
<path style="mix-blend-mode:screen" d="M87.61 82.11C89.67 82.4 92.25 82.05 94.34 81.96C97 81.84 108.36 81.55 106.38 75.94C106.15 75.3 105.69 74.86 105.14 74.49C105.91 74.76 106.71 74.96 107.51 75.13C112.04 76.09 116.7 76.47 121.32 76.27C122.13 76.23 123.08 76.25 123.55 76.91C123.85 77.31 123.85 77.85 123.85 78.35C123.84 79.67 123.82 81 123.81 82.32C123.57 82.46 123.31 82.56 123.04 82.59C119.75 83.05 117.19 82.95 113.91 82.75C110.97 82.57 107.18 81.86 104.32 82.49C99.1 83.64 92.88 82.86 87.61 82.11Z" fill="url(#paint6_radial_27_16962)"/>
<path style="mix-blend-mode:screen" d="M104.38 86.39C107.07 86.2 109.74 85.86 112.39 85.35C114.47 84.95 116.05 84.21 117.29 82.93C118 82.93 118.71 82.93 119.42 82.96C119.33 84.85 118.19 88.03 116.63 89.13C114.65 90.54 111.21 89.4 109.13 88.93C105.28 88.06 101.58 87.08 97.3199 87.94C99.3799 86.63 101.95 86.55 104.39 86.38L104.38 86.39Z" fill="url(#paint7_radial_27_16962)"/>
<path opacity="0.71" d="M115.2 83.71C116.12 83.5 118.62 83.39 119.43 82.91C117.38 82.6 113.84 82.14 112.61 82.05C110.42 81.89 108.21 82.13 106.03 82.35C103.14 82.64 100.26 82.88 97.3599 82.83C94.5499 82.77 91.7599 82.25 88.9499 82.75C93.4999 82.87 97.7099 84.02 101.86 85.8C102.44 86.05 103.04 86.32 103.67 86.33C104.38 86.35 105.06 86.04 105.73 85.78C107.32 85.14 108.98 84.68 110.67 84.41C112.17 84.17 113.73 84.06 115.2 83.72V83.71Z" fill="#2A1F60"/>
<path opacity="0.28" d="M111.54 85.52C114.02 84.33 116.41 82.86 119.13 82.77C117.9 82.81 116.79 82.34 115.49 82.57C114.27 82.79 113.34 83.45 112.22 83.87C109.7 84.83 106.46 85.26 103.78 85.16C98.83 84.99 94.13 82.9 89.22 82.66C89.82 82.69 90.82 83.83 91.31 84.17C92.24 84.81 93.22 85.42 94.16 86.06C94.42 86.24 94.69 86.42 94.99 86.54C95.25 86.64 95.53 86.69 95.8 86.73C99.92 87.4 103.93 87.75 108.08 86.8C109.28 86.53 110.42 86.04 111.54 85.51V85.52Z" fill="#2A1F60"/>
<path style="mix-blend-mode:multiply" d="M98.13 80.96C97.99 81.06 97.84 81.14 97.69 81.22C94.04 83.13 89.33 79.94 86.49 77.79C85.35 76.92 84.24 75.93 83.6 74.62C82.6 72.56 82.91 70.11 83.25 67.83C84.43 69.68 86.05 70.77 87.48 72.31C88.57 73.49 89.73 74.83 91.16 75.63C94.74 77.63 101.53 76.03 103.35 71.99C102.12 74.72 100.61 79.26 98.12 80.96H98.13Z" fill="url(#paint8_linear_27_16962)"/>
<path opacity="0.41" d="M100.45 74.77C98.2 76.32 95.31 77.13 92.79 76.69C90.63 76.32 88.55 75.31 86.77 73.99C85.55 73.08 83.09 70.74 83.11 69C83.09 70.84 83.96 72.6 85.17 73.94C86.38 75.29 87.9 76.28 89.44 77.2C90.03 77.55 90.62 77.89 91.24 78.16C93.37 79.07 95.84 78.9 97.92 77.92C98.98 77.42 100.01 76.7 100.76 75.77C101.48 74.89 101.67 73.8 102.46 72.97C101.87 73.66 101.19 74.25 100.45 74.76V74.77Z" fill="#003E5D"/>
<path d="M104.61 62.37C106.7 68.06 103.64 74.32 97.79 76.35C91.94 78.38 85.51 75.41 83.42 69.71C81.34 64.03 84.39 57.76 90.25 55.74C96.1 53.7 102.53 56.68 104.61 62.37Z" fill="url(#paint9_linear_27_16962)"/>
<path d="M104.34 63.73C105.97 68.17 103.58 73.07 99.01 74.65C94.43 76.24 89.41 73.91 87.79 69.47C86.16 65.02 88.55 60.13 93.12 58.56C97.68 56.96 102.71 59.3 104.34 63.74V63.73Z" fill="url(#paint10_radial_27_16962)"/>
<path opacity="0.73" d="M88.83 69.13C88.16 67.95 87.55 65.95 87.93 64.59C86.92 68.17 88.23 71.71 91.34 73.85C94.96 76.32 100.48 75.18 103.1 71.8C104.77 69.66 104.62 66.98 104.42 64.44C103.69 68.6 101.24 71.98 96.84 73.08C93.62 73.89 90.36 71.84 88.83 69.12V69.13Z" fill="#A4A9AB"/>
<path d="M104.63 65.88C105.37 67.97 104.29 70.26 102.22 71C100.15 71.75 97.86 70.65 97.12 68.57C96.39 66.48 97.47 64.19 99.55 63.43C101.61 62.69 103.89 63.78 104.63 65.88Z" fill="url(#paint11_radial_27_16962)"/>
<path d="M102.29 71.2C104.46 70.42 105.6 68 104.82 65.82C104.23 64.13 102.64 63.01 100.87 63.01C100.4 63.01 99.93 63.09 99.48 63.25C97.31 64.04 96.17 66.45 96.93 68.65C97.52 70.32 99.11 71.45 100.88 71.45C101.36 71.45 101.84 71.37 102.29 71.21V71.2ZM104.45 65.95C105.15 67.92 104.12 70.1 102.15 70.82C101.75 70.97 101.32 71.04 100.88 71.04C99.28 71.04 97.85 70.02 97.31 68.51C96.62 66.54 97.66 64.35 99.61 63.63C100.01 63.48 100.44 63.41 100.87 63.41C102.47 63.41 103.91 64.43 104.45 65.95Z" fill="#004A61"/>
<path d="M104.61 66.51C105.13 67.93 104.37 69.47 102.93 69.97C101.48 70.48 99.8799 69.74 99.3699 68.33C98.8499 66.92 99.6099 65.38 101.05 64.87C102.5 64.37 104.08 65.11 104.61 66.51Z" fill="#000F24"/>
<path d="M104.85 68.14C104.98 68.49 104.79 68.88 104.44 69.01C104.09 69.13 103.71 68.95 103.58 68.6C103.45 68.25 103.64 67.86 103.98 67.73C104.34 67.61 104.72 67.79 104.84 68.14H104.85Z" fill="white"/>
<path d="M98.79 67.5C99.08 68.26 98.66 69.12 97.86 69.39C97.07 69.66 96.2 69.26 95.92 68.5C95.64 67.73 96.05 66.88 96.84 66.6C97.64 66.33 98.51 66.74 98.79 67.5Z" fill="white"/>
<path d="M100.17 68C100.32 68.38 100.11 68.79 99.73 68.93C99.35 69.06 98.92 68.86 98.79 68.49C98.65 68.11 98.85 67.71 99.24 67.58C99.62 67.45 100.04 67.63 100.18 68.01L100.17 68Z" fill="white"/>
<path style="mix-blend-mode:screen" opacity="0.98" d="M90.24 55.74C94.13 54.38 98.28 55.26 101.24 57.67C95.6 55.13 89.24 56.87 86.14 62.37C84.45 65.36 83.81 71.58 86.71 74.35C86.41 74.1 86.11 73.83 85.83 73.54C85.72 73.42 85.61 73.31 85.51 73.19C84.92 72.5 84.4 71.74 84.04 71.05C83.78 70.58 83.56 70.07 83.37 69.55C81.41 63.91 84.45 57.75 90.25 55.75L90.24 55.74Z" fill="url(#paint12_linear_27_16962)"/>
<path d="M88.61 71.27C87.25 69.19 86.7 66.19 87.8 63.88C86.15 67.59 87.32 72.14 90.58 74.6C93.63 76.91 98.23 76.25 101.27 74.18C103.14 72.9 103.98 71.04 104.58 68.97C102.96 72.37 100.62 74.86 96.56 75.09C93.42 75.27 90.32 73.87 88.62 71.27H88.61Z" fill="url(#paint13_linear_27_16962)"/>
<path d="M91.3599 67.37C91.7999 68.58 91.1499 69.92 89.9199 70.35C88.6699 70.78 87.3099 70.15 86.8599 68.94C86.4099 67.73 87.07 66.4 88.32 65.97C89.55 65.53 90.9399 66.17 91.3699 67.38L91.3599 67.37Z" fill="white"/>
<path d="M89.75 63.84C90.76 65.7 92.32 62.79 93.29 62C95.87 59.9 99.36 59.17 102.15 61.25C100.61 60.11 100.74 59.13 98.43 58.59C96.97 58.24 95.97 58.18 94.5 58.57C92.5 59.08 88.53 60.77 89.56 63.45C89.62 63.59 89.67 63.73 89.74 63.84H89.75Z" fill="white"/>
<path d="M120.1 76.29C118.51 76.19 116.93 76.37 115.33 76.25C112.51 76.03 109.71 75.67 106.93 75.16C110.71 76.28 114.7 76.46 118.6 77.07C119.49 77.21 120.42 77.39 121.13 77.94C122.56 79.03 122.7 81.08 122.82 82.73C123.07 82.63 123.33 82.58 123.6 82.58C123.65 80.85 123.7 79.12 123.75 77.39C123.8 75.75 121.12 76.35 120.1 76.28V76.29Z" fill="#29CCE5"/>
<path d="M118.79 84.4C119 83.82 119.27 82.97 119.14 83C119.23 82.98 119.32 82.98 119.41 83C119.55 84.25 118.87 85.67 118.35 86.79C118.03 87.49 117.64 88.18 117.07 88.69C116.23 89.46 115.05 89.79 113.91 89.79C112.77 89.79 111.65 89.51 110.56 89.19C110.68 89.24 110.81 89.3 110.93 89.35C109.03 88.81 107.29 88.41 105.36 87.99C107.86 88.53 111.29 89.49 113.84 88.89C114.54 88.73 115.19 88.39 115.81 88.02C116.15 87.82 116.48 87.61 116.78 87.36C117.57 86.71 118.13 85.82 118.6 84.93C118.63 84.88 118.71 84.67 118.81 84.4H118.79Z" fill="#29CCE5"/>
<path opacity="0.27" d="M70.26 83.27C56.62 84.05 42.24 81.96 31.45 73.66C29.44 72.11 27.56 70.35 25.31 69.17C23.48 68.21 21.45 67.66 19.39 67.46C16.1 67.15 12.82 67.82 9.64997 68.62C7.76997 69.09 5.64997 69.34 3.99997 68.33C2.34997 67.32 1.73997 64.58 3.32997 63.47C0.669971 67.99 0.419968 73.83 2.66997 78.56C2.11997 75.2 5.63997 72.28 9.03997 72.16C11.74 72.07 19.76 72.9 20.5 76.19C16.72 77.94 14.05 81.19 12.26 84.87C15.03 82.12 18.96 80.57 22.86 80.68C22.65 82.05 21.37 83.19 19.98 83.24C26.01 83.02 32.05 86.35 35.08 91.57C34.26 92.04 33.28 92.22 32.35 92.08C35.98 92.21 39.5 94.22 41.45 97.29C41.45 97.89 49.84 95.47 50.39 95.26C50.75 95.13 51.12 94.99 51.51 94.97C52.26 94.93 52.95 95.33 53.68 95.52C54.15 95.64 54.64 95.67 55.13 95.71C60.07 96.12 64.53 97.44 69.57 97.22C74.47 97 79.34 96.08 83.98 94.48C84.16 94.42 84.37 94.33 84.43 94.15C84.48 94 84.41 93.84 84.34 93.69C82.04 88.93 79.93 84.68 79.66 79.25C78.47 82.2 74.72 82.98 71.54 83.2C71.12 83.23 70.69 83.26 70.26 83.28V83.27Z" fill="#A05FA3"/>
<path style="mix-blend-mode:screen" d="M14.52 88.12C17.09 92.31 22.08 94.9 26.75 95.86C31.93 96.94 37.35 96.89 42.52 95.74C41.09 96.06 37.94 92.12 36.97 91.31C34.67 89.37 32.26 87.55 29.77 85.86C26.35 83.54 22.13 80.85 17.89 80.48C13.74 80.12 12.74 85.19 14.52 88.13V88.12Z" fill="url(#paint14_radial_27_16962)"/>
<path style="mix-blend-mode:screen" d="M2.43998 78.85C0.85998 75.76 0.109985 72.8 -1.52588e-05 69.83C0.189985 62.78 4.39998 55.68 11.09 53.2C10.66 57.07 12.38 61.12 15.47 63.49C16.25 64.09 17.17 64.6 18.15 64.62C19.35 64.64 20.35 63.94 21.19 63.03C21.43 62.87 21.66 62.68 21.86 62.47C20.84 63.78 19.47 64.8 18.03 65.64C17.33 66.05 16.59 66.43 15.78 66.55C13.17 66.92 11.05 64.33 9.70998 62.42C8.77998 61.1 8.13998 59.5 8.23998 57.89C3.08998 64.17 1.49998 69.99 2.33998 78.09C2.36998 78.35 2.38998 78.6 2.41998 78.86L2.43998 78.85Z" fill="url(#paint15_radial_27_16962)"/>
<g style="mix-blend-mode:screen" opacity="0.9">
<path d="M14.44 62.77C15.64 64.2 17.64 65.16 19.47 64.96C17.81 65.49 15.95 65.01 14.51 64.03C13.07 63.06 11.98 61.64 11.03 60.18C10.09 58.74 10.03 56.31 8.27997 56.36C6.81997 56.4 3.80997 59.07 2.99997 60.25C4.06997 58.7 5.28997 56.63 6.82997 55.54C7.60997 54.99 10.61 53.87 10.87 52.95C10.43 54.47 11.33 56.94 12 58.27C12.6 59.44 13.19 60.62 13.79 61.79C13.96 62.13 14.18 62.46 14.44 62.77Z" fill="#FFEA33"/>
</g>
<path d="M19.12 76.23C17.79 75.15 16.19 74.4 14.51 74.06C13.85 73.93 13.18 73.86 12.51 73.79C10.09 73.56 7.50998 74.5 5.31998 75.58C3.80998 76.32 2.42999 77.68 2.35999 79.36C0.979985 76.68 0.309982 73.63 0.449982 70.62C0.759982 73.06 1.42998 75.45 2.43998 77.69C2.46998 76.25 3.31998 74.9 4.44998 74.01C5.58998 73.12 6.98998 72.63 8.40998 72.35C10.93 71.84 13.73 71.95 15.83 73.43C17.42 74.55 18.67 76.44 20.61 76.59L19.11 76.23H19.12Z" fill="#29CCE5"/>
<path d="M39.5 97.7C35.18 98.1 30.59 98.04 26.28 97.54C21.97 97.04 17.61 95.49 14.32 92.66C17.46 95.05 22.52 95.74 26.43 96.28C29.12 96.65 31.27 96.91 33.98 96.91C37.55 96.91 41.4 96.65 44.94 96.18C45.99 96.04 47.04 95.89 48.09 95.77C45.4 96.64 42.25 97.23 39.49 97.69L39.5 97.7Z" fill="#29CCE5"/>
<path opacity="0.25" d="M49.34 85.56C42.15 83.62 35.42 80.37 28.9 76.05C24.12 72.88 18.87 69.28 13.2 70.1C18.76 69.3 25.98 77.42 29.92 80.52C36.05 85.33 42.82 89.41 50.18 92.02C62.3 96.31 77.1 96.39 88.77 90.66C92.47 88.84 95.96 86.05 100.09 85.99C96.25 86.35 92.28 85.24 89.18 82.95C88.93 82.77 88.67 82.57 88.36 82.56C88.09 82.56 87.85 82.69 87.61 82.82C83.96 84.82 78.74 85.93 74.64 86.73C71.47 87.35 67.91 88.17 64.66 88.08C59.65 87.94 54.2 86.88 49.35 85.58L49.34 85.56Z" fill="#2A1F60"/>
<path opacity="0.21" d="M82.13 94.12C82.15 94.33 82.16 94.55 82.05 94.73C81.92 94.93 81.67 95.01 81.44 95.08C80.07 95.46 78.7 95.84 77.33 96.23C78.2 95.45 78.71 94.35 79.19 93.28C79.92 91.67 80.54 89.74 81.53 88.3C82.06 90.08 81.96 92.25 82.12 94.12H82.13Z" fill="#2A1F60"/>
<path style="mix-blend-mode:screen" d="M76.3099 4.09C76.8399 5.05 77.2399 6.08 77.5099 7.15C76.8299 6.13 76.0499 4.72 75.8399 3.52C75.6299 2.32 76.0399 0.919998 77.1099 0.329998C78.1499 -0.240002 79.4399 0.119998 80.5599 0.529998C83.0299 1.44 85.0599 3.31 85.7599 5.85C86.4699 8.41 85.2599 11.07 84.4399 13.41C83.2399 16.81 82.5299 20.25 82.6799 23.88C82.1799 17.92 78.8899 9.48 76.3099 4.09Z" fill="url(#paint16_radial_27_16962)"/>
<path style="mix-blend-mode:screen" d="M93.88 16.71C92.64 17.64 91.24 18.34 90.03 19.3C87.9 21 86.43 23.52 86.02 26.22C85.22 24.02 85.87 21.59 86.52 19.34C86.93 17.93 87.34 16.52 87.75 15.11C88.51 12.5 90.56 7.16 94.33 8.56C98.23 10.01 96.21 14.96 93.88 16.7V16.71Z" fill="url(#paint17_radial_27_16962)"/>
<path style="mix-blend-mode:screen" d="M92.2499 25.84C93.3899 24.98 94.5999 24.14 95.9999 23.82C97.3899 23.5 99.0199 23.8 99.9199 24.91C100.82 26.02 100.63 27.97 99.3399 28.6C98.8899 28.82 98.3699 28.86 97.8699 28.86C96.2299 28.86 94.6199 28.44 92.9799 28.36C91.3399 28.28 89.5599 28.61 88.4399 29.81C89.5399 29.04 90.2599 27.85 91.0699 26.79C91.8899 25.73 92.9399 24.7 94.2699 24.51L92.2499 25.84Z" fill="url(#paint18_radial_27_16962)"/>
<path style="mix-blend-mode:screen" d="M72.73 8.87C74.15 12.43 75.96 17.43 74.99 18.17C74.55 18.51 73.95 18.04 73.6 17.61C72.62 16.41 71.64 15.22 70.66 14.02C68.61 11.51 63.7 5.59 66.37 2.09C68.63 -0.869997 70.58 3.44 71.3 5.38C71.46 5.82 72.05 7.18 72.72 8.87H72.73Z" fill="url(#paint19_radial_27_16962)"/>
<path style="mix-blend-mode:screen" d="M62.86 6.92002C66.18 10.33 67.08 14.28 67.85 18.97C66.71 18.87 65.72 18.17 64.84 17.44C61.82 14.94 59.34 11.8 57.6 8.29002C55.88 4.83002 60.76 4.76002 62.86 6.92002Z" fill="url(#paint20_radial_27_16962)"/>
<path style="mix-blend-mode:screen" d="M61.47 21.15C57.26 20.98 53.17 18.78 50.71 15.35C47.61 11.04 52.74 11.27 55.28 12.88C58.25 14.76 60.55 17.74 61.47 21.15Z" fill="url(#paint21_radial_27_16962)"/>
<path style="mix-blend-mode:screen" d="M38.32 29.7C40.02 30.46 41.6 31.48 43 32.7C43.07 32.77 43.14 32.84 43.21 32.91C41.87 31.41 37.73 31.9 36.07 32.33C30.59 33.74 25.91 45.25 24.15 49.94C22.89 53.29 21.95 56.76 21.47 60.17C21.81 57.59 22.24 54.53 22.78 51.45C23.56 48.26 24.56 45.13 25.81 42.1C27.98 36.83 30.27 26.09 38.33 29.7H38.32Z" fill="url(#paint22_radial_27_16962)"/>
<path style="mix-blend-mode:screen" d="M54.6 25.84C51.19 25.7 47.36 25.24 44.31 23.62C42.95 22.9 41.59 21.79 41.54 20.13C41.46 17.78 44.86 16.79 46.82 17.66C49 18.62 49.78 19.29 51.01 21.18C51.78 22.37 52.89 25.69 54.61 25.84H54.6Z" fill="url(#paint23_radial_27_16962)"/>
<path d="M56.57 44.15C49.82 53.67 49.61 67.36 56.07 77.08C56.39 77.55 56.73 78.03 57.23 78.31C58.28 78.89 59.57 78.39 60.66 77.88C65.41 75.66 70.35 73.65 74.98 71.18C78.71 69.19 78.96 65.89 75.64 63.35C68.26 57.69 61.75 52.03 56.56 44.16L56.57 44.15Z" fill="url(#paint24_radial_27_16962)"/>
<path style="mix-blend-mode:screen" d="M56.49 44.84C51.01 53.15 50.03 64.25 53.97 73.39C54.63 74.91 55.43 76.43 56.56 77.66C58.02 79.25 58.28 79.18 59.51 77.66C61.12 75.67 63.97 73.22 66.71 73.19C64.12 73.22 61.45 73.23 59.08 72.18C56.72 71.13 54.77 68.68 55.14 66.13C55.21 65.68 55.36 65.21 55.71 64.91C56.15 64.53 56.79 64.52 57.37 64.53C59.47 64.56 61.57 64.58 63.67 64.61C61.57 64.31 59.53 63.64 57.67 62.63C56.83 62.17 55.98 61.6 55.57 60.74C55.23 60.04 55.22 59.21 55.44 58.46C56.18 55.91 59.31 54.7 61.92 55.19C64.53 55.67 66.72 57.39 68.79 59.04C71.48 61.19 74.17 63.34 76.86 65.5C73.58 61 69.42 57.89 65.56 53.99C62.54 50.94 59.52 47.89 56.5 44.85L56.49 44.84Z" fill="url(#paint25_radial_27_16962)"/>
<path opacity="0.9" d="M76.72 64.72C70.07 58.38 63.55 51.99 57.12 45.44C56.97 45.28 56.79 45.12 56.57 45.09C56.17 45.04 55.89 45.45 55.71 45.8C52.6 51.9 51.28 58.9 51.94 65.72C51.79 59.38 53.25 53.01 56.14 47.37C62.7 53.38 69.63 58.95 76.56 64.53L76.71 64.72H76.72Z" fill="#FFF083"/>
<path style="mix-blend-mode:screen" d="M59.0499 63C57.3299 62.64 55.6099 62.28 53.8499 62.2C53.0399 62.16 51.9399 62.49 52.0399 63.29C52.3499 65.75 67.5999 65.4 69.5599 65.5C66.5399 63.95 62.3899 63.7 59.0499 63Z" fill="url(#paint26_radial_27_16962)"/>
<path style="mix-blend-mode:screen" d="M63.71 76.36C66.68 74.85 69.54 73.11 72.25 71.18C67.44 73.87 62.08 75.39 56.77 76.89C55.63 77.21 58.39 78.24 58.75 78.24C60.34 78.26 62.33 77.06 63.7 76.37L63.71 76.36Z" fill="url(#paint27_radial_27_16962)"/>
<path style="mix-blend-mode:screen" d="M58.81 25.44C67.71 24.03 76.7 25.86 83.7 31.2C90.17 36.22 94.14 43.69 96.64 51.77C94.31 50.87 91.62 50.73 89.14 51.19C85.3 51.9 81.81 53.81 78.37 55.65C70.1 60.05 59.96 62.19 50.58 60.95C46.86 60.46 41.52 58.86 37.42 56.29C35.17 54.88 33.3 53.18 32.28 51.22C31.29 49.3 31.23 47.12 31.69 44.99C33.21 42.42 34.85 39.93 36.81 37.67C42.35 31.24 50.37 26.89 58.81 25.46V25.44Z" fill="url(#paint28_radial_27_16962)"/>
<path opacity="0.51" d="M42.7501 37.75C42.7801 37.81 42.8 37.87 42.84 37.94C43.37 38.92 44.6901 39.11 45.7901 39.02C48.9401 38.76 52.4201 36.89 55.5201 36.02C58.14 35.29 60.8001 34.1 63.4901 33.68C71.3801 32.46 83.4901 32.46 89.1801 39.53C85.5801 35.06 80.5401 31.86 75.1101 30.01C64.68 26.45 52.51 26.36 44.12 34.39C43.19 35.28 42.2801 36.6 42.7401 37.76L42.7501 37.75Z" fill="white"/>
<path style="mix-blend-mode:screen" opacity="0.5" d="M64.8399 32.7C58.5699 31.47 53.3199 31.97 47.8299 35.19C42.7999 38.15 38.3699 42.14 34.9299 46.85C32.9899 49.51 31.3599 52.41 30.3599 55.54C28.8399 60.28 28.8399 65.54 30.6099 70.19C33.3199 77.32 39.4099 80.43 45.9399 83.31C52.8999 86.38 61.1499 85.42 68.2999 83.57C78.9499 80.81 85.7099 75.46 88.3499 66.36C92.0699 53.53 85.9299 40.49 71.3799 34.63C69.2499 33.77 67.0499 33.12 64.8299 32.68L64.8399 32.7Z" fill="url(#paint29_radial_27_16962)"/>
<path opacity="0.53" d="M80.58 1.83002C81.69 1.99002 82.73 2.53002 83.5 3.34002C83.74 3.60002 83.96 3.89002 84.02 4.24002C84.08 4.59002 83.94 4.99002 83.62 5.13002C83.38 5.24002 83.11 5.19002 82.86 5.13002C82.05 4.93002 81.27 4.62002 80.55 4.20002C80.17 3.98002 79.8 3.71002 79.57 3.34002C79.35 2.96002 79.31 2.44002 79.59 2.10002C79.87 1.76002 80.49 1.74002 80.71 2.13002L80.56 1.84002L80.58 1.83002Z" fill="white"/>
<path opacity="0.53" d="M84.5099 6.60002C84.6899 7.10002 84.7899 7.64002 84.8099 8.17002C84.8099 8.37002 84.8099 8.61002 84.6399 8.73002C84.3699 8.94002 83.9999 8.65002 83.7799 8.38002C83.5899 8.15002 83.3999 7.91002 83.3299 7.62002C83.2499 7.27002 83.3999 6.87002 83.6999 6.68002C84.0099 6.49002 84.4599 6.57002 84.6599 6.86002L84.4999 6.59002L84.5099 6.60002Z" fill="white"/>
<path opacity="0.53" d="M67.97 1.72001C69.15 1.97001 69.75 3.27001 70.16 4.40001C70.29 4.77001 70.43 5.20001 70.24 5.55001C70.07 5.88001 69.65 6.03001 69.28 5.98001C68.91 5.93001 68.58 5.72001 68.3 5.47001C67.72 4.97001 67.27 4.32001 67.01 3.60001C66.75 2.88001 66.86 1.83001 67.61 1.70001C68.07 1.62001 68.49 1.96001 68.83 2.28001L67.96 1.72001H67.97Z" fill="white"/>
<path opacity="0.53" d="M71.58 8.19C71.93 8.63 72.11 9.22 72.06 9.78C71.48 9.84 70.89 9.52 70.62 9C70.36 8.48 70.44 7.81 70.83 7.38C71.08 7.6 71.33 7.81 71.58 8.03V8.19Z" fill="white"/>
<path opacity="0.53" d="M93.84 10.39C93.69 11.5 92.79 12.47 91.69 12.71C91.43 12.77 91.11 12.77 90.94 12.56C90.85 12.45 90.82 12.31 90.8 12.18C90.71 11.57 90.72 10.93 90.99 10.37C91.26 9.82 91.84 9.39 92.45 9.42C93.06 9.46 93.62 10.07 93.49 10.67L93.84 10.4V10.39Z" fill="white"/>
<path opacity="0.53" d="M90.66 14.31C90.66 14.89 90.35 15.51 89.8 15.69C89.25 15.87 88.54 15.44 88.59 14.86C88.61 14.58 88.79 14.34 88.97 14.14C89.15 13.94 89.37 13.74 89.64 13.69C89.91 13.63 90.23 13.75 90.32 14.01L90.66 14.32V14.31Z" fill="white"/>
<path opacity="0.53" d="M61.11 6.57C60.62 6.3 60.14 6.18 59.78 6.37C57.45 7.61 62.8 11.25 63.28 9.05C63.35 8.74 63.17 8.43 62.98 8.17C62.68 7.77 61.89 6.99 61.11 6.56V6.57Z" fill="white"/>
<path opacity="0.53" d="M64.19 11.01C64.43 11.45 64.62 11.91 64.78 12.38C64.83 12.52 64.87 12.67 64.84 12.82C64.78 13.1 64.47 13.25 64.19 13.26C63.6 13.28 63.04 12.76 63.02 12.16C63 11.57 63.52 11.01 64.12 10.99L64.2 11.01H64.19Z" fill="white"/>
<path d="M80.4699 90.94C78.5799 94.68 76.3999 98.27 73.9499 101.67C72.1899 104.11 70.0499 106.62 67.1099 107.22C64.6899 107.72 62.0199 106.71 60.5399 104.73C65.4699 97.99 72.3799 93.01 79.1599 88.14C79.8699 87.63 80.7399 87.09 81.5699 87.4C80.8799 90.19 79.7299 92.87 78.1899 95.29L80.4699 90.95V90.94Z" fill="url(#paint30_radial_27_16962)"/>
<path style="mix-blend-mode:screen" d="M74.0599 98.84C73.7399 99.21 73.4099 99.56 73.0699 99.89C71.9499 100.99 61.1299 107.58 61.4699 104.53C61.5299 104.01 61.8799 103.57 62.2099 103.16C65.2699 99.46 68.4799 96.08 72.3399 93.12C74.3499 91.58 76.3299 89.99 78.3399 88.46C79.0699 87.9 80.1099 87.52 80.8999 87.99C78.8999 91.45 76.7699 95.72 74.0599 98.83V98.84Z" fill="url(#paint31_radial_27_16962)"/>
<path opacity="0.21" d="M66.46 106.7C64.55 106.93 62.52 106.2 61.25 104.74C65.48 105.53 68.26 104.54 71.44 101.59C74.54 98.72 77.05 95.6 78.99 91.72C76.57 96.56 74.85 101.04 70.62 104.56C69.72 105.31 68.75 106.03 67.64 106.42C67.26 106.55 66.86 106.65 66.46 106.69V106.7Z" fill="#2A1F60"/>
<path d="M66.23 106.09C65.3 106.18 64.35 106.3 63.42 106.09C62.41 105.87 61.41 105.19 60.52 104.67C60.66 104.75 60.94 105.26 61.1 105.41C61.44 105.73 61.79 106.03 62.18 106.28C62.9 106.75 63.71 107.01 64.54 107.23C66.49 107.73 68.59 107.01 70.19 105.78C72.92 103.69 74.3 101.55 76.7 97.59C75.33 100.21 73.12 102.43 70.64 104.02C68.95 105.1 67.73 105.94 66.23 106.08V106.09Z" fill="#29CCE5"/>
<path opacity="0.5" d="M80.4699 90.94C78.5799 94.68 76.3999 98.27 73.9499 101.67C72.1899 104.11 70.0499 106.62 67.1099 107.22C64.6899 107.72 62.0199 106.71 60.5399 104.73C65.4699 97.99 72.3799 93.01 79.1599 88.14C79.8699 87.63 80.7399 87.09 81.5699 87.4C80.8799 90.19 79.7299 92.87 78.1899 95.29L80.4699 90.95V90.94Z" fill="url(#paint32_radial_27_16962)"/>
</g>
<defs>
<radialGradient id="paint0_radial_27_16962" cx="0" cy="0" r="1" gradientUnits="userSpaceOnUse" gradientTransform="translate(72.16 -19.83) rotate(180) scale(119.24 119.24)">
<stop offset="0.91" stop-color="#A05FA3"/>
<stop offset="0.99" stop-color="#39BCDB"/>
<stop offset="1" stop-color="#29CCE5"/>
</radialGradient>
<radialGradient id="paint1_radial_27_16962" cx="0" cy="0" r="1" gradientUnits="userSpaceOnUse" gradientTransform="translate(40.68 35) rotate(180) scale(65.9)">
<stop offset="0.91" stop-color="#A05FA3"/>
<stop offset="0.99" stop-color="#39BCDB"/>
<stop offset="1" stop-color="#29CCE5"/>
</radialGradient>
<radialGradient id="paint2_radial_27_16962" cx="0" cy="0" r="1" gradientUnits="userSpaceOnUse" gradientTransform="translate(57.8299 -4.73999) rotate(180) scale(71.35 71.35)">
<stop stop-color="#FFEA33"/>
<stop offset="0.62" stop-color="#F5C500"/>
<stop offset="0.7" stop-color="#EDB40B"/>
<stop offset="0.87" stop-color="#D9882A"/>
<stop offset="1" stop-color="#C86345"/>
</radialGradient>
<radialGradient id="paint3_radial_27_16962" cx="0" cy="0" r="1" gradientUnits="userSpaceOnUse" gradientTransform="translate(36.83 71.59) rotate(180) scale(30.62 30.62)">
<stop stop-color="#FFEA33"/>
<stop offset="0.62" stop-color="#F5C500"/>
<stop offset="0.7" stop-color="#EDB40B"/>
<stop offset="0.87" stop-color="#D9882A"/>
<stop offset="1" stop-color="#C86345"/>
</radialGradient>
<radialGradient id="paint4_radial_27_16962" cx="0" cy="0" r="1" gradientUnits="userSpaceOnUse" gradientTransform="translate(57 20.11) rotate(180) scale(81.23 81.23)">
<stop stop-color="#FFEA33"/>
<stop offset="0.62" stop-color="#F5C500"/>
<stop offset="0.7" stop-color="#EDB40B"/>
<stop offset="0.87" stop-color="#D9882A"/>
<stop offset="1" stop-color="#C86345"/>
</radialGradient>
<radialGradient id="paint5_radial_27_16962" cx="0" cy="0" r="1" gradientUnits="userSpaceOnUse" gradientTransform="translate(118.92 59.79) rotate(180) scale(47.84 47.84)">
<stop stop-color="#0E6E8A"/>
<stop offset="0.19" stop-color="#146588"/>
<stop offset="0.48" stop-color="#274F86"/>
<stop offset="0.84" stop-color="#452B81"/>
<stop offset="1" stop-color="#55197F"/>
</radialGradient>
<radialGradient id="paint6_radial_27_16962" cx="0" cy="0" r="1" gradientUnits="userSpaceOnUse" gradientTransform="translate(115.57 72.69) rotate(180) scale(13.18)">
<stop stop-color="#29CCE5"/>
<stop offset="1" stop-color="#130C0E"/>
</radialGradient>
<radialGradient id="paint7_radial_27_16962" cx="0" cy="0" r="1" gradientUnits="userSpaceOnUse" gradientTransform="translate(114.55 97.78) rotate(180) scale(17.36 17.36)">
<stop stop-color="#29CCE5"/>
<stop offset="1" stop-color="#130C0E"/>
</radialGradient>
<linearGradient id="paint8_linear_27_16962" x1="87.1" y1="80.78" x2="95.04" y2="67.85" gradientUnits="userSpaceOnUse">
<stop stop-color="white"/>
<stop offset="0.27" stop-color="#B3CAC3"/>
<stop offset="0.53" stop-color="#709C8E"/>
<stop offset="0.74" stop-color="#3F7A68"/>
<stop offset="0.91" stop-color="#226550"/>
<stop offset="1" stop-color="#175E48"/>
</linearGradient>
<linearGradient id="paint9_linear_27_16962" x1="83.4755" y1="69.8484" x2="104.596" y2="62.3276" gradientUnits="userSpaceOnUse">
<stop stop-color="#55197F"/>
<stop offset="0.53" stop-color="#004C77"/>
<stop offset="1" stop-color="#29CCE5"/>
</linearGradient>
<radialGradient id="paint10_radial_27_16962" cx="0" cy="0" r="1" gradientUnits="userSpaceOnUse" gradientTransform="translate(100.146 63.1045) rotate(-19.1) scale(11.5584 11.3176)">
<stop stop-color="white"/>
<stop offset="0.87" stop-color="#EEEFF8"/>
<stop offset="0.9" stop-color="#EAECF4"/>
<stop offset="1" stop-color="#DFE6E9"/>
</radialGradient>
<radialGradient id="paint11_radial_27_16962" cx="0" cy="0" r="1" gradientUnits="userSpaceOnUse" gradientTransform="translate(101.235 66.7823) rotate(-19.74) scale(3.9804 4.0232)">
<stop stop-color="#F1F1F2"/>
<stop offset="0.27" stop-color="#008DA8"/>
<stop offset="0.57" stop-color="#6CEFEF"/>
<stop offset="0.63" stop-color="#67ECED"/>
<stop offset="0.7" stop-color="#5AE4E7"/>
<stop offset="0.77" stop-color="#45D7DD"/>
<stop offset="0.84" stop-color="#27C5CF"/>
<stop offset="0.86" stop-color="#1CBECA"/>
<stop offset="1" stop-color="#008DA8"/>
</radialGradient>
<linearGradient id="paint12_linear_27_16962" x1="92.59" y1="54.68" x2="90.8" y2="76.11" gradientUnits="userSpaceOnUse">
<stop stop-color="#2A89BB"/>
<stop offset="1" stop-color="#191919"/>
</linearGradient>
<linearGradient id="paint13_linear_27_16962" x1="104.57" y1="69.97" x2="87.05" y2="69.97" gradientUnits="userSpaceOnUse">
<stop stop-color="#004C77"/>
<stop offset="1" stop-color="#55197F"/>
</linearGradient>
<radialGradient id="paint14_radial_27_16962" cx="0" cy="0" r="1" gradientUnits="userSpaceOnUse" gradientTransform="translate(29.66 88.58) rotate(180) scale(11.39 11.39)">
<stop offset="0.1" stop-color="#ECC622"/>
<stop offset="1" stop-color="#020406"/>
</radialGradient>
<radialGradient id="paint15_radial_27_16962" cx="0" cy="0" r="1" gradientUnits="userSpaceOnUse" gradientTransform="translate(10.7 51.76) rotate(180) scale(14.94)">
<stop offset="0.1" stop-color="#ECC622"/>
<stop offset="1" stop-color="#020406"/>
</radialGradient>
<radialGradient id="paint16_radial_27_16962" cx="0" cy="0" r="1" gradientUnits="userSpaceOnUse" gradientTransform="translate(82.8999 0.0699976) rotate(180) scale(14.59)">
<stop offset="0.1" stop-color="#FFF083"/>
<stop offset="1" stop-color="#020406"/>
</radialGradient>
<radialGradient id="paint17_radial_27_16962" cx="0" cy="0" r="1" gradientUnits="userSpaceOnUse" gradientTransform="translate(91.99 8.36) rotate(180) scale(11.27 11.27)">
<stop offset="0.1" stop-color="#FFF083"/>
<stop offset="1" stop-color="#020406"/>
</radialGradient>
<radialGradient id="paint18_radial_27_16962" cx="0" cy="0" r="1" gradientUnits="userSpaceOnUse" gradientTransform="translate(95.4599 23.71) rotate(180) scale(5.52)">
<stop offset="0.1" stop-color="#FFF083"/>
<stop offset="1" stop-color="#020406"/>
</radialGradient>
<radialGradient id="paint19_radial_27_16962" cx="0" cy="0" r="1" gradientUnits="userSpaceOnUse" gradientTransform="translate(71.59 3.23) rotate(180) scale(9.36)">
<stop offset="0.1" stop-color="#FFF083"/>
<stop offset="1" stop-color="#020406"/>
</radialGradient>
<radialGradient id="paint20_radial_27_16962" cx="0" cy="0" r="1" gradientUnits="userSpaceOnUse" gradientTransform="translate(63.43 5.48002) rotate(180) scale(8.82)">
<stop offset="0.1" stop-color="#FFF083"/>
<stop offset="1" stop-color="#020406"/>
</radialGradient>
<radialGradient id="paint21_radial_27_16962" cx="0" cy="0" r="1" gradientUnits="userSpaceOnUse" gradientTransform="translate(56.58 11.83) rotate(180) scale(6.87)">
<stop offset="0.1" stop-color="#FFF083"/>
<stop offset="1" stop-color="#020406"/>
</radialGradient>
<radialGradient id="paint22_radial_27_16962" cx="0" cy="0" r="1" gradientUnits="userSpaceOnUse" gradientTransform="translate(34.14 29.02) rotate(180) scale(19.99)">
<stop offset="0.1" stop-color="#FFEA33"/>
<stop offset="1" stop-color="#020406"/>
</radialGradient>
<radialGradient id="paint23_radial_27_16962" cx="0" cy="0" r="1" gradientUnits="userSpaceOnUse" gradientTransform="translate(46.79 17.72) rotate(180) scale(6.77)">
<stop offset="0.1" stop-color="#FFEA33"/>
<stop offset="1" stop-color="#020406"/>
</radialGradient>
<radialGradient id="paint24_radial_27_16962" cx="0" cy="0" r="1" gradientUnits="userSpaceOnUse" gradientTransform="translate(47.36 49.87) rotate(180) scale(50.18)">
<stop stop-color="#FFEA33"/>
<stop offset="0.62" stop-color="#F5C500"/>
<stop offset="0.7" stop-color="#EDB40B"/>
<stop offset="0.87" stop-color="#D9882A"/>
<stop offset="1" stop-color="#C86345"/>
</radialGradient>
<radialGradient id="paint25_radial_27_16962" cx="0" cy="0" r="1" gradientUnits="userSpaceOnUse" gradientTransform="translate(39.21 52.61) rotate(180) scale(31.08 31.08)">
<stop offset="0.1" stop-color="#FFF083"/>
<stop offset="1" stop-color="#020406"/>
</radialGradient>
<radialGradient id="paint26_radial_27_16962" cx="0" cy="0" r="1" gradientUnits="userSpaceOnUse" gradientTransform="translate(60.7399 54.12) rotate(180) scale(14.05)">
<stop offset="0.1" stop-color="#FFF083"/>
<stop offset="1" stop-color="#020406"/>
</radialGradient>
<radialGradient id="paint27_radial_27_16962" cx="0" cy="0" r="1" gradientUnits="userSpaceOnUse" gradientTransform="translate(52.05 60.26) rotate(180) scale(25.08 25.08)">
<stop offset="0.1" stop-color="#FFF083"/>
<stop offset="1" stop-color="#020406"/>
</radialGradient>
<radialGradient id="paint28_radial_27_16962" cx="0" cy="0" r="1" gradientUnits="userSpaceOnUse" gradientTransform="translate(63.51 85.79) rotate(180) scale(66.74 66.74)">
<stop offset="0.7"/>
<stop offset="0.74" stop-color="#29230F"/>
<stop offset="0.87" stop-color="#9B833B"/>
<stop offset="0.96" stop-color="#E2C057"/>
<stop offset="1" stop-color="#FFD862"/>
</radialGradient>
<radialGradient id="paint29_radial_27_16962" cx="0" cy="0" r="1" gradientUnits="userSpaceOnUse" gradientTransform="translate(57.3099 57.2187) rotate(180) scale(29.68 24.6344)">
<stop offset="0.1" stop-color="#ECC622"/>
<stop offset="1" stop-color="#020406"/>
</radialGradient>
<radialGradient id="paint30_radial_27_16962" cx="0" cy="0" r="1" gradientUnits="userSpaceOnUse" gradientTransform="translate(70.2099 85.97) rotate(180) scale(19.92 19.92)">
<stop stop-color="#FFEA33"/>
<stop offset="0.62" stop-color="#F5C500"/>
<stop offset="0.7" stop-color="#EDB40B"/>
<stop offset="0.87" stop-color="#D9882A"/>
<stop offset="1" stop-color="#C86345"/>
</radialGradient>
<radialGradient id="paint31_radial_27_16962" cx="0" cy="0" r="1" gradientUnits="userSpaceOnUse" gradientTransform="translate(72.2399 96.59) rotate(180) scale(8.83)">
<stop offset="0.1" stop-color="#ECC622"/>
<stop offset="1" stop-color="#020406"/>
</radialGradient>
<radialGradient id="paint32_radial_27_16962" cx="0" cy="0" r="1" gradientUnits="userSpaceOnUse" gradientTransform="translate(60.2699 81.5) rotate(180) scale(28.98)">
<stop offset="0.66" stop-color="#A05FA3"/>
<stop offset="0.95" stop-color="#39BCDB"/>
<stop offset="1" stop-color="#29CCE5"/>
</radialGradient>
<clipPath id="clip0_27_16962">
<rect width="123.85" height="107.39" fill="white" transform="matrix(-1 0 0 1 123.85 0)"/>
</clipPath>
</defs>
</svg>
