<svg width="110" height="128" viewBox="0 0 110 128" fill="none" xmlns="http://www.w3.org/2000/svg">
<g clip-path="url(#clip0_27_19862)">
<path d="M32.54 114.07C31.7 110.49 31.14 106.85 30.09 103.33C29.64 101.84 27.28 94.72 25.24 94.72C29.33 94.72 33.45 94.73 37.45 95.6C39.74 96.1 41.97 96.88 44.29 97.23C46.18 97.51 48.1 97.51 49.99 97.8C51.65 98.06 53.27 98.55 54.92 98.91C63.12 100.72 72.01 99.19 79.14 94.76C79.62 98.94 81.53 102.45 84.62 105.23C87.25 107.59 90.7 108.77 94.08 109.8C86.6 112.11 79.02 114.35 71.21 114.88C66.65 115.19 62 114.88 57.57 113.72C54.02 112.78 52.15 111.7 49.5 109.44C47.04 107.35 43.64 106.32 40.44 106.85C43.1 109.09 45.76 111.32 48.42 113.56C49.1 114.13 49.79 114.72 50.17 115.52C50.55 116.32 50.52 117.38 49.87 117.97C48.98 118.77 47.57 118.32 46.54 117.71C41.53 114.77 38.48 109.46 35.65 104.4C35.79 111.4 44.29 115.9 44.85 122.87C45.03 125.11 43.76 127.84 41.52 127.85C40.31 127.85 39.25 127.06 38.4 126.2C35.2 122.97 33.6 118.5 32.55 114.08L32.54 114.07Z" fill="url(#paint0_radial_27_19862)"/>
<path d="M0.290127 75.2C0.110127 74.32 0.730127 73.44 1.52013 73.02C2.31013 72.6 3.23013 72.53 4.12013 72.46C6.84013 72.26 9.64013 72 12.0701 70.75C15.6501 68.9 16.1701 65.59 17.6701 62.24C18.0401 61.42 18.4501 60.63 18.8201 59.82C26.2401 43.56 35.2801 27.39 48.9701 15.55C58.0301 7.7 69.0501 1.9 80.8801 0C74.5001 1.03 68.3301 9.92 65.9801 15.26C62.8601 22.38 62.3701 30.56 67.7701 36.74C69.3501 38.55 71.4401 39.83 73.3401 41.31C77.9001 44.88 81.0901 52.1 82.0701 57.72C82.4301 59.81 82.9501 62.44 85.0201 62.91C87.1701 63.4 88.7901 61.09 89.9301 59.21C92.1901 55.52 95.2001 52.25 98.7901 49.83C102.17 47.55 105.57 44.59 109.84 44.56C106.91 49.62 103.96 54.72 102.08 60.26C100.2 65.8 99.4401 71.87 100.98 77.51C102.38 82.66 105.61 87.18 106.92 92.35C107.27 93.71 101.43 91.09 101.06 90.88C98.8801 89.64 96.3901 88.95 94.4701 87.34C92.0701 85.32 89.6401 83.27 87.9301 80.64C87.1201 79.39 86.4301 77.97 85.1901 77.14C82.0301 75.03 82.4701 76.79 83.1401 79.15C84.0701 82.43 83.6201 85.73 82.9201 89.01C82.2201 92.29 81.9701 95.6 81.2501 98.87C81.0101 99.97 80.9401 101.18 81.4901 102.16C78.0001 103.14 74.5701 105.64 71.0901 106.93C66.8601 108.5 62.4001 109.42 57.9001 109.7C48.9201 110.25 39.8601 108.21 31.8901 104.06C26.9101 101.46 21.9301 97.94 19.0501 92.99C16.5501 88.69 15.0101 83.79 10.0701 81.59C8.84013 81.04 6.35013 82.8 4.91013 83.06C4.19013 83.19 3.44013 83.28 2.73013 83.09C-1.16987 82.04 2.88013 78.37 5.58013 78.93C4.15013 78.41 2.79013 77.69 1.56013 76.79C0.990127 76.37 0.420127 75.86 0.280127 75.17L0.290127 75.2Z" fill="url(#paint1_radial_27_19862)"/>
<g opacity="0.31">
<path d="M60.85 15.04C58.78 17.96 57.12 21.15 55.66 24.41C55.21 25.41 52.92 32.87 51.05 32C49.76 31.41 53.55 23.41 54.05 22.34C57.11 15.8 61.4 9.83 66.64 4.88C66.37 4.99 66.1 5.1 65.83 5.2C59.06 11.06 53.97 19.05 50.3 27.33C49.5 29.12 47.78 34.52 45.56 35.02C43.17 35.56 45 31.63 45.54 30.64C47.18 27.65 49.13 24.78 51.06 21.97C52.79 19.46 54.76 15.59 57.18 13.72C52.13 17.61 48.49 23.03 45.36 28.59C44.17 30.7 43.02 32.89 41.25 34.54C40.58 33.5 41.23 32.14 41.87 31.09C42.97 29.3 44.07 27.5 45.17 25.71C46.57 23.43 47.98 21.13 49.67 19.06C51.26 17.12 53.09 15.39 54.92 13.67C57.31 11.42 59.7 9.16 62.09 6.91C54.14 13.56 46.07 20.35 40.4 29.04C40.4 26.69 42.81 23.63 44.25 21.99C39.83 26.95 36.97 32.83 38.34 39.83C45.01 39.45 50.03 35.56 54.98 31.08C56.59 29.62 58.22 27.96 59.71 26.15C61.78 23.62 63.55 20.79 64.57 17.8C64.47 18.02 64.37 18.23 64.24 18.44C63.66 19.36 62.63 20.08 61.55 19.95C61.36 15.26 63.5 11.7 66.36 8.59C64.36 10.6 62.49 12.73 60.85 15.04Z" fill="#43A8DD"/>
</g>
<g opacity="0.31">
<path d="M66.3701 8.59C68.2901 6.65 70.3201 4.81 72.3701 3.01C70.3401 4.8 68.2101 6.6 66.3701 8.59Z" fill="#43A8DD"/>
</g>
<g opacity="0.44">
<path d="M41.3802 107.64C41.0602 107.37 40.7502 107.11 40.4302 106.84C40.8102 106.78 41.2002 106.74 41.5902 106.72C41.1602 105.54 40.4102 103.54 40.4402 103.52C39.1202 104.24 37.5602 104.52 36.0802 104.29C33.6602 103.91 31.6402 102.31 29.4102 101.28C29.7402 102.19 29.9802 102.94 30.1002 103.33C30.8902 105.98 31.4002 108.71 31.9702 111.43C32.0702 110.89 32.3102 110.35 32.6102 109.89C33.0502 109.21 33.6502 108.57 34.4402 108.38C35.2302 108.19 36.2002 108.62 36.3502 109.42C36.2102 108.72 36.1602 108 36.2102 107.29C35.8902 106.37 35.6802 105.42 35.6602 104.41C35.9102 104.87 36.1702 105.32 36.4302 105.78C36.4402 105.73 36.4502 105.67 36.4602 105.62C37.3902 106.23 37.6702 107.38 38.0102 108.48C38.7502 109.68 39.5202 110.85 40.3602 111.96C40.6902 112.25 41.0202 112.52 41.3602 112.78C40.8402 112.18 40.3202 111.57 40.0102 110.84C39.7002 110.11 39.6402 109.23 40.0402 108.55C40.3102 108.09 40.8602 107.81 41.3802 107.67V107.64Z" fill="#004C77"/>
</g>
<path d="M32.66 54.43C30.82 67.92 29.38 81.39 35.42 94.07C35.92 95.13 36.46 96.18 37.22 97.07C38.3 98.35 39.76 99.24 41.24 100.01C47.41 103.23 54.44 104.76 61.38 104.47C68.05 104.19 75.66 103.35 81.64 100.23C81.26 100.43 82.03 94.56 82.09 94.07C82.63 89.14 84.55 84.13 83.15 79.17C82.48 76.8 82.04 75.05 85.2 77.16C86.44 77.99 87.13 79.4 87.94 80.66C89.65 83.28 92.08 85.34 94.48 87.36C94.59 87.45 94.71 87.53 94.82 87.62C89.44 78.77 88.01 67.58 91.01 57.67C90.65 58.19 90.27 58.7 89.94 59.24C88.79 61.12 87.17 63.43 85.03 62.94C82.96 62.47 82.44 59.84 82.08 57.75C81.11 52.13 77.92 44.91 73.35 41.34C71.45 39.86 69.36 38.58 67.78 36.77C65.84 34.54 64.06 32.14 63.67 29.19C63.16 25.37 63.59 21.76 64.18 17.99C62.95 25.86 52.64 34.58 45.59 37.18C43.43 37.98 41.13 38.51 39.2 39.78C34.57 42.81 33.42 48.97 32.67 54.45L32.66 54.43Z" fill="url(#paint2_radial_27_19862)"/>
<path d="M13.15 78.5C13.41 78.66 13.67 78.77 13.89 78.77C14.52 78.77 14.7 78.1 14.9 77.6C15.67 75.74 15.28 73.35 14.95 71.4C14.79 70.45 14.42 69.55 14.16 68.63C13.33 69.63 12.38 70.55 11.25 71.19C10.12 71.83 8.79001 72.18 7.51001 72C7.80001 72.04 8.66001 72.76 8.91001 72.98C9.29001 73.32 9.63001 73.83 9.92001 74.25C10.69 75.36 11.2 76.63 12.12 77.64C12.34 77.88 12.73 78.25 13.14 78.5H13.15Z" fill="url(#paint3_radial_27_19862)"/>
<path opacity="0.49" d="M49.9801 67.73C50.3501 70.28 50.0401 72.87 50.1101 75.45C50.2701 81.77 52.2501 89.65 57.4701 93.66C58.2601 94.27 61.2601 96.53 62.3001 95.81C63.4601 95.01 62.1001 90.82 62.0001 89.56C61.6001 84.38 62.1601 79.18 62.8201 74.05C64.2401 63.01 64.2701 51.64 58.7401 41.53C60.5101 42.33 61.8901 43.78 63.2201 45.2C64.7201 46.8 66.2101 48.39 67.7101 49.99C71.7001 54.25 71.5501 59.25 71.6201 64.81C71.7501 75.03 67.9901 86.47 73.5501 95.89C74.3401 97.23 75.8601 98.59 77.2601 97.91C80.0001 96.56 79.9801 91.62 80.1701 89.2C80.5001 84.98 80.8401 80.77 81.1701 76.55C81.6801 70.1 82.1701 63.46 80.2701 57.28C80.3501 57.46 80.4101 57.65 80.4901 57.83C79.6001 54.23 78.1901 50.71 76.0801 47.66C74.1001 44.8 71.1001 42.98 68.9101 40.18C67.0301 37.79 64.7401 35.93 63.5101 33.12C62.9401 31.81 61.6601 27.16 61.8201 23.81C62.5601 22.64 63.1401 21.45 63.5601 20.26C63.6601 20.23 63.7601 20.23 63.8501 20.23C63.4601 23.2 63.2601 26.12 63.6701 29.18C64.0601 32.13 65.8401 34.53 67.7801 36.76C69.3601 38.57 71.4501 39.85 73.3501 41.33C77.9101 44.9 81.1001 52.12 82.0801 57.74C82.4401 59.83 82.9601 62.46 85.0301 62.93C87.1801 63.42 88.8001 61.11 89.9401 59.23C90.2701 58.69 90.6501 58.18 91.0101 57.66C89.4901 59.84 90.5701 64.75 90.7701 67.23C91.0801 70.9 92.0401 74.52 93.6001 77.85C92.1701 75.28 90.2901 72.95 88.0701 71.01C83.8001 67.27 82.5401 72.47 82.7701 76.07C82.9201 78.37 83.6101 80.43 83.4601 82.74C83.3001 85.25 82.8401 87.72 82.4901 90.21C81.9601 94.06 81.2701 97.94 81.3701 101.83C81.3701 101.96 74.1601 104.2 73.3801 104.47C70.4301 105.48 67.4201 106.34 64.3601 106.96C51.6101 109.52 35.1301 110.05 25.8701 99.19C22.3801 95.1 20.4001 89.89 19.4601 84.59C18.5201 79.29 18.5701 73.88 18.7501 68.5C24.0601 71.06 31.5601 67.31 35.8601 63.94C39.6101 61 39.9801 57.08 38.5301 52.95C36.6801 47.69 35.2801 42.28 33.4401 37.02C34.4901 37 40.5301 38.62 41.0101 37.8C39.2401 40.83 39.1201 44.63 40.0701 48.01C42.0901 55.18 48.9001 60.27 49.9701 67.73H49.9801Z" fill="#FFEA33"/>
<path d="M33.6102 31.51C37.4102 26.48 41.6702 21.94 46.3702 18.41C43.9502 20.23 37.5602 27.21 40.1202 30.43C43.0202 27.97 44.9402 23.48 47.4402 20.47C45.0202 23.97 42.7102 27.58 41.0202 31.48C40.6302 32.38 39.9302 33.63 39.8702 34.63C39.8402 35.11 40.0602 35.64 40.5002 35.82C41.2502 36.14 41.9802 35.36 42.4202 34.67C43.1602 33.54 43.8902 32.4 44.6302 31.27C43.0602 35.73 38.6202 38.37 38.4502 43.47C38.4002 45.13 38.6802 46.78 38.9702 48.42C39.3402 50.56 39.7602 52.41 40.5302 54.4C40.9702 55.55 41.2502 56.77 41.6602 57.93C41.9702 58.82 42.8402 60.22 42.8402 61.14C43.5902 63.09 44.4402 65.01 45.0002 67.02C46.4002 72.02 45.9802 77.34 45.3102 82.5C45.0502 84.46 44.7602 86.42 44.5202 88.39C44.1302 91.59 43.8802 94.8 44.1502 98.01C44.4702 101.84 46.4702 109.7 51.4202 109.84C45.9402 109.68 38.5602 107.81 33.8602 105.01C22.6602 98.33 21.1202 81.3 22.2502 69.58C22.4302 67.78 22.6802 65.98 22.9302 64.19C23.3202 61.42 23.7102 58.65 24.1002 55.89C24.3102 54.39 24.5202 52.89 24.9002 51.43C25.5402 48.93 26.6602 46.55 28.1702 44.47C26.1002 47.32 24.2102 49.89 22.5402 53.03C20.6502 56.57 18.8402 60.16 17.1202 63.78C16.3502 65.4 15.5802 67.07 15.4002 68.86C15.1702 71.05 15.8402 73.19 16.0102 75.36C16.1402 77.02 15.7202 78.38 15.5702 80C14.9602 79.66 14.3002 79.49 13.6502 79.24C12.5302 78.81 11.5302 77.64 10.9702 76.59C10.8302 76.33 10.7302 76.06 10.6102 75.8C9.93016 74.21 8.81016 72.81 7.41016 71.79C8.59016 72.65 9.63016 73.21 10.4202 74.48C11.1702 75.69 11.7602 77.05 12.8702 77.95C12.9902 78.04 13.1102 78.14 13.2602 78.16C13.4802 78.2 13.7102 78.09 13.8802 77.94C14.3202 77.55 14.4702 76.93 14.5602 76.35C14.7202 75.28 14.5802 74.36 14.5402 73.32C14.5102 72.44 14.5102 71.41 13.8902 70.71C13.5602 70.34 12.9902 70.13 12.5502 70.36C13.5702 69.66 14.0202 68.4 14.4502 67.24C15.7202 63.76 17.6102 60.72 19.0402 57.36C22.6602 48.83 27.5502 39.54 33.6102 31.52V31.51Z" fill="url(#paint4_linear_27_19862)"/>
<path d="M54.69 31.51C54.9 28.28 55.72 25.11 56.99 22.12C58.47 18.64 60.58 14.91 62.85 11.91C65.39 8.55 68.64 6.36 71.54 3.44C67.77 7.24 64.32 11.44 62.07 16.3C60.2 20.34 59.36 24.64 59.62 29.08C59.86 33.06 60.85 34.93 63.3 38.2C65.77 41.49 68.79 44.32 71.27 47.6C75.64 53.37 78.3 59.76 78.85 67.01C79.42 74.39 77.47 81.7 77.57 89.06C77.65 95.05 81.1 100.67 84.96 105.02C87.1 107.43 90.03 109.41 93.25 109.36C85.61 109.53 77.95 106.99 71.67 102.68C69.27 101.04 66.97 99.02 65.9 96.31C64.62 93.06 65.55 89.7 65.58 86.38C65.61 82.74 65.83 79.09 66.13 75.44C66.62 69.34 67.06 63.83 65.64 57.76C64.57 53.19 62.71 49.07 60.46 44.98C58.38 41.2 54.86 38.81 54.66 34.22C54.62 33.32 54.63 32.43 54.69 31.54V31.51Z" fill="url(#paint5_linear_27_19862)"/>
<path d="M4.50999 75.15C5.97999 76.38 7.32999 77.75 8.51999 79.25C8.99999 79.85 9.47999 80.66 9.12999 81.35C8.78999 82.01 7.74999 82.18 7.12999 82.47C5.77999 83.11 2.03999 84.17 1.20999 82.2C0.649992 80.87 2.20999 79.19 3.44999 78.98C5.16999 78.69 2.34999 77.47 1.93999 77.23C0.949992 76.63 0.239992 75.61 0.399992 74.38C0.489992 73.72 1.08999 73.08 1.73999 73.21C1.97999 73.26 2.18999 73.39 2.38999 73.53C3.12999 74.04 3.83999 74.58 4.52999 75.15H4.50999Z" fill="url(#paint6_linear_27_19862)"/>
<path style="mix-blend-mode:screen" opacity="0.95" d="M101.82 53.8C101.51 54.23 101.18 54.63 100.8 55C100.39 55.41 99.9 55.78 99.33 55.89C99.84 55.46 100.76 55.69 101 56.31C101.49 57.56 98.92 58.81 97.98 58.75C98.51 58.78 99.03 58.81 99.56 58.85C100.33 59.35 100.38 60.47 100.12 61.35C99.73 62.7 99.64 64.33 98.77 65.42C97.35 67.2 95.78 68.85 94.21 70.5C94.79 70.1 95.38 69.71 95.96 69.31C96.36 69.04 96.77 68.76 97.24 68.64C99.29 68.11 99.48 71.23 98.43 72.26C97.97 72.71 97.38 73 96.79 73.28C95.95 73.69 95.11 74.09 94.26 74.5C95.35 73.97 96.75 74.14 97.68 74.92C99.26 76.22 98.97 77.66 97.78 78.91C98.57 78.97 99.71 79.44 100.06 80.19C100.37 80.84 100.19 81.69 99.65 82.17C99.11 82.65 98.24 82.71 97.64 82.33C98.49 82.31 99.4 82.3 100.11 82.77C101.5 83.7 101.53 85.81 102.34 87.15C103.53 89.11 105.75 90.34 107.01 92.24C105.8 88.77 104.39 85.38 102.81 82.06C102.21 80.79 101.57 79.53 101.09 78.21C99.45 73.71 99.69 68.69 100.88 64.05C102.07 59.41 104.18 55.06 106.26 50.75C107.26 48.68 108.27 46.61 109.55 44.7C107.25 45.07 105.58 47.07 104.44 49.1C103.56 50.67 102.86 52.37 101.82 53.81V53.8Z" fill="url(#paint7_radial_27_19862)"/>
<path d="M105.56 92.14C104.07 91.51 102.61 90.32 101.42 89.43C99.7801 88.2 98.2001 86.72 97.3201 84.83C97.1901 84.56 97.1001 84.2 97.3101 83.98C97.4201 83.87 97.5801 83.83 97.7301 83.8C98.1601 83.71 98.5901 83.61 99.0201 83.52C97.8101 83.28 96.6601 82.74 95.6901 81.97C95.1001 81.5 94.5401 80.87 94.5201 80.11C94.5001 79.35 95.3001 78.59 95.9901 78.91C95.3101 78.46 94.5201 78.19 93.8701 77.7C93.2201 77.21 92.7101 76.38 92.9501 75.6C93.2301 74.68 94.3401 74.34 95.2801 74.15C94.2201 74.29 92.4701 73.91 91.8601 72.9C91.2601 71.92 92.0101 70.76 92.7101 70.03C93.3401 69.36 94.0801 68.7 94.8901 68.27C94.2501 68.32 93.6001 68.31 92.9601 68.21C92.6001 68.15 92.1501 67.96 92.1701 67.59C92.1701 67.43 92.2801 67.29 92.4001 67.17C92.7001 66.85 93.0901 66.63 93.5001 66.49C93.4501 66.47 93.4201 66.44 93.4001 66.38C93.3501 66.2 93.4901 66.03 93.6201 65.9C93.7501 65.77 93.8501 65.66 93.8501 65.48C91.9201 66.22 92.1201 63.78 92.9901 62.91C94.1901 61.71 95.6401 60.85 96.8901 59.76C95.9301 60.59 94.4701 60.78 93.8201 59.49C93.2301 58.33 93.9201 56.59 94.4001 55.48C95.5701 52.72 97.8301 50.48 100.3 48.84C98.2201 50.23 96.1201 51.63 94.3401 53.4C92.6501 55.08 91.1501 57.19 89.9301 59.24C89.7401 59.55 89.5301 59.88 89.3101 60.2C89.2301 60.43 89.1401 60.66 89.0701 60.89C87.4701 66.17 88.6901 71.88 90.3201 77.15C90.9001 79.04 91.5501 80.93 92.3501 82.74C93.0601 84.35 93.8601 86.44 95.2101 87.6C96.9001 89.06 99.1601 90.17 101.2 91.04C102.76 91.71 104.82 93.04 106.59 92.72C106.72 92.7 106.86 92.65 106.92 92.53C106.47 92.47 106.02 92.33 105.57 92.14H105.56Z" fill="url(#paint8_linear_27_19862)"/>
<g opacity="0.3">
<path d="M73.0901 111.59C72.1701 111.44 70.9701 110.81 71.3101 109.94C71.4401 109.59 71.8001 109.38 72.1401 109.2C75.9401 107.25 80.3301 106.46 84.5701 106.96C83.2501 106.79 80.6601 106.06 80.3101 104.53C80.0101 103.24 81.3601 102.15 82.5601 102.29C81.5501 101.86 81.5301 100.75 81.5901 99.8C81.8801 95.77 82.6801 91.84 83.1701 87.85C81.7701 89.66 80.4901 91.58 79.0601 93.38C77.9601 94.77 76.7901 96.15 75.2901 97.1C73.8901 97.98 72.2701 98.44 70.6501 98.77C63.0201 100.3 54.8601 98.89 48.1201 95.03C46.8601 94.31 44.5201 91.87 43.1301 91.9C42.0001 91.92 39.8601 93.86 38.5501 94.21C35.2901 95.08 31.6201 94.57 28.7801 92.75C24.0001 89.69 21.6401 83.59 22.3101 77.96C21.7101 80.72 18.9301 85 15.9301 83.85C15.6301 83.74 15.3501 83.55 15.0801 83.32C14.1901 82.58 13.3901 81.42 12.2101 81C11.2701 80.66 8.61006 81.11 8.06006 80.75C8.43006 81 8.76006 81.3 9.10006 81.57C9.28006 81.54 9.45006 81.52 9.61006 81.53C9.78006 81.53 9.93006 81.56 10.0801 81.63C14.7101 83.69 16.4501 87.98 18.6901 92.14C19.2801 93.25 19.9601 94.29 20.6401 95.32C23.1301 98.51 26.4901 101.04 30.0001 103.05C30.0301 103.16 30.0701 103.26 30.0901 103.34C31.1401 106.86 31.6901 110.5 32.5401 114.08C32.6601 114.59 32.7901 115.11 32.9301 115.62C33.8001 113.28 35.8301 111.33 38.2701 111.43C38.3401 111.43 38.4001 111.45 38.4601 111.45C37.2301 109.7 36.1901 107.89 35.8101 105.89C36.1001 106.01 36.3901 106.12 36.6801 106.24C37.8301 108.25 39.0501 110.23 40.4401 112.05C40.8601 112.28 41.2601 112.55 41.6301 112.87C41.6801 112.3 41.8901 111.66 42.3301 110.92C42.7101 110.28 43.1601 109.84 43.6601 109.56C43.0201 109.03 42.3901 108.49 41.7501 107.96C44.3001 108.67 46.9001 109.17 49.5301 109.47C51.1101 110.81 52.4201 111.73 53.9701 112.46C54.5801 112.72 55.1901 112.96 55.8001 113.19C56.3501 113.37 56.9201 113.55 57.5601 113.72C61.9901 114.89 66.6401 115.2 71.2001 114.88C78.0001 114.42 84.6401 112.66 91.1801 110.69C85.3001 112.25 79.0901 112.57 73.0901 111.6V111.59Z" fill="#004C77"/>
</g>
<g opacity="0.31">
<path d="M90.8601 79.27C89.2301 74.96 88.1401 70.45 87.8901 65.86C87.8401 64.94 87.8301 64 88.0301 63.1C88.3901 61.5 89.3901 60.33 90.3601 59.06C91.1401 58.04 91.5601 56.88 92.3901 55.87C93.9301 53.98 95.7401 52.35 97.6001 50.78C99.2701 49.37 101.27 48.75 103.02 47.55C100.71 49.15 98.9201 51.4 97.4101 53.76C96.6501 54.95 95.9401 56.2 95.6801 57.58C95.4201 58.96 95.6701 60.51 96.6301 61.53C95.3701 62.08 93.4801 64.48 94.6101 65.88C95.3801 66.83 98.9601 66.27 99.8101 65.72C98.3101 66.69 96.6101 67.79 95.4101 69.13C93.9301 70.78 95.6501 71.63 97.3601 71.99C98.0301 72.13 98.6901 72.27 99.3601 72.4C97.3001 71.98 92.4501 74.33 95.1001 76.67C96.3201 77.75 97.8901 78.44 99.5201 78.6C98.5901 78.53 97.6701 79.3 97.5801 80.24C97.5401 80.68 97.4001 81.31 97.6201 81.7C98.3001 82.89 99.7801 83.55 101.11 83.27C100.77 83.75 99.8801 83.86 99.9101 84.44C99.9201 84.62 100.03 84.77 100.14 84.91C100.6 85.51 101.11 86.07 101.68 86.57C102.07 86.92 102.68 87.25 103.08 86.91C103.41 86.63 103.33 86.1 103.21 85.68C102.75 84.02 102.12 82.42 101.63 80.77C101.27 79.57 101.47 78.32 100.7 77.24C101.11 79.04 102.06 80.46 102.7 82.13C103.61 84.51 104.65 86.84 105.84 89.1C106.3 90.26 106.71 91.41 106.89 92.63C104.76 92.71 102.54 92.1 100.83 90.85C99.3601 89.77 97.5101 89.46 96.0501 88.32C94.4601 87.09 93.4701 85.24 92.6201 83.42C91.9901 82.06 91.4001 80.68 90.8701 79.27H90.8601Z" fill="#004C77"/>
</g>
<path style="mix-blend-mode:screen" opacity="0.44" d="M29.0801 70.86C29.2301 75.01 29.7401 79.13 31.0301 83.23C31.9501 86.16 33.1601 88.99 34.3601 91.82C36.9801 97.97 39.8001 104.39 45.0201 108.57C40.6601 103.99 40.1401 97.01 40.5301 90.69C40.9201 84.22 44.2601 76.25 43.2501 70.06C42.1801 63.52 37.6101 58.01 37.0401 51.15C36.4801 44.3 36.3701 36.51 39.0801 30.08C34.3401 39.25 29.7801 49.18 29.2901 59.66C29.1101 63.42 28.9501 67.15 29.0801 70.86Z" fill="url(#paint9_radial_27_19862)"/>
<path style="mix-blend-mode:screen" opacity="0.95" d="M49.7801 23.38C49.4601 23.55 49.1301 23.66 48.7901 23.71C48.7201 20.13 51.5201 17.23 54.1301 14.77C46.2801 22.17 39.1901 29.85 33.8301 39.31C32.1701 42.24 30.7401 45.3 29.5701 48.46C29.8101 46.86 31.1001 45.64 32.3201 44.56C34.3301 42.77 36.0901 41.26 38.4901 40.06C42.4201 37.86 46.7901 36.42 51.2201 35.65C59.6501 34.18 69.5501 35.15 74.2701 43.27C71.7501 38.94 65.9601 37.35 64.6601 32.33C63.7201 28.7 62.9701 24.87 63.8901 21.23C65.2101 16.01 65.6101 10.85 68.4401 6.07C63.6901 11.35 63.2401 19.11 60.4601 25.64C60.0901 26.51 58.7801 29.13 57.6101 29.15C55.9201 29.18 56.4301 26.78 56.7601 25.63C57.1601 24.25 57.5601 22.86 57.9601 21.48C56.9401 23.91 55.7701 26.28 54.4501 28.57C54.5101 28.47 53.7401 26.76 53.7001 26.38C53.6001 25.37 53.9001 24.25 54.1401 23.28C54.5801 21.49 55.2601 19.71 56.1201 18.08C57.6401 15.2 59.7601 12.67 61.9501 10.27C63.3401 8.74 64.8501 7.21 66.7901 6.51C63.1501 7.81 59.4301 11.74 56.8601 14.51C54.8901 16.64 52.5801 21.93 49.7901 23.37L49.7801 23.38Z" fill="url(#paint10_radial_27_19862)"/>
<path opacity="0.35" d="M51.8801 110.72C52.7401 111.05 53.6501 111.22 54.5801 111.16C53.6801 111.02 52.7801 110.87 51.8801 110.72Z" fill="#B01C19"/>
<path opacity="0.35" d="M106.71 92.71C105.71 92.5 104.72 92.08 103.8 91.61C99.2102 89.27 95.4702 85.99 92.0302 82.2C89.0602 78.93 82.6202 70.47 83.7302 65.72C84.0102 64.54 84.8502 63.67 85.8602 62.97C85.5902 63 85.3102 62.99 85.0202 62.93C84.0702 62.71 83.4602 62.04 83.0302 61.17C82.2002 59.98 81.9002 58.47 81.7102 57.01C81.5402 55.73 81.2502 54.41 80.8602 53.1C79.3302 48.59 76.7102 43.96 73.3402 41.32C71.4402 39.84 69.3502 38.56 67.7702 36.75C66.6302 35.45 65.7702 34.05 65.1302 32.6C64.8102 31.96 64.5102 31.28 64.2502 30.55C64.9302 33.4 66.1602 36 67.6402 38.51C71.8202 45.58 76.8602 51.16 77.9102 59.6C78.5502 64.74 78.3902 69.97 77.4202 75.06C77.1902 76.26 74.6102 88.11 72.8802 82.34C71.0302 76.13 72.4502 69.45 71.9902 62.99C71.4502 55.47 68.2302 48.18 63.0502 42.71C60.1202 39.62 56.4902 36.94 54.9602 32.97C53.5802 36.55 55.9402 40.39 58.1802 43.51C61.7402 48.46 62.9602 52.69 63.7302 58.81C64.5102 65 64.3402 71.27 64.1502 77.5C64.0302 81.26 63.8902 85.11 62.4802 88.59C59.7802 95.26 51.1502 98.79 47.7902 90.46C46.2502 86.63 47.7802 83.06 48.3402 79.32C48.9802 75.03 48.2402 69.63 46.7302 65.59C44.2702 58.98 38.4602 53.79 37.0402 46.88C39.8402 55.25 42.5902 64.23 43.0202 73.06C43.3002 78.89 41.7702 85.04 38.2802 89.82C36.4302 92.35 33.5302 94.34 30.3902 94.26C29.0502 94.23 27.6702 93.79 26.7402 92.82C26.0702 92.12 25.6802 91.21 25.3402 90.3C22.7002 83.14 22.8202 75.3 22.9702 67.68C21.6702 69.36 21.6602 71.67 21.7002 73.8C21.8202 79.92 21.4302 85.58 23.7102 91.51C26.1802 97.93 29.8802 102.84 35.8502 106.03C35.8402 105.98 35.8202 105.93 35.8102 105.88C36.1002 106 36.3902 106.11 36.6802 106.23C36.7402 106.34 36.8102 106.44 36.8702 106.55C37.0902 106.66 37.2902 106.78 37.5202 106.88C39.2002 107.63 40.9302 108.23 42.6902 108.74C42.3802 108.48 42.0602 108.21 41.7502 107.95C44.3002 108.66 46.9002 109.16 49.5302 109.46C50.0002 109.86 50.4502 110.22 50.8902 110.55C51.2202 110.61 51.5502 110.66 51.8802 110.72C49.6302 109.86 47.7902 107.83 47.4202 105.43C47.3502 104.96 47.3302 104.44 47.5902 104.04C47.9302 103.52 48.6102 103.36 49.2302 103.25C58.2502 101.74 66.6702 102.99 75.0802 105.61C76.4502 106.03 77.8102 106.5 79.1802 106.99C83.0102 108.36 87.2302 109.43 91.3202 109.49C90.3202 109.15 89.3202 108.82 88.3302 108.48C88.0302 108.38 87.7302 108.28 87.4502 108.15C80.0402 104.71 81.5502 95.45 82.9202 89.04C83.3602 86.99 83.7002 84.93 83.6602 82.87C83.6602 82.46 83.6302 82.05 83.5902 81.64C83.5102 80.82 83.3702 80 83.1402 79.18C82.4702 76.81 82.0302 75.06 85.1902 77.17C86.4302 78 87.1202 79.41 87.9302 80.66C88.4902 81.22 88.9102 82.01 89.4302 82.63C89.8302 83.1 90.2602 83.54 90.7002 83.98C90.8602 84.14 91.0202 84.29 91.1802 84.45C92.2402 85.46 93.3602 86.42 94.4702 87.36C96.3802 88.97 98.8802 89.66 101.06 90.9C101.37 91.08 105.67 93.01 106.7 92.72L106.71 92.71Z" fill="#B01C19"/>
<path opacity="0.35" d="M41.4902 59.97C41.2802 58.21 41.1002 56.44 41.0302 54.67C40.7502 56.49 40.9802 58.24 41.4902 59.97Z" fill="#B01C19"/>
<path style="mix-blend-mode:screen" d="M26.18 72.93C24.24 64.86 25.03 56.12 29.05 48.8C33.93 39.89 40.91 36.95 50 33.73C53.96 32.33 62.77 29.4 62.7 23.68C62.75 27.45 62.88 31.48 65.07 34.54C67.11 37.38 70.58 38.72 72.7 41.45C74.71 44.04 76.29 47.65 77.71 50.63C83.96 63.7 82.61 84.5 70.05 93.46C69.15 94.1 68.2 94.68 67.14 94.98C66.17 95.26 65.14 95.3 64.13 95.33C60.57 95.43 57.01 95.4 53.46 95.24C40.94 94.69 29.13 85.17 26.18 72.92V72.93Z" fill="url(#paint11_radial_27_19862)"/>
<path opacity="0.42" d="M14.3601 75.55C14.2601 75.69 14.1501 75.82 14.0301 75.95C13.7801 76.22 13.4501 76.45 13.0801 76.45C12.8101 76.45 12.5501 76.3 12.3201 76.15C11.3501 75.53 10.5001 74.73 9.83009 73.8C9.47009 73.3 9.14009 72.75 8.65009 72.39C7.63009 71.65 5.57009 72.6 4.34009 72.57C5.51009 72.6 6.74009 72.88 7.60009 73.68C8.50009 74.51 8.89009 75.75 9.61009 76.73C11.4401 79.24 15.2601 79.9 16.6601 82.68C15.8501 81.08 16.3001 79.03 16.2101 77.32C16.0901 74.93 15.6601 72.55 14.9201 70.27C15.2901 72.05 15.3801 74.1 14.3601 75.54V75.55Z" fill="#B01C19"/>
<path opacity="0.5" fill-rule="evenodd" clip-rule="evenodd" d="M83.6001 86.99C83.5001 89.86 82.6701 92.66 82.3101 95.51C81.9501 98.36 82.1201 101.47 83.8001 103.8C80.5801 101.29 78.7101 97.37 77.9001 93.37C77.0901 89.37 77.2301 85.25 77.3801 81.17C77.6201 83.9 78.0401 86.62 78.6601 89.29C78.7601 89.72 79.0401 90.27 79.4701 90.16C79.6601 90.11 79.7901 89.94 79.8901 89.78C82.7701 85.37 80.2901 79.87 82.2501 75.34C83.2701 76.46 82.9001 78.93 83.0501 80.38C83.2901 82.58 83.6601 84.77 83.5901 86.99H83.6001Z" fill="#C71E1E"/>
<path style="mix-blend-mode:screen" d="M9.11005 77.67C8.22005 77.94 7.28005 78.05 6.35005 77.98C4.07005 77.79 -2.94995 74.79 1.93005 72.93C4.26005 72.04 6.83005 72.15 9.26005 71.84C11.83 71.51 14.05 69.37 14.69 66.9C15.07 68.42 15.6 70.43 15.21 72C14.81 73.63 13.11 75.35 11.81 76.31C11 76.92 10.08 77.39 9.11005 77.68V77.67Z" fill="url(#paint12_radial_27_19862)"/>
<path opacity="0.53" d="M54.1201 42.31C51.4401 42.32 48.7501 42.54 46.0801 42.78C43.7101 42.99 41.2901 43.22 39.1001 44.15C36.9101 45.08 34.9301 46.84 34.3401 49.15C34.1401 49.92 34.1101 50.76 34.4101 51.5C34.9801 52.9 36.6401 53.59 38.1501 53.53C39.6601 53.46 41.0701 52.8 42.4401 52.18C51.8001 47.96 63.5301 44.64 73.5001 48.8C71.5001 48.66 69.8901 46.15 68.0201 45.13C65.5001 43.75 62.5501 43.06 59.7201 42.67C57.8601 42.41 56.0001 42.32 54.1301 42.33L54.1201 42.31Z" fill="white"/>
<path opacity="0.3" d="M98.0501 88.17C97.0801 87.14 96.2402 85.95 95.4401 84.79C92.9001 81.1 89.4201 77.64 89.4201 72.83C89.4201 71.48 89.7501 70.15 90.4501 68.99C88.9801 71.45 84.9601 70.95 83.1101 68.77C81.2801 66.61 80.8901 63.47 80.7701 60.74C80.5401 69.64 77.4801 80 69.3601 84.78C66.9001 86.23 64.1202 87.06 61.3102 87.54C45.5602 90.23 35.2701 84.72 28.8001 71.15C30.7801 75.3 29.5601 80.19 28.3101 84.61C27.2401 88.39 24.6501 92.92 19.8801 90.16C18.0901 89.12 16.9601 87.27 15.9001 85.49C18.6501 90.12 21.0501 95.29 25.8801 98.26C27.2101 99.08 28.6701 99.65 30.1301 100.17C46.8301 106.19 65.7001 106.77 81.4901 97.69C82.0301 94.82 82.3101 91.91 82.9301 89.03C83.6301 85.75 84.0801 82.45 83.1501 79.17C82.4801 76.8 82.0401 75.05 85.2001 77.16C86.4401 77.99 87.1301 79.4 87.9401 80.65C88.8502 82.04 89.9602 83.28 91.1601 84.42C92.5602 85.77 94.0601 87.21 95.7501 88.22C97.6201 89.33 99.6801 90.07 101.76 90.68C100.31 90.2 99.1002 89.28 98.0501 88.16V88.17Z" fill="#2A1F60"/>
<path d="M24.7701 99.8C25.8701 100.64 27.0901 101.32 28.2001 102.15C29.5201 103.15 30.2001 104.08 30.6601 105.67C31.3501 108.03 31.6401 110.46 32.2501 112.83C32.5801 114.13 32.9701 115.46 33.7901 116.53C33.3201 115.99 33.2401 114.3 33.0701 113.59C32.8301 112.56 32.6001 111.52 32.4001 110.48C32.1301 109.07 31.9801 107.65 31.9901 106.21C31.9901 105.97 32.0201 105.68 32.2301 105.55C32.3201 105.49 32.4401 105.48 32.5501 105.48C33.7201 105.43 34.8301 106.18 35.9901 106.05C35.4901 105.95 34.9901 105.85 34.5201 105.65C33.0601 105.03 31.5701 103.92 30.2901 102.97C28.9301 101.97 27.6401 100.86 26.4701 99.63C24.6901 97.77 22.6201 96.21 20.8801 94.27C20.2301 93.55 19.5901 92.82 19.0201 92.05C18.4301 91.26 17.9101 90.41 17.4001 89.57C16.8701 88.71 16.3501 87.85 15.8201 86.99C16.7901 88.29 17.4001 89.81 18.1301 91.26C19.5901 94.16 21.5501 96.8 23.9001 99.04C24.1701 99.3 24.4701 99.55 24.7801 99.78L24.7701 99.8Z" fill="#29CCE5"/>
<path d="M82.1201 95.41C81.9501 96.7 81.7901 98.01 82.0501 99.28C82.4601 101.24 83.8501 103.27 85.1301 104.77C85.8901 105.66 86.6501 106.72 87.6601 107.33C88.8201 108.03 90.1001 108.5 91.3701 108.96C92.1901 109.25 93.0101 109.55 93.8301 109.84C92.0901 109.22 90.3301 110.2 88.6401 109.59C87.0501 109.01 86.1801 107.81 85.0901 106.61C81.2801 102.41 80.0901 97.64 81.5801 92.18C82.8101 87.67 83.4101 82.65 82.8601 78C83.2101 80.93 83.8401 83.71 83.5701 86.75C83.3101 89.66 82.4801 92.5 82.1001 95.4L82.1201 95.41Z" fill="#29CCE5"/>
<path opacity="0.53" d="M32.1799 74.54C37.9199 69.27 44.9799 65.44 52.5299 63.52C51.6699 69.96 47.8099 77.37 43.5199 82.17C43.3599 82.35 43.1799 82.54 42.9399 82.61C42.6699 82.69 42.3699 82.61 42.0999 82.53C37.6499 81.18 32.5499 81.38 28.4399 79.08C29.1999 77.31 30.7499 75.85 32.1699 74.55L32.1799 74.54Z" fill="white"/>
<g opacity="0.31">
<path d="M48.8 65.46C45.97 66.85 43.18 68.32 40.43 69.87C38.96 70.7 37.45 71.6 36.57 73.04C40.33 72.85 44.09 72.54 47.83 72.1C45.32 72.45 42.84 72.92 40.38 73.52C38.52 73.97 36.5 74.63 35.56 76.29C39.43 76.73 43.27 77.35 47.08 78.14C43.91 77.88 40.73 77.72 37.55 77.66C37.11 77.66 36.66 77.66 36.27 77.84C35.88 78.03 35.58 78.48 35.7 78.9C35.8 79.23 36.13 79.44 36.43 79.61C38.53 80.82 40.69 81.91 42.9 82.89C38.09 81.46 33.22 80.25 28.3 79.26C28.25 79.25 30.32 76.16 30.59 75.87C31.67 74.71 32.98 73.78 34.19 72.76C39.34 68.38 45.17 65.41 51.82 64.01C50.81 64.48 49.81 64.96 48.81 65.46H48.8Z" fill="#43A8DD"/>
</g>
<path d="M33.98 73.48C35 72.53 36.03 71.58 37.25 70.9C35.48 72.17 33.84 73.6 32.35 75.18C32.02 75.53 31.68 75.94 31.74 76.42C31.81 77.09 32.59 77.4 33.24 77.58C32.67 77.77 32.5 78.57 32.77 79.11C33.04 79.65 33.58 79.99 34.1 80.31C34.67 80.66 35.25 81.01 35.82 81.36C34.54 80.58 33.07 80.77 31.67 80.49C30.38 80.23 29.33 79.49 28.02 79.16C28.66 78.01 29.49 77.52 30.4 76.69C31.59 75.62 32.81 74.58 33.98 73.49V73.48Z" fill="url(#paint13_linear_27_19862)"/>
<g opacity="0.33">
<path d="M33.9401 83.39C35.0201 84.11 36.1001 84.83 37.1701 85.56C37.6101 85.86 38.8101 87.09 39.3901 87.03C40.0001 86.96 42.7101 82.78 42.7501 82.79C42.3501 82.59 41.9301 82.51 41.4901 82.41C37.1201 81.42 32.7501 79.67 28.3101 79.12C30.0201 80.76 31.9901 82.07 33.9401 83.39Z" fill="#06233B"/>
</g>
<path style="mix-blend-mode:multiply" d="M22.01 69.7C24.12 70.52 26.38 70.35 28.22 69.03C31.57 66.62 33.55 61.94 32.98 57.84C32.83 56.79 32.35 55.81 31.87 54.86C32.01 56.04 32.04 57.24 31.87 58.42C31.55 60.64 30.48 62.73 28.91 64.32C28.33 64.91 27.71 65.7 26.96 66.07C25.89 66.6 24.48 66.78 23.3 66.74C20.55 66.65 17.07 64.81 16.11 62.15C15.76 61.18 15.41 60.2 15.25 59.19C15.42 61.09 15.68 62.71 16.44 64.45C17.4 66.62 19.56 68.75 22 69.7H22.01Z" fill="url(#paint14_linear_27_19862)"/>
<path opacity="0.59" d="M19.82 65.33C23.35 67.21 27.64 67.42 30.65 64.06C28.16 66.85 25.5 69.49 21.27 68.2C17.28 66.98 17.02 64.02 15.04 61.09C16.19 62.79 17.89 64.31 19.82 65.33Z" fill="#0D4188"/>
<path d="M15.23 56.35C14.1 60.88 17.09 65.53 21.89 66.73C26.7 67.93 31.51 65.21 32.64 60.68C33.77 56.15 30.78 51.5 25.97 50.3C21.17 49.11 16.36 51.82 15.23 56.35Z" fill="url(#paint15_radial_27_19862)"/>
<path d="M15.5701 57.38C14.6901 60.93 17.0201 64.56 20.7701 65.49C24.5301 66.42 28.2801 64.31 29.1701 60.76C30.0501 57.22 27.7201 53.59 23.9701 52.66C20.2101 51.73 16.4501 53.84 15.5801 57.38H15.5701Z" fill="url(#paint16_radial_27_19862)"/>
<path opacity="0.73" d="M28.3201 60.58C28.7401 59.62 29.0401 58.03 28.6201 57.01C29.7501 59.71 29.0301 62.53 26.7701 64.38C24.1401 66.52 19.6701 65.99 17.2901 63.54C15.7801 61.99 15.6501 59.9 15.5801 57.94C16.5301 61.1 18.7801 63.56 22.3401 64.14C24.9501 64.56 27.3501 62.77 28.3201 60.57V60.58Z" fill="#9B9FA2"/>
<path d="M16.0702 56.37C15.1402 57.8 15.5502 59.73 16.9902 60.67C18.4302 61.61 20.3602 61.2 21.2902 59.77C22.2302 58.33 21.8202 56.4 20.3802 55.46C18.9402 54.52 17.0102 54.92 16.0702 56.36V56.37Z" fill="url(#paint17_radial_27_19862)"/>
<path d="M18.6801 61.34C18.0501 61.34 17.4401 61.16 16.9001 60.81C15.3901 59.83 14.9501 57.8 15.9301 56.29C16.9101 54.78 18.9501 54.36 20.4601 55.34C21.1901 55.82 21.7001 56.55 21.8801 57.4C22.0601 58.25 21.9001 59.13 21.4201 59.86C20.9501 60.59 20.2101 61.09 19.3601 61.27C19.1301 61.32 18.9101 61.34 18.6801 61.34ZM16.2001 56.46C15.3201 57.82 15.7101 59.66 17.0801 60.55C17.7401 60.98 18.5301 61.13 19.3001 60.97C20.0701 60.81 20.7301 60.36 21.1601 59.7C21.5901 59.04 21.7401 58.25 21.5701 57.48C21.4101 56.71 20.9501 56.05 20.2901 55.62C18.9201 54.73 17.0801 55.11 16.1901 56.48L16.2001 56.46Z" fill="#3B2314"/>
<path d="M15.96 56.84C15.33 57.81 15.6 59.1 16.58 59.74C17.55 60.37 18.85 60.1 19.48 59.13C20.11 58.16 19.84 56.86 18.86 56.23C17.89 55.6 16.59 55.87 15.96 56.84Z" fill="#000F24"/>
<path d="M15.48 57.5C15.32 57.74 15.39 58.07 15.63 58.22C15.88 58.38 16.2 58.31 16.35 58.07C16.51 57.83 16.45 57.5 16.2 57.34C15.96 57.18 15.63 57.25 15.47 57.5H15.48Z" fill="white"/>
<path d="M20.54 59.14C20.2 59.67 20.35 60.38 20.88 60.73C21.41 61.08 22.13 60.92 22.47 60.4C22.81 59.87 22.67 59.16 22.13 58.82C21.6 58.47 20.89 58.62 20.54 59.15V59.14Z" fill="white"/>
<path d="M18.95 58.75C18.78 59.01 18.86 59.35 19.11 59.52C19.37 59.69 19.71 59.61 19.88 59.35C20.05 59.09 19.98 58.75 19.72 58.58C19.46 58.41 19.12 58.48 18.95 58.74V58.75Z" fill="white"/>
<path d="M29.83 55.18C28 52.66 23.69 49.35 20.28 50.65C27.57 47.82 35.19 54.86 32.28 61.75C31.84 62.86 30.92 64.24 29.95 64.98C32.68 62.92 31.56 57.55 29.83 55.18Z" fill="url(#paint18_linear_27_19862)"/>
<path d="M28.6899 62.21C29.5699 60.52 29.7299 58.15 28.6599 56.45C30.2999 59.21 29.7899 62.8 27.4399 64.91C25.2399 66.89 21.5499 66.67 18.9599 65.27C17.3699 64.4 16.5399 63.01 15.8699 61.44C17.4599 63.97 19.5399 65.74 22.7699 65.67C25.2599 65.61 27.5799 64.33 28.6999 62.21H28.6899Z" fill="#29CCE5"/>
<path d="M26.1601 59.38C25.9201 60.35 26.5501 61.34 27.5801 61.59C28.6001 61.84 29.6201 61.27 29.8701 60.3C30.1101 59.34 29.4701 58.35 28.4501 58.09C27.4301 57.84 26.4001 58.41 26.1601 59.38Z" fill="white"/>
<path d="M27.1101 56.22C26.4701 57.72 24.9801 55.58 24.1401 55.03C21.9101 53.57 19.1001 53.23 17.0901 55.03C18.2001 54.04 18.0101 53.29 19.7801 52.73C20.8901 52.38 21.6801 52.26 22.8801 52.47C24.4901 52.74 27.7901 53.8 27.2201 55.93C27.1901 56.05 27.1601 56.15 27.1201 56.24L27.1101 56.22Z" fill="white"/>
<g opacity="0.55">
<path d="M54.4702 112.51C56.2602 113.28 58.2202 113.78 60.3502 114.25C62.5002 114.73 64.7202 114.7 66.9202 114.59C71.5102 114.35 76.0802 113.77 80.5802 112.85C78.1102 112.08 75.4502 112.52 72.8602 112.74C66.3502 113.28 60.3502 111.7 54.0302 110.53C51.9002 110.13 49.6602 109.34 48.4502 107.54C50.1402 110.04 52.1502 111.51 54.4602 112.51H54.4702Z" fill="#004C77"/>
</g>
<path d="M2.86007 77.81C3.36007 78.06 3.96007 78.31 4.08007 78.84C4.08007 78.49 3.89008 78.16 3.64008 77.92C3.39008 77.68 3.08008 77.5 2.79008 77.31C2.03008 76.83 1.25008 76.1 0.900075 75.25C0.690075 74.73 0.970075 73.25 1.52008 72.97C1.04008 73.22 0.540075 73.49 0.230075 73.94C-0.779925 75.4 1.75007 77.26 2.86007 77.8V77.81Z" fill="#29CCE5"/>
<path d="M1.91006 79.98C1.28006 80.53 0.870063 81.45 1.21006 82.21C1.51006 82.87 2.26006 83.21 2.98006 83.31C4.69006 83.57 6.41006 82.91 7.95006 82.11C8.67006 81.74 9.50006 81.32 10.2601 81.61C9.76006 81.1 8.93006 81.07 8.24006 81.29C7.56006 81.51 6.96006 81.93 6.31006 82.23C5.54006 82.59 4.69006 82.78 3.84006 82.78C3.15006 82.78 2.41006 82.65 1.90006 82.18C1.39006 81.72 1.19006 80.85 1.63006 80.32C1.40006 80.52 1.25006 80.82 1.24006 81.13L1.91006 79.98Z" fill="#29CCE5"/>
<path style="mix-blend-mode:screen" opacity="0.95" d="M53.0201 12.7C39.9401 21.59 31.2201 35.05 23.6201 48.55C25.9901 48.03 28.5801 48.66 30.4301 50.22C30.4301 45.18 35.2501 41.64 39.5901 39.08C43.5101 36.77 47.5801 34.5 52.0601 33.72C56.2301 32.99 60.4901 33.6 64.6801 34.21C60.1801 33.55 53.9501 34 50.7201 30.14C46.2401 24.79 51.5001 17.41 55.4501 13.46C60.2301 8.7 67.7801 3.66 74.4601 2.28C70.6601 3.06 66.3801 4.34 62.9401 6.3C59.3601 8.34 56.4501 10.35 53.0101 12.69L53.0201 12.7Z" fill="url(#paint19_radial_27_19862)"/>
<path style="mix-blend-mode:screen" opacity="0.95" d="M38.17 121.08C38.3 121.96 38.44 122.85 38.82 123.66C39.23 124.53 39.89 125.26 40.54 125.97C44.14 129.89 45.22 123 44.34 120.45C43.74 118.73 40.77 112.95 38.45 114.07C36.4 115.05 37.93 119.48 38.18 121.09L38.17 121.08Z" fill="url(#paint20_radial_27_19862)"/>
<path style="mix-blend-mode:screen" opacity="0.95" d="M49.46 117.9C50.04 117.67 50.5 117.15 50.46 116.54C50.42 116.01 50.04 115.57 49.67 115.18C48.83 114.28 44.84 109.8 44.13 113.1C43.8 114.61 45.43 116.16 46.51 117C47.18 117.52 47.93 118.01 48.78 118.02C49.01 118.02 49.25 117.98 49.47 117.89L49.46 117.9Z" fill="url(#paint21_radial_27_19862)"/>
<path d="M105.15 92.85C105.71 93.01 107.04 92.88 107.36 92.39C103.02 92.06 99.51 88.95 95.83 86.63C94.54 85.82 93.19 85.09 91.95 84.2C90.14 82.91 88.57 81.29 87.28 79.48C89.21 82.12 90.92 84.76 93.6 86.69C97.29 89.35 100.78 91.61 105.15 92.84V92.85Z" fill="#29CCE5"/>
<path style="mix-blend-mode:screen" opacity="0.95" d="M97.6902 67.74C97.9802 61.44 98.2602 55.52 101.93 50.11C103.14 48.33 104.68 46.8 106.24 45.31C103.55 46.33 101.16 48.25 98.7902 49.85C97.0502 51.03 95.6202 52.29 94.4102 53.51C93.2002 54.91 92.0702 56.39 90.8702 57.8C90.1602 58.83 89.6402 59.69 89.3002 60.19C87.8502 62.18 86.0002 63.79 84.2002 62.56C83.1902 62.68 82.4402 62.23 82.4802 60.59C82.3102 67 84.3202 73.44 88.1002 78.61C88.8602 79.65 89.7202 80.67 90.8602 81.27C92.0002 81.88 93.4702 82 94.5402 81.28C95.6702 80.53 96.0802 79.09 96.3602 77.76C97.0702 74.46 97.5102 71.1 97.6602 67.73L97.6902 67.74Z" fill="url(#paint22_radial_27_19862)"/>
<path style="mix-blend-mode:screen" opacity="0.95" d="M25.8301 100.53C29.1401 102.74 30.0801 104.02 35.9701 106.47C35.9401 106.35 35.9001 106.24 35.8701 106.12C36.1301 106.22 36.5701 106.39 36.8301 106.5C36.9101 106.63 36.9901 106.77 37.0701 106.9C38.9201 107.62 40.7901 108.23 42.7101 108.76C42.5701 108.64 42.4301 108.52 42.2801 108.4C44.8501 109.1 47.4801 109.55 49.8701 109.74C61.5001 119.39 81.8001 113.59 94.0701 109.79C93.5801 109.64 93.0901 109.49 92.5901 109.33C92.6701 109.33 92.7401 109.33 92.8201 109.33C92.8201 109.33 92.7401 109.41 90.7001 108.65C89.6201 108.35 88.5501 108.03 87.4701 107.64C83.6301 106.27 81.1401 101.07 81.6201 97.12C82.4901 90.05 84.4301 87.26 83.2401 79.62C83.0801 78.97 82.3801 76.88 82.7901 76.36C83.2101 75.83 84.6201 76.77 85.1801 77.14C86.4201 77.97 87.1101 79.38 87.9201 80.63C88.3601 81.31 88.8601 81.95 89.3901 82.56C90.9201 84.32 92.6901 85.83 94.4501 87.31C94.8601 87.65 95.2601 87.9 95.6601 88.15C95.8201 88.25 95.9801 88.36 96.1501 88.46C97.7201 89.34 99.4701 89.96 101.06 90.86C101.42 91.07 107.26 93.69 106.92 92.33C106.92 92.33 106.81 91.98 106.8 91.92C105.41 86.85 102.35 82.52 100.98 77.5C97.6801 65.42 104.66 53.49 109.84 44.55C105.57 44.59 102.17 47.54 98.7901 49.82C92.9701 53.76 90.3601 58.6 89.3001 60.17C87.7401 62.31 85.7201 64.05 83.8001 62.25C82.7101 61.23 82.3301 59.32 82.0601 57.72C79.5201 43.03 70.9901 40.44 67.7701 36.73C56.4301 23.72 71.5801 1.48 80.8801 -0.0200005C76.6601 0.66 72.2701 1.89 67.9201 3.69C67.7101 3.78 67.5001 3.88 67.2801 3.97C43.3401 14.2 29.5001 36.39 18.8201 59.81C18.4501 60.62 18.0401 61.42 17.6701 62.23C16.1701 65.58 15.6501 68.89 12.0701 70.74C11.0001 71.29 9.86009 71.64 8.69009 71.89C7.19009 72.2 5.65009 72.34 4.12009 72.46C3.80009 72.48 3.48009 72.51 3.16009 72.55C2.91009 72.58 2.67009 72.63 2.42009 72.69C2.37009 72.7 2.32009 72.71 2.27009 72.73C2.01009 72.8 1.76009 72.89 1.52009 73.02C0.730093 73.44 0.120093 74.32 0.290093 75.2C0.430093 75.89 1.00009 76.4 1.57009 76.82C2.80009 77.72 4.15009 78.44 5.59009 78.96C2.89009 78.4 -1.16991 82.07 2.74009 83.12C3.45009 83.31 4.20009 83.22 4.92009 83.09C6.36009 82.83 8.85009 81.07 10.0801 81.62C13.1701 82.99 14.9201 85.42 16.4201 88.1C18.6201 92.05 19.8301 95.72 25.8301 100.54V100.53Z" fill="url(#paint23_radial_27_19862)"/>
</g>
<defs>
<radialGradient id="paint0_radial_27_19862" cx="0" cy="0" r="1" gradientUnits="userSpaceOnUse" gradientTransform="translate(61.847 135.453) scale(42.6075 42.6075)">
<stop offset="0.02" stop-color="#FFFDF7"/>
<stop offset="0.13" stop-color="#F5F9F6"/>
<stop offset="0.32" stop-color="#DAF1F3"/>
<stop offset="0.56" stop-color="#AFE4EF"/>
<stop offset="0.84" stop-color="#74D1EA"/>
<stop offset="1" stop-color="#4FC6E7"/>
</radialGradient>
<radialGradient id="paint1_radial_27_19862" cx="0" cy="0" r="1" gradientUnits="userSpaceOnUse" gradientTransform="translate(50.0611 54.3615) rotate(-180) scale(106.124 106.125)">
<stop offset="0.02" stop-color="#FFFDF7"/>
<stop offset="0.13" stop-color="#F5F9F6"/>
<stop offset="0.32" stop-color="#DAF1F3"/>
<stop offset="0.56" stop-color="#AFE4EF"/>
<stop offset="0.84" stop-color="#74D1EA"/>
<stop offset="1" stop-color="#4FC6E7"/>
</radialGradient>
<radialGradient id="paint2_radial_27_19862" cx="0" cy="0" r="1" gradientUnits="userSpaceOnUse" gradientTransform="translate(56.3405 94.2805) rotate(-180) scale(47.576)">
<stop offset="0.02" stop-color="#F38F1D"/>
<stop offset="0.29" stop-color="#F39817"/>
<stop offset="0.74" stop-color="#F4B309"/>
<stop offset="1" stop-color="#F5C500"/>
</radialGradient>
<radialGradient id="paint3_radial_27_19862" cx="0" cy="0" r="1" gradientUnits="userSpaceOnUse" gradientTransform="translate(11.719 77.5035) rotate(180) scale(5.8045)">
<stop offset="0.02" stop-color="#F38F1D"/>
<stop offset="0.29" stop-color="#F39817"/>
<stop offset="0.74" stop-color="#F4B309"/>
<stop offset="1" stop-color="#F5C500"/>
</radialGradient>
<linearGradient id="paint4_linear_27_19862" x1="35.4602" y1="22.73" x2="27.2402" y2="115.4" gradientUnits="userSpaceOnUse">
<stop stop-color="#2A89BB"/>
<stop offset="0.4" stop-color="#004C77"/>
<stop offset="0.54" stop-color="#00466F"/>
<stop offset="0.75" stop-color="#023759"/>
<stop offset="0.98" stop-color="#06233B"/>
</linearGradient>
<linearGradient id="paint5_linear_27_19862" x1="79.31" y1="10.19" x2="69.9" y2="116.23" gradientUnits="userSpaceOnUse">
<stop stop-color="#2A89BB"/>
<stop offset="0.54" stop-color="#004C77"/>
<stop offset="0.64" stop-color="#00466F"/>
<stop offset="0.81" stop-color="#023759"/>
<stop offset="0.98" stop-color="#06233B"/>
</linearGradient>
<linearGradient id="paint6_linear_27_19862" x1="0.589992" y1="71.14" x2="6.26999" y2="83.66" gradientUnits="userSpaceOnUse">
<stop stop-color="#2A89BB"/>
<stop offset="0.54" stop-color="#004C77"/>
<stop offset="0.64" stop-color="#00466F"/>
<stop offset="0.81" stop-color="#023759"/>
<stop offset="0.98" stop-color="#06233B"/>
</linearGradient>
<radialGradient id="paint7_radial_27_19862" cx="0" cy="0" r="1" gradientUnits="userSpaceOnUse" gradientTransform="translate(110.154 53.0885) scale(52.1075 52.1075)">
<stop stop-color="#FFF083"/>
<stop offset="0.11" stop-color="#DDD071"/>
<stop offset="0.43" stop-color="#7F7841"/>
<stop offset="0.7" stop-color="#3A371E"/>
<stop offset="0.88" stop-color="#100F08"/>
<stop offset="0.98"/>
</radialGradient>
<linearGradient id="paint8_linear_27_19862" x1="109.57" y1="24.64" x2="94.7401" y2="91.17" gradientUnits="userSpaceOnUse">
<stop stop-color="#2A89BB"/>
<stop offset="0.54" stop-color="#004C77"/>
<stop offset="0.64" stop-color="#00466F"/>
<stop offset="0.81" stop-color="#023759"/>
<stop offset="0.98" stop-color="#06233B"/>
</linearGradient>
<radialGradient id="paint9_radial_27_19862" cx="0" cy="0" r="1" gradientUnits="userSpaceOnUse" gradientTransform="translate(32.3531 71.1195) rotate(180) scale(32.0815 32.0815)">
<stop offset="0.1" stop-color="#29CCE5"/>
<stop offset="1" stop-color="#020406"/>
</radialGradient>
<radialGradient id="paint10_radial_27_19862" cx="0" cy="0" r="1" gradientUnits="userSpaceOnUse" gradientTransform="translate(52.5846 50.9795) scale(35.5395)">
<stop stop-color="#FFF083"/>
<stop offset="0.11" stop-color="#DDD071"/>
<stop offset="0.43" stop-color="#7F7841"/>
<stop offset="0.7" stop-color="#3A371E"/>
<stop offset="0.88" stop-color="#100F08"/>
<stop offset="0.98"/>
</radialGradient>
<radialGradient id="paint11_radial_27_19862" cx="0" cy="0" r="1" gradientUnits="userSpaceOnUse" gradientTransform="translate(55.4965 57.487) scale(31.008)">
<stop offset="0.1" stop-color="#ECC622"/>
<stop offset="1" stop-color="#020406"/>
</radialGradient>
<radialGradient id="paint12_radial_27_19862" cx="0" cy="0" r="1" gradientUnits="userSpaceOnUse" gradientTransform="translate(8.51755 72.06) rotate(180) scale(6.175 6.175)">
<stop offset="0.1" stop-color="#ECC622"/>
<stop offset="1" stop-color="#020406"/>
</radialGradient>
<linearGradient id="paint13_linear_27_19862" x1="32.36" y1="71.93" x2="33.3" y2="82.44" gradientUnits="userSpaceOnUse">
<stop stop-color="#2A89BB"/>
<stop offset="0.4" stop-color="#004C77"/>
<stop offset="0.54" stop-color="#00466F"/>
<stop offset="0.75" stop-color="#023759"/>
<stop offset="0.98" stop-color="#06233B"/>
</linearGradient>
<linearGradient id="paint14_linear_27_19862" x1="27.6755" y1="69.7092" x2="25.7173" y2="62.3011" gradientUnits="userSpaceOnUse">
<stop stop-color="#FDFEFE"/>
<stop offset="0.29" stop-color="#A9BBD4"/>
<stop offset="0.54" stop-color="#6687B3"/>
<stop offset="0.75" stop-color="#35619C"/>
<stop offset="0.91" stop-color="#18498D"/>
<stop offset="1" stop-color="#0D4188"/>
</linearGradient>
<radialGradient id="paint15_radial_27_19862" cx="0" cy="0" r="1" gradientUnits="userSpaceOnUse" gradientTransform="translate(26.7086 52.7751) rotate(-166.04) scale(13.9683 13.1385)">
<stop stop-color="#80FFFF"/>
<stop offset="0.05" stop-color="#78F3FA"/>
<stop offset="0.15" stop-color="#63D6EF"/>
<stop offset="0.27" stop-color="#43A8DD"/>
<stop offset="1" stop-color="#0D4188"/>
</radialGradient>
<radialGradient id="paint16_radial_27_19862" cx="0" cy="0" r="1" gradientUnits="userSpaceOnUse" gradientTransform="translate(22.8483 57.0428) rotate(-166.04) scale(9.2819 8.7305)">
<stop stop-color="white"/>
<stop offset="0.17" stop-color="#F7F7F9"/>
<stop offset="0.87" stop-color="#DDDDE5"/>
<stop offset="0.89" stop-color="#DADBE2"/>
<stop offset="1" stop-color="#CFD4D8"/>
</radialGradient>
<radialGradient id="paint17_radial_27_19862" cx="0" cy="0" r="1" gradientUnits="userSpaceOnUse" gradientTransform="translate(15.5512 54.8648) rotate(-146.93) scale(3.1065)">
<stop stop-color="#F1F1F2"/>
<stop offset="0.27" stop-color="#009345"/>
<stop offset="0.57" stop-color="#8BC53F"/>
<stop offset="0.63" stop-color="#86C43F"/>
<stop offset="0.7" stop-color="#79C141"/>
<stop offset="0.76" stop-color="#64BC44"/>
<stop offset="0.83" stop-color="#46B647"/>
<stop offset="0.86" stop-color="#37B34A"/>
<stop offset="1" stop-color="#006838"/>
</radialGradient>
<linearGradient id="paint18_linear_27_19862" x1="28.3608" y1="50.8268" x2="24.0088" y2="63.8726" gradientUnits="userSpaceOnUse">
<stop stop-color="#80FFFF"/>
<stop offset="0.41" stop-color="#5ED7EE"/>
<stop offset="0.79" stop-color="#45BAE2"/>
<stop offset="1" stop-color="#3CAFDE"/>
</linearGradient>
<radialGradient id="paint19_radial_27_19862" cx="0" cy="0" r="1" gradientUnits="userSpaceOnUse" gradientTransform="translate(50.1621 -3.7595) scale(53.219 53.219)">
<stop stop-color="#FFF083"/>
<stop offset="0.11" stop-color="#DDD071"/>
<stop offset="0.43" stop-color="#7F7841"/>
<stop offset="0.7" stop-color="#3A371E"/>
<stop offset="0.88" stop-color="#100F08"/>
<stop offset="0.98"/>
</radialGradient>
<radialGradient id="paint20_radial_27_19862" cx="0" cy="0" r="1" gradientUnits="userSpaceOnUse" gradientTransform="translate(49.44 120.282) scale(12.4735 12.4735)">
<stop stop-color="#FFF083"/>
<stop offset="0.11" stop-color="#DDD071"/>
<stop offset="0.43" stop-color="#7F7841"/>
<stop offset="0.7" stop-color="#3A371E"/>
<stop offset="0.88" stop-color="#100F08"/>
<stop offset="0.98"/>
</radialGradient>
<radialGradient id="paint21_radial_27_19862" cx="0" cy="0" r="1" gradientUnits="userSpaceOnUse" gradientTransform="translate(53.8005 114.782) scale(7.144)">
<stop stop-color="#FFF083"/>
<stop offset="0.11" stop-color="#DDD071"/>
<stop offset="0.43" stop-color="#7F7841"/>
<stop offset="0.7" stop-color="#3A371E"/>
<stop offset="0.88" stop-color="#100F08"/>
<stop offset="0.98"/>
</radialGradient>
<radialGradient id="paint22_radial_27_19862" cx="0" cy="0" r="1" gradientUnits="userSpaceOnUse" gradientTransform="translate(98.3652 47.1225) scale(33.725 33.725)">
<stop stop-color="#29CCE5"/>
<stop offset="0.16" stop-color="#20A0B4"/>
<stop offset="0.38" stop-color="#146874"/>
<stop offset="0.59" stop-color="#0B3B42"/>
<stop offset="0.76" stop-color="#051A1E"/>
<stop offset="0.91" stop-color="#010708"/>
<stop offset="1"/>
</radialGradient>
<radialGradient id="paint23_radial_27_19862" cx="0" cy="0" r="1" gradientUnits="userSpaceOnUse" gradientTransform="translate(68.5636 5.864) scale(110.333 110.333)">
<stop offset="0.82"/>
<stop offset="0.83" stop-color="#010708"/>
<stop offset="0.86" stop-color="#051A1E"/>
<stop offset="0.89" stop-color="#0B3B42"/>
<stop offset="0.93" stop-color="#146874"/>
<stop offset="0.97" stop-color="#20A0B4"/>
<stop offset="1" stop-color="#29CCE5"/>
</radialGradient>
<clipPath id="clip0_27_19862">
<rect width="109.84" height="127.84" fill="white"/>
</clipPath>
</defs>
</svg>
